<mxfile host="app.diagrams.net" modified="2022-12-04T10:13:53.902Z" agent="5.0 (Windows NT 10.0; Win64; x64) AppleWebKit/537.36 (KHTML, like Gecko) Chrome/108.0.0.0 Safari/537.36" etag="nSKIMuXZSI72jfL7EsKb" version="20.6.0" type="github">
  <diagram id="R2lEEEUBdFMjLlhIrx00" name="Page-1">
    <mxGraphModel dx="1943" dy="1709" grid="1" gridSize="10" guides="1" tooltips="1" connect="1" arrows="1" fold="1" page="1" pageScale="1" pageWidth="850" pageHeight="1100" math="0" shadow="0" extFonts="Permanent Marker^https://fonts.googleapis.com/css?family=Permanent+Marker">
      <root>
        <mxCell id="0" />
        <mxCell id="1" parent="0" />
        <mxCell id="Z1BsBpzhcpCgyARzmuZx-11" value="Клиент" style="shape=table;startSize=30;container=1;collapsible=1;childLayout=tableLayout;fixedRows=1;rowLines=0;fontStyle=1;align=center;resizeLast=1;fontSize=13;fillColor=#B2C9AB;strokeColor=#474747;fontColor=#0A0A0D;strokeWidth=2;" parent="1" vertex="1">
          <mxGeometry x="-80" y="50" width="150" height="360" as="geometry" />
        </mxCell>
        <mxCell id="Z1BsBpzhcpCgyARzmuZx-12" value="" style="shape=tableRow;horizontal=0;startSize=0;swimlaneHead=0;swimlaneBody=0;fillColor=none;collapsible=0;dropTarget=0;points=[[0,0.5],[1,0.5]];portConstraint=eastwest;top=0;left=0;right=0;bottom=1;fontSize=13;strokeColor=#474747;fontColor=#0A0A0D;strokeWidth=2;" parent="Z1BsBpzhcpCgyARzmuZx-11" vertex="1">
          <mxGeometry y="30" width="150" height="30" as="geometry" />
        </mxCell>
        <mxCell id="Z1BsBpzhcpCgyARzmuZx-13" value="PK" style="shape=partialRectangle;connectable=0;fillColor=none;top=0;left=0;bottom=0;right=0;fontStyle=1;overflow=hidden;fontSize=13;strokeColor=#474747;fontColor=#0A0A0D;strokeWidth=2;" parent="Z1BsBpzhcpCgyARzmuZx-12" vertex="1">
          <mxGeometry width="30" height="30" as="geometry">
            <mxRectangle width="30" height="30" as="alternateBounds" />
          </mxGeometry>
        </mxCell>
        <mxCell id="Z1BsBpzhcpCgyARzmuZx-14" value="ID" style="shape=partialRectangle;connectable=0;fillColor=none;top=0;left=0;bottom=0;right=0;align=left;spacingLeft=6;fontStyle=5;overflow=hidden;fontSize=13;strokeColor=#474747;fontColor=#0A0A0D;strokeWidth=2;" parent="Z1BsBpzhcpCgyARzmuZx-12" vertex="1">
          <mxGeometry x="30" width="120" height="30" as="geometry">
            <mxRectangle width="120" height="30" as="alternateBounds" />
          </mxGeometry>
        </mxCell>
        <mxCell id="Z1BsBpzhcpCgyARzmuZx-15" value="" style="shape=tableRow;horizontal=0;startSize=0;swimlaneHead=0;swimlaneBody=0;fillColor=none;collapsible=0;dropTarget=0;points=[[0,0.5],[1,0.5]];portConstraint=eastwest;top=0;left=0;right=0;bottom=0;fontSize=13;strokeColor=#474747;fontColor=#0A0A0D;strokeWidth=2;" parent="Z1BsBpzhcpCgyARzmuZx-11" vertex="1">
          <mxGeometry y="60" width="150" height="30" as="geometry" />
        </mxCell>
        <mxCell id="Z1BsBpzhcpCgyARzmuZx-16" value="" style="shape=partialRectangle;connectable=0;fillColor=none;top=0;left=0;bottom=0;right=0;editable=1;overflow=hidden;fontSize=13;strokeColor=#474747;fontColor=#0A0A0D;strokeWidth=2;" parent="Z1BsBpzhcpCgyARzmuZx-15" vertex="1">
          <mxGeometry width="30" height="30" as="geometry">
            <mxRectangle width="30" height="30" as="alternateBounds" />
          </mxGeometry>
        </mxCell>
        <mxCell id="Z1BsBpzhcpCgyARzmuZx-17" value="Фамилия" style="shape=partialRectangle;connectable=0;fillColor=none;top=0;left=0;bottom=0;right=0;align=left;spacingLeft=6;overflow=hidden;fontSize=13;strokeColor=#474747;fontColor=#0A0A0D;strokeWidth=2;" parent="Z1BsBpzhcpCgyARzmuZx-15" vertex="1">
          <mxGeometry x="30" width="120" height="30" as="geometry">
            <mxRectangle width="120" height="30" as="alternateBounds" />
          </mxGeometry>
        </mxCell>
        <mxCell id="Z1BsBpzhcpCgyARzmuZx-18" value="" style="shape=tableRow;horizontal=0;startSize=0;swimlaneHead=0;swimlaneBody=0;fillColor=none;collapsible=0;dropTarget=0;points=[[0,0.5],[1,0.5]];portConstraint=eastwest;top=0;left=0;right=0;bottom=0;fontSize=13;strokeColor=#474747;fontColor=#0A0A0D;strokeWidth=2;" parent="Z1BsBpzhcpCgyARzmuZx-11" vertex="1">
          <mxGeometry y="90" width="150" height="30" as="geometry" />
        </mxCell>
        <mxCell id="Z1BsBpzhcpCgyARzmuZx-19" value="" style="shape=partialRectangle;connectable=0;fillColor=none;top=0;left=0;bottom=0;right=0;editable=1;overflow=hidden;fontSize=13;strokeColor=#474747;fontColor=#0A0A0D;strokeWidth=2;" parent="Z1BsBpzhcpCgyARzmuZx-18" vertex="1">
          <mxGeometry width="30" height="30" as="geometry">
            <mxRectangle width="30" height="30" as="alternateBounds" />
          </mxGeometry>
        </mxCell>
        <mxCell id="Z1BsBpzhcpCgyARzmuZx-20" value="Имя" style="shape=partialRectangle;connectable=0;fillColor=none;top=0;left=0;bottom=0;right=0;align=left;spacingLeft=6;overflow=hidden;fontSize=13;strokeColor=#474747;fontColor=#0A0A0D;strokeWidth=2;" parent="Z1BsBpzhcpCgyARzmuZx-18" vertex="1">
          <mxGeometry x="30" width="120" height="30" as="geometry">
            <mxRectangle width="120" height="30" as="alternateBounds" />
          </mxGeometry>
        </mxCell>
        <mxCell id="Z1BsBpzhcpCgyARzmuZx-21" value="" style="shape=tableRow;horizontal=0;startSize=0;swimlaneHead=0;swimlaneBody=0;fillColor=none;collapsible=0;dropTarget=0;points=[[0,0.5],[1,0.5]];portConstraint=eastwest;top=0;left=0;right=0;bottom=0;fontSize=13;strokeColor=#474747;fontColor=#0A0A0D;strokeWidth=2;" parent="Z1BsBpzhcpCgyARzmuZx-11" vertex="1">
          <mxGeometry y="120" width="150" height="30" as="geometry" />
        </mxCell>
        <mxCell id="Z1BsBpzhcpCgyARzmuZx-22" value="" style="shape=partialRectangle;connectable=0;fillColor=none;top=0;left=0;bottom=0;right=0;editable=1;overflow=hidden;fontSize=13;strokeColor=#474747;fontColor=#0A0A0D;strokeWidth=2;" parent="Z1BsBpzhcpCgyARzmuZx-21" vertex="1">
          <mxGeometry width="30" height="30" as="geometry">
            <mxRectangle width="30" height="30" as="alternateBounds" />
          </mxGeometry>
        </mxCell>
        <mxCell id="Z1BsBpzhcpCgyARzmuZx-23" value="Отчиство" style="shape=partialRectangle;connectable=0;fillColor=none;top=0;left=0;bottom=0;right=0;align=left;spacingLeft=6;overflow=hidden;fontSize=13;strokeColor=#474747;fontColor=#0A0A0D;strokeWidth=2;" parent="Z1BsBpzhcpCgyARzmuZx-21" vertex="1">
          <mxGeometry x="30" width="120" height="30" as="geometry">
            <mxRectangle width="120" height="30" as="alternateBounds" />
          </mxGeometry>
        </mxCell>
        <mxCell id="Z1BsBpzhcpCgyARzmuZx-24" value="" style="shape=tableRow;horizontal=0;startSize=0;swimlaneHead=0;swimlaneBody=0;fillColor=none;collapsible=0;dropTarget=0;points=[[0,0.5],[1,0.5]];portConstraint=eastwest;top=0;left=0;right=0;bottom=0;fontSize=13;strokeColor=#474747;fontColor=#0A0A0D;strokeWidth=2;" parent="Z1BsBpzhcpCgyARzmuZx-11" vertex="1">
          <mxGeometry y="150" width="150" height="30" as="geometry" />
        </mxCell>
        <mxCell id="Z1BsBpzhcpCgyARzmuZx-25" value="" style="shape=partialRectangle;connectable=0;fillColor=none;top=0;left=0;bottom=0;right=0;editable=1;overflow=hidden;fontSize=13;strokeColor=#474747;fontColor=#0A0A0D;strokeWidth=2;" parent="Z1BsBpzhcpCgyARzmuZx-24" vertex="1">
          <mxGeometry width="30" height="30" as="geometry">
            <mxRectangle width="30" height="30" as="alternateBounds" />
          </mxGeometry>
        </mxCell>
        <mxCell id="Z1BsBpzhcpCgyARzmuZx-26" value="Пол" style="shape=partialRectangle;connectable=0;fillColor=none;top=0;left=0;bottom=0;right=0;align=left;spacingLeft=6;overflow=hidden;fontSize=13;strokeColor=#474747;fontColor=#0A0A0D;strokeWidth=2;" parent="Z1BsBpzhcpCgyARzmuZx-24" vertex="1">
          <mxGeometry x="30" width="120" height="30" as="geometry">
            <mxRectangle width="120" height="30" as="alternateBounds" />
          </mxGeometry>
        </mxCell>
        <mxCell id="Z1BsBpzhcpCgyARzmuZx-27" value="" style="shape=tableRow;horizontal=0;startSize=0;swimlaneHead=0;swimlaneBody=0;fillColor=none;collapsible=0;dropTarget=0;points=[[0,0.5],[1,0.5]];portConstraint=eastwest;top=0;left=0;right=0;bottom=0;fontSize=13;strokeColor=#474747;fontColor=#0A0A0D;strokeWidth=2;" parent="Z1BsBpzhcpCgyARzmuZx-11" vertex="1">
          <mxGeometry y="180" width="150" height="30" as="geometry" />
        </mxCell>
        <mxCell id="Z1BsBpzhcpCgyARzmuZx-28" value="" style="shape=partialRectangle;connectable=0;fillColor=none;top=0;left=0;bottom=0;right=0;editable=1;overflow=hidden;fontSize=13;strokeColor=#474747;fontColor=#0A0A0D;strokeWidth=2;" parent="Z1BsBpzhcpCgyARzmuZx-27" vertex="1">
          <mxGeometry width="30" height="30" as="geometry">
            <mxRectangle width="30" height="30" as="alternateBounds" />
          </mxGeometry>
        </mxCell>
        <mxCell id="Z1BsBpzhcpCgyARzmuZx-29" value="Дата рождения" style="shape=partialRectangle;connectable=0;fillColor=none;top=0;left=0;bottom=0;right=0;align=left;spacingLeft=6;overflow=hidden;fontSize=13;strokeColor=#474747;fontColor=#0A0A0D;strokeWidth=2;" parent="Z1BsBpzhcpCgyARzmuZx-27" vertex="1">
          <mxGeometry x="30" width="120" height="30" as="geometry">
            <mxRectangle width="120" height="30" as="alternateBounds" />
          </mxGeometry>
        </mxCell>
        <mxCell id="Z1BsBpzhcpCgyARzmuZx-30" value="" style="shape=tableRow;horizontal=0;startSize=0;swimlaneHead=0;swimlaneBody=0;fillColor=none;collapsible=0;dropTarget=0;points=[[0,0.5],[1,0.5]];portConstraint=eastwest;top=0;left=0;right=0;bottom=0;fontSize=13;strokeColor=#474747;fontColor=#0A0A0D;strokeWidth=2;" parent="Z1BsBpzhcpCgyARzmuZx-11" vertex="1">
          <mxGeometry y="210" width="150" height="30" as="geometry" />
        </mxCell>
        <mxCell id="Z1BsBpzhcpCgyARzmuZx-31" value="" style="shape=partialRectangle;connectable=0;fillColor=none;top=0;left=0;bottom=0;right=0;editable=1;overflow=hidden;fontSize=13;strokeColor=#474747;fontColor=#0A0A0D;strokeWidth=2;" parent="Z1BsBpzhcpCgyARzmuZx-30" vertex="1">
          <mxGeometry width="30" height="30" as="geometry">
            <mxRectangle width="30" height="30" as="alternateBounds" />
          </mxGeometry>
        </mxCell>
        <mxCell id="Z1BsBpzhcpCgyARzmuZx-32" value="Паспорт" style="shape=partialRectangle;connectable=0;fillColor=none;top=0;left=0;bottom=0;right=0;align=left;spacingLeft=6;overflow=hidden;fontSize=13;strokeColor=#474747;fontColor=#0A0A0D;strokeWidth=2;" parent="Z1BsBpzhcpCgyARzmuZx-30" vertex="1">
          <mxGeometry x="30" width="120" height="30" as="geometry">
            <mxRectangle width="120" height="30" as="alternateBounds" />
          </mxGeometry>
        </mxCell>
        <mxCell id="Z1BsBpzhcpCgyARzmuZx-36" value="" style="shape=tableRow;horizontal=0;startSize=0;swimlaneHead=0;swimlaneBody=0;fillColor=none;collapsible=0;dropTarget=0;points=[[0,0.5],[1,0.5]];portConstraint=eastwest;top=0;left=0;right=0;bottom=0;fontSize=13;strokeColor=#474747;fontColor=#0A0A0D;strokeWidth=2;" parent="Z1BsBpzhcpCgyARzmuZx-11" vertex="1">
          <mxGeometry y="240" width="150" height="30" as="geometry" />
        </mxCell>
        <mxCell id="Z1BsBpzhcpCgyARzmuZx-37" value="" style="shape=partialRectangle;connectable=0;fillColor=none;top=0;left=0;bottom=0;right=0;editable=1;overflow=hidden;fontSize=13;strokeColor=#474747;fontColor=#0A0A0D;strokeWidth=2;" parent="Z1BsBpzhcpCgyARzmuZx-36" vertex="1">
          <mxGeometry width="30" height="30" as="geometry">
            <mxRectangle width="30" height="30" as="alternateBounds" />
          </mxGeometry>
        </mxCell>
        <mxCell id="Z1BsBpzhcpCgyARzmuZx-38" value="Телефон" style="shape=partialRectangle;connectable=0;fillColor=none;top=0;left=0;bottom=0;right=0;align=left;spacingLeft=6;overflow=hidden;fontSize=13;strokeColor=#474747;fontColor=#0A0A0D;strokeWidth=2;" parent="Z1BsBpzhcpCgyARzmuZx-36" vertex="1">
          <mxGeometry x="30" width="120" height="30" as="geometry">
            <mxRectangle width="120" height="30" as="alternateBounds" />
          </mxGeometry>
        </mxCell>
        <mxCell id="Z1BsBpzhcpCgyARzmuZx-296" value="" style="shape=tableRow;horizontal=0;startSize=0;swimlaneHead=0;swimlaneBody=0;fillColor=none;collapsible=0;dropTarget=0;points=[[0,0.5],[1,0.5]];portConstraint=eastwest;top=0;left=0;right=0;bottom=0;fontSize=13;strokeColor=#474747;fontColor=#0A0A0D;strokeWidth=2;" parent="Z1BsBpzhcpCgyARzmuZx-11" vertex="1">
          <mxGeometry y="270" width="150" height="30" as="geometry" />
        </mxCell>
        <mxCell id="Z1BsBpzhcpCgyARzmuZx-297" value="FK" style="shape=partialRectangle;connectable=0;fillColor=none;top=0;left=0;bottom=0;right=0;editable=1;overflow=hidden;fontSize=13;strokeColor=#474747;fontColor=#0A0A0D;strokeWidth=2;" parent="Z1BsBpzhcpCgyARzmuZx-296" vertex="1">
          <mxGeometry width="30" height="30" as="geometry">
            <mxRectangle width="30" height="30" as="alternateBounds" />
          </mxGeometry>
        </mxCell>
        <mxCell id="Z1BsBpzhcpCgyARzmuZx-298" value="Адрес" style="shape=partialRectangle;connectable=0;fillColor=none;top=0;left=0;bottom=0;right=0;align=left;spacingLeft=6;overflow=hidden;fontSize=13;strokeColor=#474747;fontColor=#0A0A0D;strokeWidth=2;" parent="Z1BsBpzhcpCgyARzmuZx-296" vertex="1">
          <mxGeometry x="30" width="120" height="30" as="geometry">
            <mxRectangle width="120" height="30" as="alternateBounds" />
          </mxGeometry>
        </mxCell>
        <mxCell id="s5G9YJPdSNpEqPbHZ_q9-64" value="" style="shape=tableRow;horizontal=0;startSize=0;swimlaneHead=0;swimlaneBody=0;fillColor=none;collapsible=0;dropTarget=0;points=[[0,0.5],[1,0.5]];portConstraint=eastwest;top=0;left=0;right=0;bottom=0;fontSize=13;strokeColor=#474747;fontColor=#0A0A0D;strokeWidth=2;" vertex="1" parent="Z1BsBpzhcpCgyARzmuZx-11">
          <mxGeometry y="300" width="150" height="30" as="geometry" />
        </mxCell>
        <mxCell id="s5G9YJPdSNpEqPbHZ_q9-65" value="FK" style="shape=partialRectangle;connectable=0;fillColor=none;top=0;left=0;bottom=0;right=0;editable=1;overflow=hidden;fontSize=13;strokeColor=#474747;fontColor=#0A0A0D;strokeWidth=2;" vertex="1" parent="s5G9YJPdSNpEqPbHZ_q9-64">
          <mxGeometry width="30" height="30" as="geometry">
            <mxRectangle width="30" height="30" as="alternateBounds" />
          </mxGeometry>
        </mxCell>
        <mxCell id="s5G9YJPdSNpEqPbHZ_q9-66" value="Счета" style="shape=partialRectangle;connectable=0;fillColor=none;top=0;left=0;bottom=0;right=0;align=left;spacingLeft=6;overflow=hidden;fontSize=13;strokeColor=#474747;fontColor=#0A0A0D;strokeWidth=2;" vertex="1" parent="s5G9YJPdSNpEqPbHZ_q9-64">
          <mxGeometry x="30" width="120" height="30" as="geometry">
            <mxRectangle width="120" height="30" as="alternateBounds" />
          </mxGeometry>
        </mxCell>
        <mxCell id="s5G9YJPdSNpEqPbHZ_q9-67" value="" style="shape=tableRow;horizontal=0;startSize=0;swimlaneHead=0;swimlaneBody=0;fillColor=none;collapsible=0;dropTarget=0;points=[[0,0.5],[1,0.5]];portConstraint=eastwest;top=0;left=0;right=0;bottom=0;fontSize=13;strokeColor=#474747;fontColor=#0A0A0D;strokeWidth=2;" vertex="1" parent="Z1BsBpzhcpCgyARzmuZx-11">
          <mxGeometry y="330" width="150" height="30" as="geometry" />
        </mxCell>
        <mxCell id="s5G9YJPdSNpEqPbHZ_q9-68" value="FK" style="shape=partialRectangle;connectable=0;fillColor=none;top=0;left=0;bottom=0;right=0;editable=1;overflow=hidden;fontSize=13;strokeColor=#474747;fontColor=#0A0A0D;strokeWidth=2;" vertex="1" parent="s5G9YJPdSNpEqPbHZ_q9-67">
          <mxGeometry width="30" height="30" as="geometry">
            <mxRectangle width="30" height="30" as="alternateBounds" />
          </mxGeometry>
        </mxCell>
        <mxCell id="s5G9YJPdSNpEqPbHZ_q9-69" value="Банк " style="shape=partialRectangle;connectable=0;fillColor=none;top=0;left=0;bottom=0;right=0;align=left;spacingLeft=6;overflow=hidden;fontSize=13;strokeColor=#474747;fontColor=#0A0A0D;strokeWidth=2;" vertex="1" parent="s5G9YJPdSNpEqPbHZ_q9-67">
          <mxGeometry x="30" width="120" height="30" as="geometry">
            <mxRectangle width="120" height="30" as="alternateBounds" />
          </mxGeometry>
        </mxCell>
        <mxCell id="dbsTAfBsprb9ZXSNt7f_-24" style="edgeStyle=orthogonalEdgeStyle;rounded=0;orthogonalLoop=1;jettySize=auto;html=1;entryX=1;entryY=0.5;entryDx=0;entryDy=0;startArrow=ERmandOne;startFill=0;endArrow=ERzeroToMany;endFill=0;exitX=-0.007;exitY=0.087;exitDx=0;exitDy=0;exitPerimeter=0;strokeColor=#474747;fontColor=#0A0A0D;strokeWidth=2;fontSize=13;jumpSize=6;endSize=8;startSize=8;" parent="1" source="Z1BsBpzhcpCgyARzmuZx-45" target="Z1BsBpzhcpCgyARzmuZx-307" edge="1">
          <mxGeometry relative="1" as="geometry">
            <Array as="points">
              <mxPoint x="1000" y="694" />
              <mxPoint x="1000" y="515" />
            </Array>
          </mxGeometry>
        </mxCell>
        <mxCell id="Z1BsBpzhcpCgyARzmuZx-45" value="Сотрудник" style="shape=table;startSize=30;container=1;collapsible=1;childLayout=tableLayout;fixedRows=1;rowLines=0;fontStyle=1;align=center;resizeLast=1;fontSize=13;fillColor=#B2C9AB;strokeColor=#474747;fontColor=#0A0A0D;strokeWidth=2;" parent="1" vertex="1">
          <mxGeometry x="1080" y="670" width="160" height="270" as="geometry">
            <mxRectangle x="980" y="670" width="90" height="30" as="alternateBounds" />
          </mxGeometry>
        </mxCell>
        <mxCell id="Z1BsBpzhcpCgyARzmuZx-46" value="" style="shape=tableRow;horizontal=0;startSize=0;swimlaneHead=0;swimlaneBody=0;fillColor=none;collapsible=0;dropTarget=0;points=[[0,0.5],[1,0.5]];portConstraint=eastwest;top=0;left=0;right=0;bottom=1;fontSize=13;strokeColor=#474747;fontColor=#0A0A0D;strokeWidth=2;" parent="Z1BsBpzhcpCgyARzmuZx-45" vertex="1">
          <mxGeometry y="30" width="160" height="30" as="geometry" />
        </mxCell>
        <mxCell id="Z1BsBpzhcpCgyARzmuZx-47" value="PK" style="shape=partialRectangle;connectable=0;fillColor=none;top=0;left=0;bottom=0;right=0;fontStyle=1;overflow=hidden;fontSize=13;strokeColor=#474747;fontColor=#0A0A0D;strokeWidth=2;" parent="Z1BsBpzhcpCgyARzmuZx-46" vertex="1">
          <mxGeometry width="30" height="30" as="geometry">
            <mxRectangle width="30" height="30" as="alternateBounds" />
          </mxGeometry>
        </mxCell>
        <mxCell id="Z1BsBpzhcpCgyARzmuZx-48" value="ID" style="shape=partialRectangle;connectable=0;fillColor=none;top=0;left=0;bottom=0;right=0;align=left;spacingLeft=6;fontStyle=5;overflow=hidden;fontSize=13;strokeColor=#474747;fontColor=#0A0A0D;strokeWidth=2;" parent="Z1BsBpzhcpCgyARzmuZx-46" vertex="1">
          <mxGeometry x="30" width="130" height="30" as="geometry">
            <mxRectangle width="130" height="30" as="alternateBounds" />
          </mxGeometry>
        </mxCell>
        <mxCell id="Z1BsBpzhcpCgyARzmuZx-49" value="" style="shape=tableRow;horizontal=0;startSize=0;swimlaneHead=0;swimlaneBody=0;fillColor=none;collapsible=0;dropTarget=0;points=[[0,0.5],[1,0.5]];portConstraint=eastwest;top=0;left=0;right=0;bottom=0;fontSize=13;strokeColor=#474747;fontColor=#0A0A0D;strokeWidth=2;" parent="Z1BsBpzhcpCgyARzmuZx-45" vertex="1">
          <mxGeometry y="60" width="160" height="30" as="geometry" />
        </mxCell>
        <mxCell id="Z1BsBpzhcpCgyARzmuZx-50" value="" style="shape=partialRectangle;connectable=0;fillColor=none;top=0;left=0;bottom=0;right=0;editable=1;overflow=hidden;fontSize=13;strokeColor=#474747;fontColor=#0A0A0D;strokeWidth=2;" parent="Z1BsBpzhcpCgyARzmuZx-49" vertex="1">
          <mxGeometry width="30" height="30" as="geometry">
            <mxRectangle width="30" height="30" as="alternateBounds" />
          </mxGeometry>
        </mxCell>
        <mxCell id="Z1BsBpzhcpCgyARzmuZx-51" value="Фамилия" style="shape=partialRectangle;connectable=0;fillColor=none;top=0;left=0;bottom=0;right=0;align=left;spacingLeft=6;overflow=hidden;fontSize=13;strokeColor=#474747;fontColor=#0A0A0D;strokeWidth=2;" parent="Z1BsBpzhcpCgyARzmuZx-49" vertex="1">
          <mxGeometry x="30" width="130" height="30" as="geometry">
            <mxRectangle width="130" height="30" as="alternateBounds" />
          </mxGeometry>
        </mxCell>
        <mxCell id="Z1BsBpzhcpCgyARzmuZx-52" value="" style="shape=tableRow;horizontal=0;startSize=0;swimlaneHead=0;swimlaneBody=0;fillColor=none;collapsible=0;dropTarget=0;points=[[0,0.5],[1,0.5]];portConstraint=eastwest;top=0;left=0;right=0;bottom=0;fontSize=13;strokeColor=#474747;fontColor=#0A0A0D;strokeWidth=2;" parent="Z1BsBpzhcpCgyARzmuZx-45" vertex="1">
          <mxGeometry y="90" width="160" height="30" as="geometry" />
        </mxCell>
        <mxCell id="Z1BsBpzhcpCgyARzmuZx-53" value="" style="shape=partialRectangle;connectable=0;fillColor=none;top=0;left=0;bottom=0;right=0;editable=1;overflow=hidden;fontSize=13;strokeColor=#474747;fontColor=#0A0A0D;strokeWidth=2;" parent="Z1BsBpzhcpCgyARzmuZx-52" vertex="1">
          <mxGeometry width="30" height="30" as="geometry">
            <mxRectangle width="30" height="30" as="alternateBounds" />
          </mxGeometry>
        </mxCell>
        <mxCell id="Z1BsBpzhcpCgyARzmuZx-54" value="Имя" style="shape=partialRectangle;connectable=0;fillColor=none;top=0;left=0;bottom=0;right=0;align=left;spacingLeft=6;overflow=hidden;fontSize=13;strokeColor=#474747;fontColor=#0A0A0D;strokeWidth=2;" parent="Z1BsBpzhcpCgyARzmuZx-52" vertex="1">
          <mxGeometry x="30" width="130" height="30" as="geometry">
            <mxRectangle width="130" height="30" as="alternateBounds" />
          </mxGeometry>
        </mxCell>
        <mxCell id="Z1BsBpzhcpCgyARzmuZx-55" value="" style="shape=tableRow;horizontal=0;startSize=0;swimlaneHead=0;swimlaneBody=0;fillColor=none;collapsible=0;dropTarget=0;points=[[0,0.5],[1,0.5]];portConstraint=eastwest;top=0;left=0;right=0;bottom=0;fontSize=13;strokeColor=#474747;fontColor=#0A0A0D;strokeWidth=2;" parent="Z1BsBpzhcpCgyARzmuZx-45" vertex="1">
          <mxGeometry y="120" width="160" height="30" as="geometry" />
        </mxCell>
        <mxCell id="Z1BsBpzhcpCgyARzmuZx-56" value="" style="shape=partialRectangle;connectable=0;fillColor=none;top=0;left=0;bottom=0;right=0;editable=1;overflow=hidden;fontSize=13;strokeColor=#474747;fontColor=#0A0A0D;strokeWidth=2;" parent="Z1BsBpzhcpCgyARzmuZx-55" vertex="1">
          <mxGeometry width="30" height="30" as="geometry">
            <mxRectangle width="30" height="30" as="alternateBounds" />
          </mxGeometry>
        </mxCell>
        <mxCell id="Z1BsBpzhcpCgyARzmuZx-57" value="Отчество" style="shape=partialRectangle;connectable=0;fillColor=none;top=0;left=0;bottom=0;right=0;align=left;spacingLeft=6;overflow=hidden;fontSize=13;strokeColor=#474747;fontColor=#0A0A0D;strokeWidth=2;" parent="Z1BsBpzhcpCgyARzmuZx-55" vertex="1">
          <mxGeometry x="30" width="130" height="30" as="geometry">
            <mxRectangle width="130" height="30" as="alternateBounds" />
          </mxGeometry>
        </mxCell>
        <mxCell id="Z1BsBpzhcpCgyARzmuZx-58" value="" style="shape=tableRow;horizontal=0;startSize=0;swimlaneHead=0;swimlaneBody=0;fillColor=none;collapsible=0;dropTarget=0;points=[[0,0.5],[1,0.5]];portConstraint=eastwest;top=0;left=0;right=0;bottom=0;fontSize=13;strokeColor=#474747;fontColor=#0A0A0D;strokeWidth=2;" parent="Z1BsBpzhcpCgyARzmuZx-45" vertex="1">
          <mxGeometry y="150" width="160" height="30" as="geometry" />
        </mxCell>
        <mxCell id="Z1BsBpzhcpCgyARzmuZx-59" value="" style="shape=partialRectangle;connectable=0;fillColor=none;top=0;left=0;bottom=0;right=0;editable=1;overflow=hidden;fontSize=13;strokeColor=#474747;fontColor=#0A0A0D;strokeWidth=2;" parent="Z1BsBpzhcpCgyARzmuZx-58" vertex="1">
          <mxGeometry width="30" height="30" as="geometry">
            <mxRectangle width="30" height="30" as="alternateBounds" />
          </mxGeometry>
        </mxCell>
        <mxCell id="Z1BsBpzhcpCgyARzmuZx-60" value="Пол" style="shape=partialRectangle;connectable=0;fillColor=none;top=0;left=0;bottom=0;right=0;align=left;spacingLeft=6;overflow=hidden;fontSize=13;strokeColor=#474747;fontColor=#0A0A0D;strokeWidth=2;" parent="Z1BsBpzhcpCgyARzmuZx-58" vertex="1">
          <mxGeometry x="30" width="130" height="30" as="geometry">
            <mxRectangle width="130" height="30" as="alternateBounds" />
          </mxGeometry>
        </mxCell>
        <mxCell id="Z1BsBpzhcpCgyARzmuZx-61" value="" style="shape=tableRow;horizontal=0;startSize=0;swimlaneHead=0;swimlaneBody=0;fillColor=none;collapsible=0;dropTarget=0;points=[[0,0.5],[1,0.5]];portConstraint=eastwest;top=0;left=0;right=0;bottom=0;fontSize=13;strokeColor=#474747;fontColor=#0A0A0D;strokeWidth=2;" parent="Z1BsBpzhcpCgyARzmuZx-45" vertex="1">
          <mxGeometry y="180" width="160" height="30" as="geometry" />
        </mxCell>
        <mxCell id="Z1BsBpzhcpCgyARzmuZx-62" value="" style="shape=partialRectangle;connectable=0;fillColor=none;top=0;left=0;bottom=0;right=0;editable=1;overflow=hidden;fontSize=13;strokeColor=#474747;fontColor=#0A0A0D;strokeWidth=2;" parent="Z1BsBpzhcpCgyARzmuZx-61" vertex="1">
          <mxGeometry width="30" height="30" as="geometry">
            <mxRectangle width="30" height="30" as="alternateBounds" />
          </mxGeometry>
        </mxCell>
        <mxCell id="Z1BsBpzhcpCgyARzmuZx-63" value="День рождение" style="shape=partialRectangle;connectable=0;fillColor=none;top=0;left=0;bottom=0;right=0;align=left;spacingLeft=6;overflow=hidden;fontSize=13;strokeColor=#474747;fontColor=#0A0A0D;strokeWidth=2;" parent="Z1BsBpzhcpCgyARzmuZx-61" vertex="1">
          <mxGeometry x="30" width="130" height="30" as="geometry">
            <mxRectangle width="130" height="30" as="alternateBounds" />
          </mxGeometry>
        </mxCell>
        <mxCell id="Z1BsBpzhcpCgyARzmuZx-124" value="" style="shape=tableRow;horizontal=0;startSize=0;swimlaneHead=0;swimlaneBody=0;fillColor=none;collapsible=0;dropTarget=0;points=[[0,0.5],[1,0.5]];portConstraint=eastwest;top=0;left=0;right=0;bottom=0;fontSize=13;strokeColor=#474747;fontColor=#0A0A0D;strokeWidth=2;" parent="Z1BsBpzhcpCgyARzmuZx-45" vertex="1">
          <mxGeometry y="210" width="160" height="30" as="geometry" />
        </mxCell>
        <mxCell id="Z1BsBpzhcpCgyARzmuZx-125" value="" style="shape=partialRectangle;connectable=0;fillColor=none;top=0;left=0;bottom=0;right=0;editable=1;overflow=hidden;fontSize=13;strokeColor=#474747;fontColor=#0A0A0D;strokeWidth=2;" parent="Z1BsBpzhcpCgyARzmuZx-124" vertex="1">
          <mxGeometry width="30" height="30" as="geometry">
            <mxRectangle width="30" height="30" as="alternateBounds" />
          </mxGeometry>
        </mxCell>
        <mxCell id="Z1BsBpzhcpCgyARzmuZx-126" value="Тел." style="shape=partialRectangle;connectable=0;fillColor=none;top=0;left=0;bottom=0;right=0;align=left;spacingLeft=6;overflow=hidden;fontSize=13;strokeColor=#474747;fontColor=#0A0A0D;strokeWidth=2;" parent="Z1BsBpzhcpCgyARzmuZx-124" vertex="1">
          <mxGeometry x="30" width="130" height="30" as="geometry">
            <mxRectangle width="130" height="30" as="alternateBounds" />
          </mxGeometry>
        </mxCell>
        <mxCell id="Z1BsBpzhcpCgyARzmuZx-165" value="" style="shape=tableRow;horizontal=0;startSize=0;swimlaneHead=0;swimlaneBody=0;fillColor=none;collapsible=0;dropTarget=0;points=[[0,0.5],[1,0.5]];portConstraint=eastwest;top=0;left=0;right=0;bottom=0;fontSize=13;fontStyle=1;strokeColor=#474747;fontColor=#0A0A0D;strokeWidth=2;" parent="Z1BsBpzhcpCgyARzmuZx-45" vertex="1">
          <mxGeometry y="240" width="160" height="30" as="geometry" />
        </mxCell>
        <mxCell id="Z1BsBpzhcpCgyARzmuZx-166" value="FK" style="shape=partialRectangle;connectable=0;fillColor=none;top=0;left=0;bottom=0;right=0;editable=1;overflow=hidden;fontSize=13;fontStyle=1;strokeColor=#474747;fontColor=#0A0A0D;strokeWidth=2;" parent="Z1BsBpzhcpCgyARzmuZx-165" vertex="1">
          <mxGeometry width="30" height="30" as="geometry">
            <mxRectangle width="30" height="30" as="alternateBounds" />
          </mxGeometry>
        </mxCell>
        <mxCell id="Z1BsBpzhcpCgyARzmuZx-167" value="Банк" style="shape=partialRectangle;connectable=0;fillColor=none;top=0;left=0;bottom=0;right=0;align=left;spacingLeft=6;overflow=hidden;fontSize=13;fontStyle=1;strokeColor=#474747;fontColor=#0A0A0D;strokeWidth=2;" parent="Z1BsBpzhcpCgyARzmuZx-165" vertex="1">
          <mxGeometry x="30" width="130" height="30" as="geometry">
            <mxRectangle width="130" height="30" as="alternateBounds" />
          </mxGeometry>
        </mxCell>
        <mxCell id="Z1BsBpzhcpCgyARzmuZx-143" value="Счета" style="shape=table;startSize=30;container=1;collapsible=1;childLayout=tableLayout;fixedRows=1;rowLines=0;fontStyle=1;align=center;resizeLast=1;fontSize=13;fillColor=#B2C9AB;strokeColor=#474747;fontColor=#0A0A0D;strokeWidth=2;" parent="1" vertex="1">
          <mxGeometry x="220" y="-20" width="200" height="240" as="geometry" />
        </mxCell>
        <mxCell id="Z1BsBpzhcpCgyARzmuZx-144" value="" style="shape=tableRow;horizontal=0;startSize=0;swimlaneHead=0;swimlaneBody=0;fillColor=none;collapsible=0;dropTarget=0;points=[[0,0.5],[1,0.5]];portConstraint=eastwest;top=0;left=0;right=0;bottom=1;fontSize=13;strokeColor=#474747;fontColor=#0A0A0D;strokeWidth=2;" parent="Z1BsBpzhcpCgyARzmuZx-143" vertex="1">
          <mxGeometry y="30" width="200" height="30" as="geometry" />
        </mxCell>
        <mxCell id="Z1BsBpzhcpCgyARzmuZx-145" value="PK" style="shape=partialRectangle;connectable=0;fillColor=none;top=0;left=0;bottom=0;right=0;fontStyle=1;overflow=hidden;fontSize=13;strokeColor=#474747;fontColor=#0A0A0D;strokeWidth=2;" parent="Z1BsBpzhcpCgyARzmuZx-144" vertex="1">
          <mxGeometry width="30" height="30" as="geometry">
            <mxRectangle width="30" height="30" as="alternateBounds" />
          </mxGeometry>
        </mxCell>
        <mxCell id="Z1BsBpzhcpCgyARzmuZx-146" value="ID" style="shape=partialRectangle;connectable=0;fillColor=none;top=0;left=0;bottom=0;right=0;align=left;spacingLeft=6;fontStyle=5;overflow=hidden;fontSize=13;strokeColor=#474747;fontColor=#0A0A0D;strokeWidth=2;" parent="Z1BsBpzhcpCgyARzmuZx-144" vertex="1">
          <mxGeometry x="30" width="170" height="30" as="geometry">
            <mxRectangle width="170" height="30" as="alternateBounds" />
          </mxGeometry>
        </mxCell>
        <mxCell id="Z1BsBpzhcpCgyARzmuZx-147" value="" style="shape=tableRow;horizontal=0;startSize=0;swimlaneHead=0;swimlaneBody=0;fillColor=none;collapsible=0;dropTarget=0;points=[[0,0.5],[1,0.5]];portConstraint=eastwest;top=0;left=0;right=0;bottom=0;fontSize=13;strokeColor=#474747;fontColor=#0A0A0D;strokeWidth=2;" parent="Z1BsBpzhcpCgyARzmuZx-143" vertex="1">
          <mxGeometry y="60" width="200" height="30" as="geometry" />
        </mxCell>
        <mxCell id="Z1BsBpzhcpCgyARzmuZx-148" value="FK" style="shape=partialRectangle;connectable=0;fillColor=none;top=0;left=0;bottom=0;right=0;editable=1;overflow=hidden;fontSize=13;fontStyle=1;strokeColor=#474747;fontColor=#0A0A0D;strokeWidth=2;" parent="Z1BsBpzhcpCgyARzmuZx-147" vertex="1">
          <mxGeometry width="30" height="30" as="geometry">
            <mxRectangle width="30" height="30" as="alternateBounds" />
          </mxGeometry>
        </mxCell>
        <mxCell id="Z1BsBpzhcpCgyARzmuZx-149" value="Банк" style="shape=partialRectangle;connectable=0;fillColor=none;top=0;left=0;bottom=0;right=0;align=left;spacingLeft=6;overflow=hidden;fontSize=13;fontStyle=1;strokeColor=#474747;fontColor=#0A0A0D;strokeWidth=2;" parent="Z1BsBpzhcpCgyARzmuZx-147" vertex="1">
          <mxGeometry x="30" width="170" height="30" as="geometry">
            <mxRectangle width="170" height="30" as="alternateBounds" />
          </mxGeometry>
        </mxCell>
        <mxCell id="Z1BsBpzhcpCgyARzmuZx-150" value="" style="shape=tableRow;horizontal=0;startSize=0;swimlaneHead=0;swimlaneBody=0;fillColor=none;collapsible=0;dropTarget=0;points=[[0,0.5],[1,0.5]];portConstraint=eastwest;top=0;left=0;right=0;bottom=0;fontSize=13;strokeColor=#474747;fontColor=#0A0A0D;strokeWidth=2;" parent="Z1BsBpzhcpCgyARzmuZx-143" vertex="1">
          <mxGeometry y="90" width="200" height="30" as="geometry" />
        </mxCell>
        <mxCell id="Z1BsBpzhcpCgyARzmuZx-151" value="" style="shape=partialRectangle;connectable=0;fillColor=none;top=0;left=0;bottom=0;right=0;editable=1;overflow=hidden;fontSize=13;strokeColor=#474747;fontColor=#0A0A0D;strokeWidth=2;" parent="Z1BsBpzhcpCgyARzmuZx-150" vertex="1">
          <mxGeometry width="30" height="30" as="geometry">
            <mxRectangle width="30" height="30" as="alternateBounds" />
          </mxGeometry>
        </mxCell>
        <mxCell id="Z1BsBpzhcpCgyARzmuZx-152" value="Ссудный счет " style="shape=partialRectangle;connectable=0;fillColor=none;top=0;left=0;bottom=0;right=0;align=left;spacingLeft=6;overflow=hidden;fontSize=13;strokeColor=#474747;fontColor=#0A0A0D;strokeWidth=2;" parent="Z1BsBpzhcpCgyARzmuZx-150" vertex="1">
          <mxGeometry x="30" width="170" height="30" as="geometry">
            <mxRectangle width="170" height="30" as="alternateBounds" />
          </mxGeometry>
        </mxCell>
        <mxCell id="Z1BsBpzhcpCgyARzmuZx-153" value="" style="shape=tableRow;horizontal=0;startSize=0;swimlaneHead=0;swimlaneBody=0;fillColor=none;collapsible=0;dropTarget=0;points=[[0,0.5],[1,0.5]];portConstraint=eastwest;top=0;left=0;right=0;bottom=0;fontSize=13;strokeColor=#474747;fontColor=#0A0A0D;strokeWidth=2;" parent="Z1BsBpzhcpCgyARzmuZx-143" vertex="1">
          <mxGeometry y="120" width="200" height="30" as="geometry" />
        </mxCell>
        <mxCell id="Z1BsBpzhcpCgyARzmuZx-154" value="" style="shape=partialRectangle;connectable=0;fillColor=none;top=0;left=0;bottom=0;right=0;editable=1;overflow=hidden;fontSize=13;strokeColor=#474747;fontColor=#0A0A0D;strokeWidth=2;" parent="Z1BsBpzhcpCgyARzmuZx-153" vertex="1">
          <mxGeometry width="30" height="30" as="geometry">
            <mxRectangle width="30" height="30" as="alternateBounds" />
          </mxGeometry>
        </mxCell>
        <mxCell id="Z1BsBpzhcpCgyARzmuZx-155" value="Счет списания %" style="shape=partialRectangle;connectable=0;fillColor=none;top=0;left=0;bottom=0;right=0;align=left;spacingLeft=6;overflow=hidden;fontSize=13;strokeColor=#474747;fontColor=#0A0A0D;strokeWidth=2;" parent="Z1BsBpzhcpCgyARzmuZx-153" vertex="1">
          <mxGeometry x="30" width="170" height="30" as="geometry">
            <mxRectangle width="170" height="30" as="alternateBounds" />
          </mxGeometry>
        </mxCell>
        <mxCell id="Z1BsBpzhcpCgyARzmuZx-156" value="" style="shape=tableRow;horizontal=0;startSize=0;swimlaneHead=0;swimlaneBody=0;fillColor=none;collapsible=0;dropTarget=0;points=[[0,0.5],[1,0.5]];portConstraint=eastwest;top=0;left=0;right=0;bottom=0;fontSize=13;strokeColor=#474747;fontColor=#0A0A0D;strokeWidth=2;" parent="Z1BsBpzhcpCgyARzmuZx-143" vertex="1">
          <mxGeometry y="150" width="200" height="30" as="geometry" />
        </mxCell>
        <mxCell id="Z1BsBpzhcpCgyARzmuZx-157" value="" style="shape=partialRectangle;connectable=0;fillColor=none;top=0;left=0;bottom=0;right=0;editable=1;overflow=hidden;fontSize=13;strokeColor=#474747;fontColor=#0A0A0D;strokeWidth=2;" parent="Z1BsBpzhcpCgyARzmuZx-156" vertex="1">
          <mxGeometry width="30" height="30" as="geometry">
            <mxRectangle width="30" height="30" as="alternateBounds" />
          </mxGeometry>
        </mxCell>
        <mxCell id="Z1BsBpzhcpCgyARzmuZx-158" value="Счет списания штрафов" style="shape=partialRectangle;connectable=0;fillColor=none;top=0;left=0;bottom=0;right=0;align=left;spacingLeft=6;overflow=hidden;fontSize=13;strokeColor=#474747;fontColor=#0A0A0D;strokeWidth=2;" parent="Z1BsBpzhcpCgyARzmuZx-156" vertex="1">
          <mxGeometry x="30" width="170" height="30" as="geometry">
            <mxRectangle width="170" height="30" as="alternateBounds" />
          </mxGeometry>
        </mxCell>
        <mxCell id="Z1BsBpzhcpCgyARzmuZx-159" value="" style="shape=tableRow;horizontal=0;startSize=0;swimlaneHead=0;swimlaneBody=0;fillColor=none;collapsible=0;dropTarget=0;points=[[0,0.5],[1,0.5]];portConstraint=eastwest;top=0;left=0;right=0;bottom=0;fontSize=13;strokeColor=#474747;fontColor=#0A0A0D;strokeWidth=2;" parent="Z1BsBpzhcpCgyARzmuZx-143" vertex="1">
          <mxGeometry y="180" width="200" height="30" as="geometry" />
        </mxCell>
        <mxCell id="Z1BsBpzhcpCgyARzmuZx-160" value="" style="shape=partialRectangle;connectable=0;fillColor=none;top=0;left=0;bottom=0;right=0;editable=1;overflow=hidden;fontSize=13;strokeColor=#474747;fontColor=#0A0A0D;strokeWidth=2;" parent="Z1BsBpzhcpCgyARzmuZx-159" vertex="1">
          <mxGeometry width="30" height="30" as="geometry">
            <mxRectangle width="30" height="30" as="alternateBounds" />
          </mxGeometry>
        </mxCell>
        <mxCell id="Z1BsBpzhcpCgyARzmuZx-161" value="Счет списания пений" style="shape=partialRectangle;connectable=0;fillColor=none;top=0;left=0;bottom=0;right=0;align=left;spacingLeft=6;overflow=hidden;fontSize=13;strokeColor=#474747;fontColor=#0A0A0D;strokeWidth=2;" parent="Z1BsBpzhcpCgyARzmuZx-159" vertex="1">
          <mxGeometry x="30" width="170" height="30" as="geometry">
            <mxRectangle width="170" height="30" as="alternateBounds" />
          </mxGeometry>
        </mxCell>
        <mxCell id="Z1BsBpzhcpCgyARzmuZx-228" value="" style="shape=tableRow;horizontal=0;startSize=0;swimlaneHead=0;swimlaneBody=0;fillColor=none;collapsible=0;dropTarget=0;points=[[0,0.5],[1,0.5]];portConstraint=eastwest;top=0;left=0;right=0;bottom=0;fontSize=13;strokeColor=#474747;fontColor=#0A0A0D;strokeWidth=2;" parent="Z1BsBpzhcpCgyARzmuZx-143" vertex="1">
          <mxGeometry y="210" width="200" height="30" as="geometry" />
        </mxCell>
        <mxCell id="Z1BsBpzhcpCgyARzmuZx-229" value="" style="shape=partialRectangle;connectable=0;fillColor=none;top=0;left=0;bottom=0;right=0;editable=1;overflow=hidden;fontSize=13;strokeColor=#474747;fontColor=#0A0A0D;strokeWidth=2;" parent="Z1BsBpzhcpCgyARzmuZx-228" vertex="1">
          <mxGeometry width="30" height="30" as="geometry">
            <mxRectangle width="30" height="30" as="alternateBounds" />
          </mxGeometry>
        </mxCell>
        <mxCell id="Z1BsBpzhcpCgyARzmuZx-230" value="Тек.счет" style="shape=partialRectangle;connectable=0;fillColor=none;top=0;left=0;bottom=0;right=0;align=left;spacingLeft=6;overflow=hidden;fontSize=13;strokeColor=#474747;fontColor=#0A0A0D;strokeWidth=2;" parent="Z1BsBpzhcpCgyARzmuZx-228" vertex="1">
          <mxGeometry x="30" width="170" height="30" as="geometry">
            <mxRectangle width="170" height="30" as="alternateBounds" />
          </mxGeometry>
        </mxCell>
        <mxCell id="dbsTAfBsprb9ZXSNt7f_-23" style="edgeStyle=orthogonalEdgeStyle;rounded=0;orthogonalLoop=1;jettySize=auto;html=1;startArrow=ERmandOne;startFill=0;endArrow=ERzeroToMany;endFill=0;exitX=0;exitY=0.5;exitDx=0;exitDy=0;entryX=1;entryY=0.5;entryDx=0;entryDy=0;strokeColor=#474747;fontColor=#0A0A0D;strokeWidth=2;fontSize=13;jumpSize=6;endSize=8;startSize=8;" parent="1" source="Z1BsBpzhcpCgyARzmuZx-172" target="s5G9YJPdSNpEqPbHZ_q9-67" edge="1">
          <mxGeometry relative="1" as="geometry">
            <Array as="points">
              <mxPoint x="480" y="125" />
              <mxPoint x="480" y="395" />
            </Array>
            <mxPoint x="-410" y="530" as="targetPoint" />
          </mxGeometry>
        </mxCell>
        <mxCell id="dbsTAfBsprb9ZXSNt7f_-25" style="edgeStyle=orthogonalEdgeStyle;rounded=0;orthogonalLoop=1;jettySize=auto;html=1;entryX=0;entryY=0.5;entryDx=0;entryDy=0;startArrow=ERmandOne;startFill=0;endArrow=ERzeroToMany;endFill=0;exitX=1.005;exitY=0.09;exitDx=0;exitDy=0;exitPerimeter=0;strokeColor=#474747;fontColor=#0A0A0D;strokeWidth=2;fontSize=13;jumpSize=6;endSize=8;startSize=8;" parent="1" source="Z1BsBpzhcpCgyARzmuZx-171" target="Z1BsBpzhcpCgyARzmuZx-165" edge="1">
          <mxGeometry relative="1" as="geometry">
            <Array as="points">
              <mxPoint x="940" y="85" />
              <mxPoint x="940" y="925" />
            </Array>
          </mxGeometry>
        </mxCell>
        <mxCell id="Z1BsBpzhcpCgyARzmuZx-171" value="Отделение банка" style="shape=table;startSize=45;container=1;collapsible=1;childLayout=tableLayout;fixedRows=1;rowLines=0;fontStyle=1;align=center;resizeLast=1;fontSize=13;fillColor=#B2C9AB;strokeColor=#474747;fontColor=#0A0A0D;strokeWidth=2;" parent="1" vertex="1">
          <mxGeometry x="640" y="65" width="160" height="225" as="geometry" />
        </mxCell>
        <mxCell id="Z1BsBpzhcpCgyARzmuZx-172" value="" style="shape=tableRow;horizontal=0;startSize=0;swimlaneHead=0;swimlaneBody=0;fillColor=none;collapsible=0;dropTarget=0;points=[[0,0.5],[1,0.5]];portConstraint=eastwest;top=0;left=0;right=0;bottom=1;fontSize=13;strokeColor=#474747;fontColor=#0A0A0D;strokeWidth=2;" parent="Z1BsBpzhcpCgyARzmuZx-171" vertex="1">
          <mxGeometry y="45" width="160" height="30" as="geometry" />
        </mxCell>
        <mxCell id="Z1BsBpzhcpCgyARzmuZx-173" value="PK" style="shape=partialRectangle;connectable=0;fillColor=none;top=0;left=0;bottom=0;right=0;fontStyle=1;overflow=hidden;fontSize=13;strokeColor=#474747;fontColor=#0A0A0D;strokeWidth=2;" parent="Z1BsBpzhcpCgyARzmuZx-172" vertex="1">
          <mxGeometry width="30" height="30" as="geometry">
            <mxRectangle width="30" height="30" as="alternateBounds" />
          </mxGeometry>
        </mxCell>
        <mxCell id="Z1BsBpzhcpCgyARzmuZx-174" value="ID" style="shape=partialRectangle;connectable=0;fillColor=none;top=0;left=0;bottom=0;right=0;align=left;spacingLeft=6;fontStyle=5;overflow=hidden;fontSize=13;strokeColor=#474747;fontColor=#0A0A0D;strokeWidth=2;" parent="Z1BsBpzhcpCgyARzmuZx-172" vertex="1">
          <mxGeometry x="30" width="130" height="30" as="geometry">
            <mxRectangle width="130" height="30" as="alternateBounds" />
          </mxGeometry>
        </mxCell>
        <mxCell id="Z1BsBpzhcpCgyARzmuZx-217" value="" style="shape=tableRow;horizontal=0;startSize=0;swimlaneHead=0;swimlaneBody=0;fillColor=none;collapsible=0;dropTarget=0;points=[[0,0.5],[1,0.5]];portConstraint=eastwest;top=0;left=0;right=0;bottom=0;fontSize=13;strokeColor=#474747;fontColor=#0A0A0D;strokeWidth=2;" parent="Z1BsBpzhcpCgyARzmuZx-171" vertex="1">
          <mxGeometry y="75" width="160" height="30" as="geometry" />
        </mxCell>
        <mxCell id="Z1BsBpzhcpCgyARzmuZx-218" value="" style="shape=partialRectangle;connectable=0;fillColor=none;top=0;left=0;bottom=0;right=0;editable=1;overflow=hidden;fontSize=13;strokeColor=#474747;fontColor=#0A0A0D;strokeWidth=2;" parent="Z1BsBpzhcpCgyARzmuZx-217" vertex="1">
          <mxGeometry width="30" height="30" as="geometry">
            <mxRectangle width="30" height="30" as="alternateBounds" />
          </mxGeometry>
        </mxCell>
        <mxCell id="Z1BsBpzhcpCgyARzmuZx-219" value="Наименование" style="shape=partialRectangle;connectable=0;fillColor=none;top=0;left=0;bottom=0;right=0;align=left;spacingLeft=6;overflow=hidden;fontSize=13;strokeColor=#474747;fontColor=#0A0A0D;strokeWidth=2;" parent="Z1BsBpzhcpCgyARzmuZx-217" vertex="1">
          <mxGeometry x="30" width="130" height="30" as="geometry">
            <mxRectangle width="130" height="30" as="alternateBounds" />
          </mxGeometry>
        </mxCell>
        <mxCell id="Z1BsBpzhcpCgyARzmuZx-175" value="" style="shape=tableRow;horizontal=0;startSize=0;swimlaneHead=0;swimlaneBody=0;fillColor=none;collapsible=0;dropTarget=0;points=[[0,0.5],[1,0.5]];portConstraint=eastwest;top=0;left=0;right=0;bottom=0;fontSize=13;strokeColor=#474747;fontColor=#0A0A0D;strokeWidth=2;" parent="Z1BsBpzhcpCgyARzmuZx-171" vertex="1">
          <mxGeometry y="105" width="160" height="30" as="geometry" />
        </mxCell>
        <mxCell id="Z1BsBpzhcpCgyARzmuZx-176" value="" style="shape=partialRectangle;connectable=0;fillColor=none;top=0;left=0;bottom=0;right=0;editable=1;overflow=hidden;fontSize=13;strokeColor=#474747;fontColor=#0A0A0D;strokeWidth=2;" parent="Z1BsBpzhcpCgyARzmuZx-175" vertex="1">
          <mxGeometry width="30" height="30" as="geometry">
            <mxRectangle width="30" height="30" as="alternateBounds" />
          </mxGeometry>
        </mxCell>
        <mxCell id="Z1BsBpzhcpCgyARzmuZx-177" value="Банк" style="shape=partialRectangle;connectable=0;fillColor=none;top=0;left=0;bottom=0;right=0;align=left;spacingLeft=6;overflow=hidden;fontSize=13;strokeColor=#474747;fontColor=#0A0A0D;strokeWidth=2;" parent="Z1BsBpzhcpCgyARzmuZx-175" vertex="1">
          <mxGeometry x="30" width="130" height="30" as="geometry">
            <mxRectangle width="130" height="30" as="alternateBounds" />
          </mxGeometry>
        </mxCell>
        <mxCell id="Z1BsBpzhcpCgyARzmuZx-178" value="" style="shape=tableRow;horizontal=0;startSize=0;swimlaneHead=0;swimlaneBody=0;fillColor=none;collapsible=0;dropTarget=0;points=[[0,0.5],[1,0.5]];portConstraint=eastwest;top=0;left=0;right=0;bottom=0;fontSize=13;strokeColor=#474747;fontColor=#0A0A0D;strokeWidth=2;" parent="Z1BsBpzhcpCgyARzmuZx-171" vertex="1">
          <mxGeometry y="135" width="160" height="30" as="geometry" />
        </mxCell>
        <mxCell id="Z1BsBpzhcpCgyARzmuZx-179" value="FK" style="shape=partialRectangle;connectable=0;fillColor=none;top=0;left=0;bottom=0;right=0;editable=1;overflow=hidden;fontSize=13;strokeColor=#474747;fontColor=#0A0A0D;strokeWidth=2;" parent="Z1BsBpzhcpCgyARzmuZx-178" vertex="1">
          <mxGeometry width="30" height="30" as="geometry">
            <mxRectangle width="30" height="30" as="alternateBounds" />
          </mxGeometry>
        </mxCell>
        <mxCell id="Z1BsBpzhcpCgyARzmuZx-180" value="Адрес" style="shape=partialRectangle;connectable=0;fillColor=none;top=0;left=0;bottom=0;right=0;align=left;spacingLeft=6;overflow=hidden;fontSize=13;strokeColor=#474747;fontColor=#0A0A0D;strokeWidth=2;" parent="Z1BsBpzhcpCgyARzmuZx-178" vertex="1">
          <mxGeometry x="30" width="130" height="30" as="geometry">
            <mxRectangle width="130" height="30" as="alternateBounds" />
          </mxGeometry>
        </mxCell>
        <mxCell id="Z1BsBpzhcpCgyARzmuZx-181" value="" style="shape=tableRow;horizontal=0;startSize=0;swimlaneHead=0;swimlaneBody=0;fillColor=none;collapsible=0;dropTarget=0;points=[[0,0.5],[1,0.5]];portConstraint=eastwest;top=0;left=0;right=0;bottom=0;fontSize=13;strokeColor=#474747;fontColor=#0A0A0D;strokeWidth=2;" parent="Z1BsBpzhcpCgyARzmuZx-171" vertex="1">
          <mxGeometry y="165" width="160" height="30" as="geometry" />
        </mxCell>
        <mxCell id="Z1BsBpzhcpCgyARzmuZx-182" value="" style="shape=partialRectangle;connectable=0;fillColor=none;top=0;left=0;bottom=0;right=0;editable=1;overflow=hidden;fontSize=13;strokeColor=#474747;fontColor=#0A0A0D;strokeWidth=2;" parent="Z1BsBpzhcpCgyARzmuZx-181" vertex="1">
          <mxGeometry width="30" height="30" as="geometry">
            <mxRectangle width="30" height="30" as="alternateBounds" />
          </mxGeometry>
        </mxCell>
        <mxCell id="Z1BsBpzhcpCgyARzmuZx-183" value="Телефон" style="shape=partialRectangle;connectable=0;fillColor=none;top=0;left=0;bottom=0;right=0;align=left;spacingLeft=6;overflow=hidden;fontSize=13;strokeColor=#474747;fontColor=#0A0A0D;strokeWidth=2;" parent="Z1BsBpzhcpCgyARzmuZx-181" vertex="1">
          <mxGeometry x="30" width="130" height="30" as="geometry">
            <mxRectangle width="130" height="30" as="alternateBounds" />
          </mxGeometry>
        </mxCell>
        <mxCell id="Z1BsBpzhcpCgyARzmuZx-187" value="" style="shape=tableRow;horizontal=0;startSize=0;swimlaneHead=0;swimlaneBody=0;fillColor=none;collapsible=0;dropTarget=0;points=[[0,0.5],[1,0.5]];portConstraint=eastwest;top=0;left=0;right=0;bottom=0;fontSize=13;strokeColor=#474747;fontColor=#0A0A0D;strokeWidth=2;" parent="Z1BsBpzhcpCgyARzmuZx-171" vertex="1">
          <mxGeometry y="195" width="160" height="30" as="geometry" />
        </mxCell>
        <mxCell id="Z1BsBpzhcpCgyARzmuZx-188" value="" style="shape=partialRectangle;connectable=0;fillColor=none;top=0;left=0;bottom=0;right=0;editable=1;overflow=hidden;fontSize=13;strokeColor=#474747;fontColor=#0A0A0D;strokeWidth=2;" parent="Z1BsBpzhcpCgyARzmuZx-187" vertex="1">
          <mxGeometry width="30" height="30" as="geometry">
            <mxRectangle width="30" height="30" as="alternateBounds" />
          </mxGeometry>
        </mxCell>
        <mxCell id="Z1BsBpzhcpCgyARzmuZx-189" value="Руководитель" style="shape=partialRectangle;connectable=0;fillColor=none;top=0;left=0;bottom=0;right=0;align=left;spacingLeft=6;overflow=hidden;fontSize=13;strokeColor=#474747;fontColor=#0A0A0D;strokeWidth=2;" parent="Z1BsBpzhcpCgyARzmuZx-187" vertex="1">
          <mxGeometry x="30" width="130" height="30" as="geometry">
            <mxRectangle width="130" height="30" as="alternateBounds" />
          </mxGeometry>
        </mxCell>
        <mxCell id="Z1BsBpzhcpCgyARzmuZx-190" value="Банк" style="shape=table;startSize=30;container=1;collapsible=1;childLayout=tableLayout;fixedRows=1;rowLines=0;fontStyle=1;align=center;resizeLast=1;fontSize=13;fillColor=#B2C9AB;strokeColor=#474747;fontColor=#0A0A0D;strokeWidth=2;" parent="1" vertex="1">
          <mxGeometry x="1080" y="20" width="160" height="270" as="geometry" />
        </mxCell>
        <mxCell id="Z1BsBpzhcpCgyARzmuZx-191" value="" style="shape=tableRow;horizontal=0;startSize=0;swimlaneHead=0;swimlaneBody=0;fillColor=none;collapsible=0;dropTarget=0;points=[[0,0.5],[1,0.5]];portConstraint=eastwest;top=0;left=0;right=0;bottom=1;fontSize=13;strokeColor=#474747;fontColor=#0A0A0D;strokeWidth=2;" parent="Z1BsBpzhcpCgyARzmuZx-190" vertex="1">
          <mxGeometry y="30" width="160" height="30" as="geometry" />
        </mxCell>
        <mxCell id="Z1BsBpzhcpCgyARzmuZx-192" value="PK" style="shape=partialRectangle;connectable=0;fillColor=none;top=0;left=0;bottom=0;right=0;fontStyle=1;overflow=hidden;fontSize=13;strokeColor=#474747;fontColor=#0A0A0D;strokeWidth=2;" parent="Z1BsBpzhcpCgyARzmuZx-191" vertex="1">
          <mxGeometry width="30" height="30" as="geometry">
            <mxRectangle width="30" height="30" as="alternateBounds" />
          </mxGeometry>
        </mxCell>
        <mxCell id="Z1BsBpzhcpCgyARzmuZx-193" value="ID" style="shape=partialRectangle;connectable=0;fillColor=none;top=0;left=0;bottom=0;right=0;align=left;spacingLeft=6;fontStyle=5;overflow=hidden;fontSize=13;strokeColor=#474747;fontColor=#0A0A0D;strokeWidth=2;" parent="Z1BsBpzhcpCgyARzmuZx-191" vertex="1">
          <mxGeometry x="30" width="130" height="30" as="geometry">
            <mxRectangle width="130" height="30" as="alternateBounds" />
          </mxGeometry>
        </mxCell>
        <mxCell id="Z1BsBpzhcpCgyARzmuZx-194" value="" style="shape=tableRow;horizontal=0;startSize=0;swimlaneHead=0;swimlaneBody=0;fillColor=none;collapsible=0;dropTarget=0;points=[[0,0.5],[1,0.5]];portConstraint=eastwest;top=0;left=0;right=0;bottom=0;fontSize=13;strokeColor=#474747;fontColor=#0A0A0D;strokeWidth=2;" parent="Z1BsBpzhcpCgyARzmuZx-190" vertex="1">
          <mxGeometry y="60" width="160" height="30" as="geometry" />
        </mxCell>
        <mxCell id="Z1BsBpzhcpCgyARzmuZx-195" value="" style="shape=partialRectangle;connectable=0;fillColor=none;top=0;left=0;bottom=0;right=0;editable=1;overflow=hidden;fontSize=13;strokeColor=#474747;fontColor=#0A0A0D;strokeWidth=2;" parent="Z1BsBpzhcpCgyARzmuZx-194" vertex="1">
          <mxGeometry width="30" height="30" as="geometry">
            <mxRectangle width="30" height="30" as="alternateBounds" />
          </mxGeometry>
        </mxCell>
        <mxCell id="Z1BsBpzhcpCgyARzmuZx-196" value="Наименование" style="shape=partialRectangle;connectable=0;fillColor=none;top=0;left=0;bottom=0;right=0;align=left;spacingLeft=6;overflow=hidden;fontSize=13;strokeColor=#474747;fontColor=#0A0A0D;strokeWidth=2;" parent="Z1BsBpzhcpCgyARzmuZx-194" vertex="1">
          <mxGeometry x="30" width="130" height="30" as="geometry">
            <mxRectangle width="130" height="30" as="alternateBounds" />
          </mxGeometry>
        </mxCell>
        <mxCell id="Z1BsBpzhcpCgyARzmuZx-197" value="" style="shape=tableRow;horizontal=0;startSize=0;swimlaneHead=0;swimlaneBody=0;fillColor=none;collapsible=0;dropTarget=0;points=[[0,0.5],[1,0.5]];portConstraint=eastwest;top=0;left=0;right=0;bottom=0;fontSize=13;strokeColor=#474747;fontColor=#0A0A0D;strokeWidth=2;" parent="Z1BsBpzhcpCgyARzmuZx-190" vertex="1">
          <mxGeometry y="90" width="160" height="30" as="geometry" />
        </mxCell>
        <mxCell id="Z1BsBpzhcpCgyARzmuZx-198" value="" style="shape=partialRectangle;connectable=0;fillColor=none;top=0;left=0;bottom=0;right=0;editable=1;overflow=hidden;fontSize=13;strokeColor=#474747;fontColor=#0A0A0D;strokeWidth=2;" parent="Z1BsBpzhcpCgyARzmuZx-197" vertex="1">
          <mxGeometry width="30" height="30" as="geometry">
            <mxRectangle width="30" height="30" as="alternateBounds" />
          </mxGeometry>
        </mxCell>
        <mxCell id="Z1BsBpzhcpCgyARzmuZx-199" value="БИК" style="shape=partialRectangle;connectable=0;fillColor=none;top=0;left=0;bottom=0;right=0;align=left;spacingLeft=6;overflow=hidden;fontSize=13;strokeColor=#474747;fontColor=#0A0A0D;strokeWidth=2;" parent="Z1BsBpzhcpCgyARzmuZx-197" vertex="1">
          <mxGeometry x="30" width="130" height="30" as="geometry">
            <mxRectangle width="130" height="30" as="alternateBounds" />
          </mxGeometry>
        </mxCell>
        <mxCell id="Z1BsBpzhcpCgyARzmuZx-200" value="" style="shape=tableRow;horizontal=0;startSize=0;swimlaneHead=0;swimlaneBody=0;fillColor=none;collapsible=0;dropTarget=0;points=[[0,0.5],[1,0.5]];portConstraint=eastwest;top=0;left=0;right=0;bottom=0;fontSize=13;strokeColor=#474747;fontColor=#0A0A0D;strokeWidth=2;" parent="Z1BsBpzhcpCgyARzmuZx-190" vertex="1">
          <mxGeometry y="120" width="160" height="30" as="geometry" />
        </mxCell>
        <mxCell id="Z1BsBpzhcpCgyARzmuZx-201" value="" style="shape=partialRectangle;connectable=0;fillColor=none;top=0;left=0;bottom=0;right=0;editable=1;overflow=hidden;fontSize=13;strokeColor=#474747;fontColor=#0A0A0D;strokeWidth=2;" parent="Z1BsBpzhcpCgyARzmuZx-200" vertex="1">
          <mxGeometry width="30" height="30" as="geometry">
            <mxRectangle width="30" height="30" as="alternateBounds" />
          </mxGeometry>
        </mxCell>
        <mxCell id="Z1BsBpzhcpCgyARzmuZx-202" value="К.Счет" style="shape=partialRectangle;connectable=0;fillColor=none;top=0;left=0;bottom=0;right=0;align=left;spacingLeft=6;overflow=hidden;fontSize=13;strokeColor=#474747;fontColor=#0A0A0D;strokeWidth=2;" parent="Z1BsBpzhcpCgyARzmuZx-200" vertex="1">
          <mxGeometry x="30" width="130" height="30" as="geometry">
            <mxRectangle width="130" height="30" as="alternateBounds" />
          </mxGeometry>
        </mxCell>
        <mxCell id="Z1BsBpzhcpCgyARzmuZx-206" value="" style="shape=tableRow;horizontal=0;startSize=0;swimlaneHead=0;swimlaneBody=0;fillColor=none;collapsible=0;dropTarget=0;points=[[0,0.5],[1,0.5]];portConstraint=eastwest;top=0;left=0;right=0;bottom=0;fontSize=13;strokeColor=#474747;fontColor=#0A0A0D;strokeWidth=2;" parent="Z1BsBpzhcpCgyARzmuZx-190" vertex="1">
          <mxGeometry y="150" width="160" height="30" as="geometry" />
        </mxCell>
        <mxCell id="Z1BsBpzhcpCgyARzmuZx-207" value="" style="shape=partialRectangle;connectable=0;fillColor=none;top=0;left=0;bottom=0;right=0;editable=1;overflow=hidden;fontSize=13;strokeColor=#474747;fontColor=#0A0A0D;strokeWidth=2;" parent="Z1BsBpzhcpCgyARzmuZx-206" vertex="1">
          <mxGeometry width="30" height="30" as="geometry">
            <mxRectangle width="30" height="30" as="alternateBounds" />
          </mxGeometry>
        </mxCell>
        <mxCell id="Z1BsBpzhcpCgyARzmuZx-208" value="Телефон" style="shape=partialRectangle;connectable=0;fillColor=none;top=0;left=0;bottom=0;right=0;align=left;spacingLeft=6;overflow=hidden;fontSize=13;fontStyle=0;strokeColor=#474747;fontColor=#0A0A0D;strokeWidth=2;" parent="Z1BsBpzhcpCgyARzmuZx-206" vertex="1">
          <mxGeometry x="30" width="130" height="30" as="geometry">
            <mxRectangle width="130" height="30" as="alternateBounds" />
          </mxGeometry>
        </mxCell>
        <mxCell id="Z1BsBpzhcpCgyARzmuZx-209" value="" style="shape=tableRow;horizontal=0;startSize=0;swimlaneHead=0;swimlaneBody=0;fillColor=none;collapsible=0;dropTarget=0;points=[[0,0.5],[1,0.5]];portConstraint=eastwest;top=0;left=0;right=0;bottom=0;fontSize=13;strokeColor=#474747;fontColor=#0A0A0D;strokeWidth=2;" parent="Z1BsBpzhcpCgyARzmuZx-190" vertex="1">
          <mxGeometry y="180" width="160" height="30" as="geometry" />
        </mxCell>
        <mxCell id="Z1BsBpzhcpCgyARzmuZx-210" value="" style="shape=partialRectangle;connectable=0;fillColor=none;top=0;left=0;bottom=0;right=0;editable=1;overflow=hidden;fontSize=13;strokeColor=#474747;fontColor=#0A0A0D;strokeWidth=2;" parent="Z1BsBpzhcpCgyARzmuZx-209" vertex="1">
          <mxGeometry width="30" height="30" as="geometry">
            <mxRectangle width="30" height="30" as="alternateBounds" />
          </mxGeometry>
        </mxCell>
        <mxCell id="Z1BsBpzhcpCgyARzmuZx-211" value="Сайт" style="shape=partialRectangle;connectable=0;fillColor=none;top=0;left=0;bottom=0;right=0;align=left;spacingLeft=6;overflow=hidden;fontSize=13;fontStyle=0;strokeColor=#474747;fontColor=#0A0A0D;strokeWidth=2;" parent="Z1BsBpzhcpCgyARzmuZx-209" vertex="1">
          <mxGeometry x="30" width="130" height="30" as="geometry">
            <mxRectangle width="130" height="30" as="alternateBounds" />
          </mxGeometry>
        </mxCell>
        <mxCell id="Z1BsBpzhcpCgyARzmuZx-203" value="" style="shape=tableRow;horizontal=0;startSize=0;swimlaneHead=0;swimlaneBody=0;fillColor=none;collapsible=0;dropTarget=0;points=[[0,0.5],[1,0.5]];portConstraint=eastwest;top=0;left=0;right=0;bottom=0;fontSize=13;strokeColor=#474747;fontColor=#0A0A0D;strokeWidth=2;" parent="Z1BsBpzhcpCgyARzmuZx-190" vertex="1">
          <mxGeometry y="210" width="160" height="30" as="geometry" />
        </mxCell>
        <mxCell id="Z1BsBpzhcpCgyARzmuZx-204" value="FK" style="shape=partialRectangle;connectable=0;fillColor=none;top=0;left=0;bottom=0;right=0;editable=1;overflow=hidden;fontSize=13;strokeColor=#474747;fontColor=#0A0A0D;strokeWidth=2;" parent="Z1BsBpzhcpCgyARzmuZx-203" vertex="1">
          <mxGeometry width="30" height="30" as="geometry">
            <mxRectangle width="30" height="30" as="alternateBounds" />
          </mxGeometry>
        </mxCell>
        <mxCell id="Z1BsBpzhcpCgyARzmuZx-205" value="Адрес" style="shape=partialRectangle;connectable=0;fillColor=none;top=0;left=0;bottom=0;right=0;align=left;spacingLeft=6;overflow=hidden;fontSize=13;strokeColor=#474747;fontColor=#0A0A0D;strokeWidth=2;" parent="Z1BsBpzhcpCgyARzmuZx-203" vertex="1">
          <mxGeometry x="30" width="130" height="30" as="geometry">
            <mxRectangle width="130" height="30" as="alternateBounds" />
          </mxGeometry>
        </mxCell>
        <mxCell id="Z1BsBpzhcpCgyARzmuZx-212" value="" style="shape=tableRow;horizontal=0;startSize=0;swimlaneHead=0;swimlaneBody=0;fillColor=none;collapsible=0;dropTarget=0;points=[[0,0.5],[1,0.5]];portConstraint=eastwest;top=0;left=0;right=0;bottom=0;fontSize=13;strokeColor=#474747;fontColor=#0A0A0D;strokeWidth=2;" parent="Z1BsBpzhcpCgyARzmuZx-190" vertex="1">
          <mxGeometry y="240" width="160" height="30" as="geometry" />
        </mxCell>
        <mxCell id="Z1BsBpzhcpCgyARzmuZx-213" value="" style="shape=partialRectangle;connectable=0;fillColor=none;top=0;left=0;bottom=0;right=0;editable=1;overflow=hidden;fontSize=13;strokeColor=#474747;fontColor=#0A0A0D;strokeWidth=2;" parent="Z1BsBpzhcpCgyARzmuZx-212" vertex="1">
          <mxGeometry width="30" height="30" as="geometry">
            <mxRectangle width="30" height="30" as="alternateBounds" />
          </mxGeometry>
        </mxCell>
        <mxCell id="Z1BsBpzhcpCgyARzmuZx-214" value="Руководитель" style="shape=partialRectangle;connectable=0;fillColor=none;top=0;left=0;bottom=0;right=0;align=left;spacingLeft=6;overflow=hidden;fontSize=13;fontStyle=0;strokeColor=#474747;fontColor=#0A0A0D;strokeWidth=2;" parent="Z1BsBpzhcpCgyARzmuZx-212" vertex="1">
          <mxGeometry x="30" width="130" height="30" as="geometry">
            <mxRectangle width="130" height="30" as="alternateBounds" />
          </mxGeometry>
        </mxCell>
        <mxCell id="Z1BsBpzhcpCgyARzmuZx-238" value="Кредитные продукты" style="shape=table;startSize=30;container=1;collapsible=1;childLayout=tableLayout;fixedRows=1;rowLines=0;fontStyle=1;align=center;resizeLast=1;fontSize=13;fillColor=#B2C9AB;strokeColor=#474747;fontColor=#0A0A0D;strokeWidth=2;" parent="1" vertex="1">
          <mxGeometry x="1080" y="350" width="180" height="270" as="geometry" />
        </mxCell>
        <mxCell id="Z1BsBpzhcpCgyARzmuZx-239" value="" style="shape=tableRow;horizontal=0;startSize=0;swimlaneHead=0;swimlaneBody=0;fillColor=none;collapsible=0;dropTarget=0;points=[[0,0.5],[1,0.5]];portConstraint=eastwest;top=0;left=0;right=0;bottom=1;fontSize=13;strokeColor=#474747;fontColor=#0A0A0D;strokeWidth=2;" parent="Z1BsBpzhcpCgyARzmuZx-238" vertex="1">
          <mxGeometry y="30" width="180" height="30" as="geometry" />
        </mxCell>
        <mxCell id="Z1BsBpzhcpCgyARzmuZx-240" value="PK" style="shape=partialRectangle;connectable=0;fillColor=none;top=0;left=0;bottom=0;right=0;fontStyle=1;overflow=hidden;fontSize=13;strokeColor=#474747;fontColor=#0A0A0D;strokeWidth=2;" parent="Z1BsBpzhcpCgyARzmuZx-239" vertex="1">
          <mxGeometry width="30" height="30" as="geometry">
            <mxRectangle width="30" height="30" as="alternateBounds" />
          </mxGeometry>
        </mxCell>
        <mxCell id="Z1BsBpzhcpCgyARzmuZx-241" value="ID" style="shape=partialRectangle;connectable=0;fillColor=none;top=0;left=0;bottom=0;right=0;align=left;spacingLeft=6;fontStyle=5;overflow=hidden;fontSize=13;strokeColor=#474747;fontColor=#0A0A0D;strokeWidth=2;" parent="Z1BsBpzhcpCgyARzmuZx-239" vertex="1">
          <mxGeometry x="30" width="150" height="30" as="geometry">
            <mxRectangle width="150" height="30" as="alternateBounds" />
          </mxGeometry>
        </mxCell>
        <mxCell id="Z1BsBpzhcpCgyARzmuZx-242" value="" style="shape=tableRow;horizontal=0;startSize=0;swimlaneHead=0;swimlaneBody=0;fillColor=none;collapsible=0;dropTarget=0;points=[[0,0.5],[1,0.5]];portConstraint=eastwest;top=0;left=0;right=0;bottom=0;fontSize=13;strokeColor=#474747;fontColor=#0A0A0D;strokeWidth=2;" parent="Z1BsBpzhcpCgyARzmuZx-238" vertex="1">
          <mxGeometry y="60" width="180" height="30" as="geometry" />
        </mxCell>
        <mxCell id="Z1BsBpzhcpCgyARzmuZx-243" value="" style="shape=partialRectangle;connectable=0;fillColor=none;top=0;left=0;bottom=0;right=0;editable=1;overflow=hidden;fontSize=13;strokeColor=#474747;fontColor=#0A0A0D;strokeWidth=2;" parent="Z1BsBpzhcpCgyARzmuZx-242" vertex="1">
          <mxGeometry width="30" height="30" as="geometry">
            <mxRectangle width="30" height="30" as="alternateBounds" />
          </mxGeometry>
        </mxCell>
        <mxCell id="Z1BsBpzhcpCgyARzmuZx-244" value="Наименование" style="shape=partialRectangle;connectable=0;fillColor=none;top=0;left=0;bottom=0;right=0;align=left;spacingLeft=6;overflow=hidden;fontSize=13;strokeColor=#474747;fontColor=#0A0A0D;strokeWidth=2;" parent="Z1BsBpzhcpCgyARzmuZx-242" vertex="1">
          <mxGeometry x="30" width="150" height="30" as="geometry">
            <mxRectangle width="150" height="30" as="alternateBounds" />
          </mxGeometry>
        </mxCell>
        <mxCell id="Z1BsBpzhcpCgyARzmuZx-245" value="" style="shape=tableRow;horizontal=0;startSize=0;swimlaneHead=0;swimlaneBody=0;fillColor=none;collapsible=0;dropTarget=0;points=[[0,0.5],[1,0.5]];portConstraint=eastwest;top=0;left=0;right=0;bottom=0;fontSize=13;strokeColor=#474747;fontColor=#0A0A0D;strokeWidth=2;" parent="Z1BsBpzhcpCgyARzmuZx-238" vertex="1">
          <mxGeometry y="90" width="180" height="30" as="geometry" />
        </mxCell>
        <mxCell id="Z1BsBpzhcpCgyARzmuZx-246" value="" style="shape=partialRectangle;connectable=0;fillColor=none;top=0;left=0;bottom=0;right=0;editable=1;overflow=hidden;fontSize=13;strokeColor=#474747;fontColor=#0A0A0D;strokeWidth=2;" parent="Z1BsBpzhcpCgyARzmuZx-245" vertex="1">
          <mxGeometry width="30" height="30" as="geometry">
            <mxRectangle width="30" height="30" as="alternateBounds" />
          </mxGeometry>
        </mxCell>
        <mxCell id="Z1BsBpzhcpCgyARzmuZx-247" value="Срок от до в мес." style="shape=partialRectangle;connectable=0;fillColor=none;top=0;left=0;bottom=0;right=0;align=left;spacingLeft=6;overflow=hidden;fontSize=13;strokeColor=#474747;fontColor=#0A0A0D;strokeWidth=2;" parent="Z1BsBpzhcpCgyARzmuZx-245" vertex="1">
          <mxGeometry x="30" width="150" height="30" as="geometry">
            <mxRectangle width="150" height="30" as="alternateBounds" />
          </mxGeometry>
        </mxCell>
        <mxCell id="Z1BsBpzhcpCgyARzmuZx-248" value="" style="shape=tableRow;horizontal=0;startSize=0;swimlaneHead=0;swimlaneBody=0;fillColor=none;collapsible=0;dropTarget=0;points=[[0,0.5],[1,0.5]];portConstraint=eastwest;top=0;left=0;right=0;bottom=0;fontSize=13;strokeColor=#474747;fontColor=#0A0A0D;strokeWidth=2;" parent="Z1BsBpzhcpCgyARzmuZx-238" vertex="1">
          <mxGeometry y="120" width="180" height="30" as="geometry" />
        </mxCell>
        <mxCell id="Z1BsBpzhcpCgyARzmuZx-249" value="" style="shape=partialRectangle;connectable=0;fillColor=none;top=0;left=0;bottom=0;right=0;editable=1;overflow=hidden;fontSize=13;strokeColor=#474747;fontColor=#0A0A0D;strokeWidth=2;" parent="Z1BsBpzhcpCgyARzmuZx-248" vertex="1">
          <mxGeometry width="30" height="30" as="geometry">
            <mxRectangle width="30" height="30" as="alternateBounds" />
          </mxGeometry>
        </mxCell>
        <mxCell id="Z1BsBpzhcpCgyARzmuZx-250" value="Ставка от до в %" style="shape=partialRectangle;connectable=0;fillColor=none;top=0;left=0;bottom=0;right=0;align=left;spacingLeft=6;overflow=hidden;fontSize=13;strokeColor=#474747;fontColor=#0A0A0D;strokeWidth=2;" parent="Z1BsBpzhcpCgyARzmuZx-248" vertex="1">
          <mxGeometry x="30" width="150" height="30" as="geometry">
            <mxRectangle width="150" height="30" as="alternateBounds" />
          </mxGeometry>
        </mxCell>
        <mxCell id="Z1BsBpzhcpCgyARzmuZx-251" value="" style="shape=tableRow;horizontal=0;startSize=0;swimlaneHead=0;swimlaneBody=0;fillColor=none;collapsible=0;dropTarget=0;points=[[0,0.5],[1,0.5]];portConstraint=eastwest;top=0;left=0;right=0;bottom=0;fontSize=13;strokeColor=#474747;fontColor=#0A0A0D;strokeWidth=2;" parent="Z1BsBpzhcpCgyARzmuZx-238" vertex="1">
          <mxGeometry y="150" width="180" height="30" as="geometry" />
        </mxCell>
        <mxCell id="Z1BsBpzhcpCgyARzmuZx-252" value="" style="shape=partialRectangle;connectable=0;fillColor=none;top=0;left=0;bottom=0;right=0;editable=1;overflow=hidden;fontSize=13;strokeColor=#474747;fontColor=#0A0A0D;strokeWidth=2;" parent="Z1BsBpzhcpCgyARzmuZx-251" vertex="1">
          <mxGeometry width="30" height="30" as="geometry">
            <mxRectangle width="30" height="30" as="alternateBounds" />
          </mxGeometry>
        </mxCell>
        <mxCell id="Z1BsBpzhcpCgyARzmuZx-253" value="Возраст клиента от до  лет" style="shape=partialRectangle;connectable=0;fillColor=none;top=0;left=0;bottom=0;right=0;align=left;spacingLeft=6;overflow=hidden;fontSize=13;strokeColor=#474747;fontColor=#0A0A0D;strokeWidth=2;" parent="Z1BsBpzhcpCgyARzmuZx-251" vertex="1">
          <mxGeometry x="30" width="150" height="30" as="geometry">
            <mxRectangle width="150" height="30" as="alternateBounds" />
          </mxGeometry>
        </mxCell>
        <mxCell id="Z1BsBpzhcpCgyARzmuZx-254" value="" style="shape=tableRow;horizontal=0;startSize=0;swimlaneHead=0;swimlaneBody=0;fillColor=none;collapsible=0;dropTarget=0;points=[[0,0.5],[1,0.5]];portConstraint=eastwest;top=0;left=0;right=0;bottom=0;fontSize=13;strokeColor=#474747;fontColor=#0A0A0D;strokeWidth=2;" parent="Z1BsBpzhcpCgyARzmuZx-238" vertex="1">
          <mxGeometry y="180" width="180" height="30" as="geometry" />
        </mxCell>
        <mxCell id="Z1BsBpzhcpCgyARzmuZx-255" value="" style="shape=partialRectangle;connectable=0;fillColor=none;top=0;left=0;bottom=0;right=0;editable=1;overflow=hidden;fontSize=13;strokeColor=#474747;fontColor=#0A0A0D;strokeWidth=2;" parent="Z1BsBpzhcpCgyARzmuZx-254" vertex="1">
          <mxGeometry width="30" height="30" as="geometry">
            <mxRectangle width="30" height="30" as="alternateBounds" />
          </mxGeometry>
        </mxCell>
        <mxCell id="Z1BsBpzhcpCgyARzmuZx-256" value="Цель кредита" style="shape=partialRectangle;connectable=0;fillColor=none;top=0;left=0;bottom=0;right=0;align=left;spacingLeft=6;overflow=hidden;fontSize=13;strokeColor=#474747;fontColor=#0A0A0D;strokeWidth=2;" parent="Z1BsBpzhcpCgyARzmuZx-254" vertex="1">
          <mxGeometry x="30" width="150" height="30" as="geometry">
            <mxRectangle width="150" height="30" as="alternateBounds" />
          </mxGeometry>
        </mxCell>
        <mxCell id="Z1BsBpzhcpCgyARzmuZx-257" value="" style="shape=tableRow;horizontal=0;startSize=0;swimlaneHead=0;swimlaneBody=0;fillColor=none;collapsible=0;dropTarget=0;points=[[0,0.5],[1,0.5]];portConstraint=eastwest;top=0;left=0;right=0;bottom=0;fontSize=13;strokeColor=#474747;fontColor=#0A0A0D;strokeWidth=2;" parent="Z1BsBpzhcpCgyARzmuZx-238" vertex="1">
          <mxGeometry y="210" width="180" height="30" as="geometry" />
        </mxCell>
        <mxCell id="Z1BsBpzhcpCgyARzmuZx-258" value="" style="shape=partialRectangle;connectable=0;fillColor=none;top=0;left=0;bottom=0;right=0;editable=1;overflow=hidden;fontSize=13;strokeColor=#474747;fontColor=#0A0A0D;strokeWidth=2;" parent="Z1BsBpzhcpCgyARzmuZx-257" vertex="1">
          <mxGeometry width="30" height="30" as="geometry">
            <mxRectangle width="30" height="30" as="alternateBounds" />
          </mxGeometry>
        </mxCell>
        <mxCell id="Z1BsBpzhcpCgyARzmuZx-259" value="Наличие залога" style="shape=partialRectangle;connectable=0;fillColor=none;top=0;left=0;bottom=0;right=0;align=left;spacingLeft=6;overflow=hidden;fontSize=13;strokeColor=#474747;fontColor=#0A0A0D;strokeWidth=2;" parent="Z1BsBpzhcpCgyARzmuZx-257" vertex="1">
          <mxGeometry x="30" width="150" height="30" as="geometry">
            <mxRectangle width="150" height="30" as="alternateBounds" />
          </mxGeometry>
        </mxCell>
        <mxCell id="Z1BsBpzhcpCgyARzmuZx-260" value="" style="shape=tableRow;horizontal=0;startSize=0;swimlaneHead=0;swimlaneBody=0;fillColor=none;collapsible=0;dropTarget=0;points=[[0,0.5],[1,0.5]];portConstraint=eastwest;top=0;left=0;right=0;bottom=0;fontSize=13;strokeColor=#474747;fontColor=#0A0A0D;strokeWidth=2;" parent="Z1BsBpzhcpCgyARzmuZx-238" vertex="1">
          <mxGeometry y="240" width="180" height="30" as="geometry" />
        </mxCell>
        <mxCell id="Z1BsBpzhcpCgyARzmuZx-261" value="" style="shape=partialRectangle;connectable=0;fillColor=none;top=0;left=0;bottom=0;right=0;editable=1;overflow=hidden;fontSize=13;strokeColor=#474747;fontColor=#0A0A0D;strokeWidth=2;" parent="Z1BsBpzhcpCgyARzmuZx-260" vertex="1">
          <mxGeometry width="30" height="30" as="geometry">
            <mxRectangle width="30" height="30" as="alternateBounds" />
          </mxGeometry>
        </mxCell>
        <mxCell id="Z1BsBpzhcpCgyARzmuZx-262" value="Сумма от до тыс.руб." style="shape=partialRectangle;connectable=0;fillColor=none;top=0;left=0;bottom=0;right=0;align=left;spacingLeft=6;overflow=hidden;fontSize=13;strokeColor=#474747;fontColor=#0A0A0D;strokeWidth=2;" parent="Z1BsBpzhcpCgyARzmuZx-260" vertex="1">
          <mxGeometry x="30" width="150" height="30" as="geometry">
            <mxRectangle width="150" height="30" as="alternateBounds" />
          </mxGeometry>
        </mxCell>
        <mxCell id="Z1BsBpzhcpCgyARzmuZx-264" value="Адрес" style="shape=table;startSize=30;container=1;collapsible=1;childLayout=tableLayout;fixedRows=1;rowLines=0;fontStyle=1;align=center;resizeLast=1;fontSize=13;fillColor=#B2C9AB;strokeColor=#474747;fontColor=#0A0A0D;strokeWidth=2;" parent="1" vertex="1">
          <mxGeometry x="600" y="-100" width="180" height="120" as="geometry" />
        </mxCell>
        <mxCell id="s5G9YJPdSNpEqPbHZ_q9-62" style="edgeStyle=orthogonalEdgeStyle;rounded=0;orthogonalLoop=1;jettySize=auto;html=1;entryX=1;entryY=0.5;entryDx=0;entryDy=0;startArrow=ERzeroToMany;startFill=0;endArrow=ERmandOne;endFill=0;exitX=1;exitY=0.5;exitDx=0;exitDy=0;strokeColor=#474747;fontColor=#0A0A0D;strokeWidth=2;fontSize=13;endSize=8;startSize=8;" edge="1" parent="Z1BsBpzhcpCgyARzmuZx-264" source="Z1BsBpzhcpCgyARzmuZx-265" target="dbsTAfBsprb9ZXSNt7f_-4">
          <mxGeometry relative="1" as="geometry" />
        </mxCell>
        <mxCell id="Z1BsBpzhcpCgyARzmuZx-265" value="" style="shape=tableRow;horizontal=0;startSize=0;swimlaneHead=0;swimlaneBody=0;fillColor=none;collapsible=0;dropTarget=0;points=[[0,0.5],[1,0.5]];portConstraint=eastwest;top=0;left=0;right=0;bottom=1;fontSize=13;strokeColor=#474747;fontColor=#0A0A0D;strokeWidth=2;" parent="Z1BsBpzhcpCgyARzmuZx-264" vertex="1">
          <mxGeometry y="30" width="180" height="30" as="geometry" />
        </mxCell>
        <mxCell id="Z1BsBpzhcpCgyARzmuZx-266" value="PK" style="shape=partialRectangle;connectable=0;fillColor=none;top=0;left=0;bottom=0;right=0;fontStyle=1;overflow=hidden;fontSize=13;strokeColor=#474747;fontColor=#0A0A0D;strokeWidth=2;" parent="Z1BsBpzhcpCgyARzmuZx-265" vertex="1">
          <mxGeometry width="30" height="30" as="geometry">
            <mxRectangle width="30" height="30" as="alternateBounds" />
          </mxGeometry>
        </mxCell>
        <mxCell id="Z1BsBpzhcpCgyARzmuZx-267" value="ID" style="shape=partialRectangle;connectable=0;fillColor=none;top=0;left=0;bottom=0;right=0;align=left;spacingLeft=6;fontStyle=5;overflow=hidden;fontSize=13;strokeColor=#474747;fontColor=#0A0A0D;strokeWidth=2;" parent="Z1BsBpzhcpCgyARzmuZx-265" vertex="1">
          <mxGeometry x="30" width="150" height="30" as="geometry">
            <mxRectangle width="150" height="30" as="alternateBounds" />
          </mxGeometry>
        </mxCell>
        <mxCell id="dbsTAfBsprb9ZXSNt7f_-1" value="" style="shape=tableRow;horizontal=0;startSize=0;swimlaneHead=0;swimlaneBody=0;fillColor=none;collapsible=0;dropTarget=0;points=[[0,0.5],[1,0.5]];portConstraint=eastwest;top=0;left=0;right=0;bottom=0;fontSize=13;strokeColor=#474747;fontColor=#0A0A0D;strokeWidth=2;" parent="Z1BsBpzhcpCgyARzmuZx-264" vertex="1">
          <mxGeometry y="60" width="180" height="30" as="geometry" />
        </mxCell>
        <mxCell id="dbsTAfBsprb9ZXSNt7f_-2" value="" style="shape=partialRectangle;connectable=0;fillColor=none;top=0;left=0;bottom=0;right=0;editable=1;overflow=hidden;fontSize=13;strokeColor=#474747;fontColor=#0A0A0D;strokeWidth=2;" parent="dbsTAfBsprb9ZXSNt7f_-1" vertex="1">
          <mxGeometry width="30" height="30" as="geometry">
            <mxRectangle width="30" height="30" as="alternateBounds" />
          </mxGeometry>
        </mxCell>
        <mxCell id="dbsTAfBsprb9ZXSNt7f_-3" value="Наименование" style="shape=partialRectangle;connectable=0;fillColor=none;top=0;left=0;bottom=0;right=0;align=left;spacingLeft=6;overflow=hidden;fontSize=13;strokeColor=#474747;fontColor=#0A0A0D;strokeWidth=2;" parent="dbsTAfBsprb9ZXSNt7f_-1" vertex="1">
          <mxGeometry x="30" width="150" height="30" as="geometry">
            <mxRectangle width="150" height="30" as="alternateBounds" />
          </mxGeometry>
        </mxCell>
        <mxCell id="dbsTAfBsprb9ZXSNt7f_-4" value="" style="shape=tableRow;horizontal=0;startSize=0;swimlaneHead=0;swimlaneBody=0;fillColor=none;collapsible=0;dropTarget=0;points=[[0,0.5],[1,0.5]];portConstraint=eastwest;top=0;left=0;right=0;bottom=0;fontSize=13;strokeColor=#474747;fontColor=#0A0A0D;strokeWidth=2;" parent="Z1BsBpzhcpCgyARzmuZx-264" vertex="1">
          <mxGeometry y="90" width="180" height="30" as="geometry" />
        </mxCell>
        <mxCell id="dbsTAfBsprb9ZXSNt7f_-5" value="" style="shape=partialRectangle;connectable=0;fillColor=none;top=0;left=0;bottom=0;right=0;editable=1;overflow=hidden;fontSize=13;strokeColor=#474747;fontColor=#0A0A0D;strokeWidth=2;" parent="dbsTAfBsprb9ZXSNt7f_-4" vertex="1">
          <mxGeometry width="30" height="30" as="geometry">
            <mxRectangle width="30" height="30" as="alternateBounds" />
          </mxGeometry>
        </mxCell>
        <mxCell id="dbsTAfBsprb9ZXSNt7f_-6" value="id_отношения" style="shape=partialRectangle;connectable=0;fillColor=none;top=0;left=0;bottom=0;right=0;align=left;spacingLeft=6;overflow=hidden;fontSize=13;strokeColor=#474747;fontColor=#0A0A0D;strokeWidth=2;" parent="dbsTAfBsprb9ZXSNt7f_-4" vertex="1">
          <mxGeometry x="30" width="150" height="30" as="geometry">
            <mxRectangle width="150" height="30" as="alternateBounds" />
          </mxGeometry>
        </mxCell>
        <mxCell id="Z1BsBpzhcpCgyARzmuZx-300" value="Заявка" style="shape=table;startSize=30;container=1;collapsible=1;childLayout=tableLayout;fixedRows=1;rowLines=0;fontStyle=1;align=center;resizeLast=1;fontSize=13;fillColor=#B2C9AB;strokeColor=#474747;fontColor=#0A0A0D;strokeWidth=2;" parent="1" vertex="1">
          <mxGeometry x="620" y="380" width="180" height="300" as="geometry" />
        </mxCell>
        <mxCell id="Z1BsBpzhcpCgyARzmuZx-301" value="" style="shape=tableRow;horizontal=0;startSize=0;swimlaneHead=0;swimlaneBody=0;fillColor=none;collapsible=0;dropTarget=0;points=[[0,0.5],[1,0.5]];portConstraint=eastwest;top=0;left=0;right=0;bottom=1;fontSize=13;strokeColor=#474747;fontColor=#0A0A0D;strokeWidth=2;" parent="Z1BsBpzhcpCgyARzmuZx-300" vertex="1">
          <mxGeometry y="30" width="180" height="30" as="geometry" />
        </mxCell>
        <mxCell id="Z1BsBpzhcpCgyARzmuZx-302" value="PK" style="shape=partialRectangle;connectable=0;fillColor=none;top=0;left=0;bottom=0;right=0;fontStyle=1;overflow=hidden;fontSize=13;strokeColor=#474747;fontColor=#0A0A0D;strokeWidth=2;" parent="Z1BsBpzhcpCgyARzmuZx-301" vertex="1">
          <mxGeometry width="30" height="30" as="geometry">
            <mxRectangle width="30" height="30" as="alternateBounds" />
          </mxGeometry>
        </mxCell>
        <mxCell id="Z1BsBpzhcpCgyARzmuZx-303" value="ID" style="shape=partialRectangle;connectable=0;fillColor=none;top=0;left=0;bottom=0;right=0;align=left;spacingLeft=6;fontStyle=5;overflow=hidden;fontSize=13;strokeColor=#474747;fontColor=#0A0A0D;strokeWidth=2;" parent="Z1BsBpzhcpCgyARzmuZx-301" vertex="1">
          <mxGeometry x="30" width="150" height="30" as="geometry">
            <mxRectangle width="150" height="30" as="alternateBounds" />
          </mxGeometry>
        </mxCell>
        <mxCell id="Z1BsBpzhcpCgyARzmuZx-304" value="" style="shape=tableRow;horizontal=0;startSize=0;swimlaneHead=0;swimlaneBody=0;fillColor=none;collapsible=0;dropTarget=0;points=[[0,0.5],[1,0.5]];portConstraint=eastwest;top=0;left=0;right=0;bottom=0;fontSize=13;strokeColor=#474747;fontColor=#0A0A0D;strokeWidth=2;" parent="Z1BsBpzhcpCgyARzmuZx-300" vertex="1">
          <mxGeometry y="60" width="180" height="30" as="geometry" />
        </mxCell>
        <mxCell id="Z1BsBpzhcpCgyARzmuZx-305" value="" style="shape=partialRectangle;connectable=0;fillColor=none;top=0;left=0;bottom=0;right=0;editable=1;overflow=hidden;fontSize=13;strokeColor=#474747;fontColor=#0A0A0D;strokeWidth=2;" parent="Z1BsBpzhcpCgyARzmuZx-304" vertex="1">
          <mxGeometry width="30" height="30" as="geometry">
            <mxRectangle width="30" height="30" as="alternateBounds" />
          </mxGeometry>
        </mxCell>
        <mxCell id="Z1BsBpzhcpCgyARzmuZx-306" value="Карта клиента" style="shape=partialRectangle;connectable=0;fillColor=none;top=0;left=0;bottom=0;right=0;align=left;spacingLeft=6;overflow=hidden;fontSize=13;strokeColor=#474747;fontColor=#0A0A0D;strokeWidth=2;" parent="Z1BsBpzhcpCgyARzmuZx-304" vertex="1">
          <mxGeometry x="30" width="150" height="30" as="geometry">
            <mxRectangle width="150" height="30" as="alternateBounds" />
          </mxGeometry>
        </mxCell>
        <mxCell id="Z1BsBpzhcpCgyARzmuZx-310" value="" style="shape=tableRow;horizontal=0;startSize=0;swimlaneHead=0;swimlaneBody=0;fillColor=none;collapsible=0;dropTarget=0;points=[[0,0.5],[1,0.5]];portConstraint=eastwest;top=0;left=0;right=0;bottom=0;fontSize=13;strokeColor=#474747;fontColor=#0A0A0D;strokeWidth=2;" parent="Z1BsBpzhcpCgyARzmuZx-300" vertex="1">
          <mxGeometry y="90" width="180" height="30" as="geometry" />
        </mxCell>
        <mxCell id="Z1BsBpzhcpCgyARzmuZx-311" value="" style="shape=partialRectangle;connectable=0;fillColor=none;top=0;left=0;bottom=0;right=0;editable=1;overflow=hidden;fontSize=13;strokeColor=#474747;fontColor=#0A0A0D;strokeWidth=2;" parent="Z1BsBpzhcpCgyARzmuZx-310" vertex="1">
          <mxGeometry width="30" height="30" as="geometry">
            <mxRectangle width="30" height="30" as="alternateBounds" />
          </mxGeometry>
        </mxCell>
        <mxCell id="Z1BsBpzhcpCgyARzmuZx-312" value="Кредитный продукт" style="shape=partialRectangle;connectable=0;fillColor=none;top=0;left=0;bottom=0;right=0;align=left;spacingLeft=6;overflow=hidden;fontSize=13;strokeColor=#474747;fontColor=#0A0A0D;strokeWidth=2;" parent="Z1BsBpzhcpCgyARzmuZx-310" vertex="1">
          <mxGeometry x="30" width="150" height="30" as="geometry">
            <mxRectangle width="150" height="30" as="alternateBounds" />
          </mxGeometry>
        </mxCell>
        <mxCell id="Z1BsBpzhcpCgyARzmuZx-307" value="" style="shape=tableRow;horizontal=0;startSize=0;swimlaneHead=0;swimlaneBody=0;fillColor=none;collapsible=0;dropTarget=0;points=[[0,0.5],[1,0.5]];portConstraint=eastwest;top=0;left=0;right=0;bottom=0;fontSize=13;strokeColor=#474747;fontColor=#0A0A0D;strokeWidth=2;" parent="Z1BsBpzhcpCgyARzmuZx-300" vertex="1">
          <mxGeometry y="120" width="180" height="30" as="geometry" />
        </mxCell>
        <mxCell id="Z1BsBpzhcpCgyARzmuZx-308" value="" style="shape=partialRectangle;connectable=0;fillColor=none;top=0;left=0;bottom=0;right=0;editable=1;overflow=hidden;fontSize=13;strokeColor=#474747;fontColor=#0A0A0D;strokeWidth=2;" parent="Z1BsBpzhcpCgyARzmuZx-307" vertex="1">
          <mxGeometry width="30" height="30" as="geometry">
            <mxRectangle width="30" height="30" as="alternateBounds" />
          </mxGeometry>
        </mxCell>
        <mxCell id="Z1BsBpzhcpCgyARzmuZx-309" value="Сотрудник  офор. заявку" style="shape=partialRectangle;connectable=0;fillColor=none;top=0;left=0;bottom=0;right=0;align=left;spacingLeft=6;overflow=hidden;fontSize=13;strokeColor=#474747;fontColor=#0A0A0D;strokeWidth=2;" parent="Z1BsBpzhcpCgyARzmuZx-307" vertex="1">
          <mxGeometry x="30" width="150" height="30" as="geometry">
            <mxRectangle width="150" height="30" as="alternateBounds" />
          </mxGeometry>
        </mxCell>
        <mxCell id="Z1BsBpzhcpCgyARzmuZx-313" value="" style="shape=tableRow;horizontal=0;startSize=0;swimlaneHead=0;swimlaneBody=0;fillColor=none;collapsible=0;dropTarget=0;points=[[0,0.5],[1,0.5]];portConstraint=eastwest;top=0;left=0;right=0;bottom=0;fontSize=13;strokeColor=#474747;fontColor=#0A0A0D;strokeWidth=2;" parent="Z1BsBpzhcpCgyARzmuZx-300" vertex="1">
          <mxGeometry y="150" width="180" height="30" as="geometry" />
        </mxCell>
        <mxCell id="Z1BsBpzhcpCgyARzmuZx-314" value="" style="shape=partialRectangle;connectable=0;fillColor=none;top=0;left=0;bottom=0;right=0;editable=1;overflow=hidden;fontSize=13;strokeColor=#474747;fontColor=#0A0A0D;strokeWidth=2;" parent="Z1BsBpzhcpCgyARzmuZx-313" vertex="1">
          <mxGeometry width="30" height="30" as="geometry">
            <mxRectangle width="30" height="30" as="alternateBounds" />
          </mxGeometry>
        </mxCell>
        <mxCell id="Z1BsBpzhcpCgyARzmuZx-315" value="Сумма по заявке" style="shape=partialRectangle;connectable=0;fillColor=none;top=0;left=0;bottom=0;right=0;align=left;spacingLeft=6;overflow=hidden;fontSize=13;strokeColor=#474747;fontColor=#0A0A0D;strokeWidth=2;" parent="Z1BsBpzhcpCgyARzmuZx-313" vertex="1">
          <mxGeometry x="30" width="150" height="30" as="geometry">
            <mxRectangle width="150" height="30" as="alternateBounds" />
          </mxGeometry>
        </mxCell>
        <mxCell id="Z1BsBpzhcpCgyARzmuZx-316" value="" style="shape=tableRow;horizontal=0;startSize=0;swimlaneHead=0;swimlaneBody=0;fillColor=none;collapsible=0;dropTarget=0;points=[[0,0.5],[1,0.5]];portConstraint=eastwest;top=0;left=0;right=0;bottom=0;fontSize=13;strokeColor=#474747;fontColor=#0A0A0D;strokeWidth=2;" parent="Z1BsBpzhcpCgyARzmuZx-300" vertex="1">
          <mxGeometry y="180" width="180" height="30" as="geometry" />
        </mxCell>
        <mxCell id="Z1BsBpzhcpCgyARzmuZx-317" value="" style="shape=partialRectangle;connectable=0;fillColor=none;top=0;left=0;bottom=0;right=0;editable=1;overflow=hidden;fontSize=13;strokeColor=#474747;fontColor=#0A0A0D;strokeWidth=2;" parent="Z1BsBpzhcpCgyARzmuZx-316" vertex="1">
          <mxGeometry width="30" height="30" as="geometry">
            <mxRectangle width="30" height="30" as="alternateBounds" />
          </mxGeometry>
        </mxCell>
        <mxCell id="Z1BsBpzhcpCgyARzmuZx-318" value="Срок  по заявке" style="shape=partialRectangle;connectable=0;fillColor=none;top=0;left=0;bottom=0;right=0;align=left;spacingLeft=6;overflow=hidden;fontSize=13;strokeColor=#474747;fontColor=#0A0A0D;strokeWidth=2;" parent="Z1BsBpzhcpCgyARzmuZx-316" vertex="1">
          <mxGeometry x="30" width="150" height="30" as="geometry">
            <mxRectangle width="150" height="30" as="alternateBounds" />
          </mxGeometry>
        </mxCell>
        <mxCell id="Z1BsBpzhcpCgyARzmuZx-319" value="" style="shape=tableRow;horizontal=0;startSize=0;swimlaneHead=0;swimlaneBody=0;fillColor=none;collapsible=0;dropTarget=0;points=[[0,0.5],[1,0.5]];portConstraint=eastwest;top=0;left=0;right=0;bottom=0;fontSize=13;strokeColor=#474747;fontColor=#0A0A0D;strokeWidth=2;" parent="Z1BsBpzhcpCgyARzmuZx-300" vertex="1">
          <mxGeometry y="210" width="180" height="30" as="geometry" />
        </mxCell>
        <mxCell id="Z1BsBpzhcpCgyARzmuZx-320" value="" style="shape=partialRectangle;connectable=0;fillColor=none;top=0;left=0;bottom=0;right=0;editable=1;overflow=hidden;fontSize=13;strokeColor=#474747;fontColor=#0A0A0D;strokeWidth=2;" parent="Z1BsBpzhcpCgyARzmuZx-319" vertex="1">
          <mxGeometry width="30" height="30" as="geometry">
            <mxRectangle width="30" height="30" as="alternateBounds" />
          </mxGeometry>
        </mxCell>
        <mxCell id="Z1BsBpzhcpCgyARzmuZx-321" value="Залог" style="shape=partialRectangle;connectable=0;fillColor=none;top=0;left=0;bottom=0;right=0;align=left;spacingLeft=6;overflow=hidden;fontSize=13;strokeColor=#474747;fontColor=#0A0A0D;strokeWidth=2;" parent="Z1BsBpzhcpCgyARzmuZx-319" vertex="1">
          <mxGeometry x="30" width="150" height="30" as="geometry">
            <mxRectangle width="150" height="30" as="alternateBounds" />
          </mxGeometry>
        </mxCell>
        <mxCell id="Z1BsBpzhcpCgyARzmuZx-366" value="" style="shape=tableRow;horizontal=0;startSize=0;swimlaneHead=0;swimlaneBody=0;fillColor=none;collapsible=0;dropTarget=0;points=[[0,0.5],[1,0.5]];portConstraint=eastwest;top=0;left=0;right=0;bottom=0;fontSize=13;strokeColor=#474747;fontColor=#0A0A0D;strokeWidth=2;" parent="Z1BsBpzhcpCgyARzmuZx-300" vertex="1">
          <mxGeometry y="240" width="180" height="30" as="geometry" />
        </mxCell>
        <mxCell id="Z1BsBpzhcpCgyARzmuZx-367" value="" style="shape=partialRectangle;connectable=0;fillColor=none;top=0;left=0;bottom=0;right=0;editable=1;overflow=hidden;fontSize=13;strokeColor=#474747;fontColor=#0A0A0D;strokeWidth=2;" parent="Z1BsBpzhcpCgyARzmuZx-366" vertex="1">
          <mxGeometry width="30" height="30" as="geometry">
            <mxRectangle width="30" height="30" as="alternateBounds" />
          </mxGeometry>
        </mxCell>
        <mxCell id="Z1BsBpzhcpCgyARzmuZx-368" value="Цель" style="shape=partialRectangle;connectable=0;fillColor=none;top=0;left=0;bottom=0;right=0;align=left;spacingLeft=6;overflow=hidden;fontSize=13;strokeColor=#474747;fontColor=#0A0A0D;strokeWidth=2;" parent="Z1BsBpzhcpCgyARzmuZx-366" vertex="1">
          <mxGeometry x="30" width="150" height="30" as="geometry">
            <mxRectangle width="150" height="30" as="alternateBounds" />
          </mxGeometry>
        </mxCell>
        <mxCell id="Z1BsBpzhcpCgyARzmuZx-369" value="" style="shape=tableRow;horizontal=0;startSize=0;swimlaneHead=0;swimlaneBody=0;fillColor=none;collapsible=0;dropTarget=0;points=[[0,0.5],[1,0.5]];portConstraint=eastwest;top=0;left=0;right=0;bottom=0;fontSize=13;strokeColor=#474747;fontColor=#0A0A0D;strokeWidth=2;" parent="Z1BsBpzhcpCgyARzmuZx-300" vertex="1">
          <mxGeometry y="270" width="180" height="30" as="geometry" />
        </mxCell>
        <mxCell id="Z1BsBpzhcpCgyARzmuZx-370" value="" style="shape=partialRectangle;connectable=0;fillColor=none;top=0;left=0;bottom=0;right=0;editable=1;overflow=hidden;fontSize=13;strokeColor=#474747;fontColor=#0A0A0D;strokeWidth=2;" parent="Z1BsBpzhcpCgyARzmuZx-369" vertex="1">
          <mxGeometry width="30" height="30" as="geometry">
            <mxRectangle width="30" height="30" as="alternateBounds" />
          </mxGeometry>
        </mxCell>
        <mxCell id="Z1BsBpzhcpCgyARzmuZx-371" value="Банк" style="shape=partialRectangle;connectable=0;fillColor=none;top=0;left=0;bottom=0;right=0;align=left;spacingLeft=6;overflow=hidden;fontSize=13;strokeColor=#474747;fontColor=#0A0A0D;strokeWidth=2;" parent="Z1BsBpzhcpCgyARzmuZx-369" vertex="1">
          <mxGeometry x="30" width="150" height="30" as="geometry">
            <mxRectangle width="150" height="30" as="alternateBounds" />
          </mxGeometry>
        </mxCell>
        <mxCell id="Z1BsBpzhcpCgyARzmuZx-406" value="График" style="shape=table;startSize=30;container=1;collapsible=1;childLayout=tableLayout;fixedRows=1;rowLines=0;fontStyle=1;align=center;resizeLast=1;fontSize=13;fillColor=#B2C9AB;strokeColor=#474747;fontColor=#0A0A0D;strokeWidth=2;" parent="1" vertex="1">
          <mxGeometry x="230" y="410" width="220" height="330" as="geometry" />
        </mxCell>
        <mxCell id="Z1BsBpzhcpCgyARzmuZx-407" value="" style="shape=tableRow;horizontal=0;startSize=0;swimlaneHead=0;swimlaneBody=0;fillColor=none;collapsible=0;dropTarget=0;points=[[0,0.5],[1,0.5]];portConstraint=eastwest;top=0;left=0;right=0;bottom=1;fontSize=13;strokeColor=#474747;fontColor=#0A0A0D;strokeWidth=2;" parent="Z1BsBpzhcpCgyARzmuZx-406" vertex="1">
          <mxGeometry y="30" width="220" height="30" as="geometry" />
        </mxCell>
        <mxCell id="Z1BsBpzhcpCgyARzmuZx-408" value="PK FK" style="shape=partialRectangle;connectable=0;fillColor=none;top=0;left=0;bottom=0;right=0;fontStyle=1;overflow=hidden;fontSize=13;strokeColor=#474747;fontColor=#0A0A0D;strokeWidth=2;" parent="Z1BsBpzhcpCgyARzmuZx-407" vertex="1">
          <mxGeometry width="50" height="30" as="geometry">
            <mxRectangle width="50" height="30" as="alternateBounds" />
          </mxGeometry>
        </mxCell>
        <mxCell id="Z1BsBpzhcpCgyARzmuZx-409" value="ID" style="shape=partialRectangle;connectable=0;fillColor=none;top=0;left=0;bottom=0;right=0;align=left;spacingLeft=6;fontStyle=5;overflow=hidden;fontSize=13;strokeColor=#474747;fontColor=#0A0A0D;strokeWidth=2;" parent="Z1BsBpzhcpCgyARzmuZx-407" vertex="1">
          <mxGeometry x="50" width="170" height="30" as="geometry">
            <mxRectangle width="170" height="30" as="alternateBounds" />
          </mxGeometry>
        </mxCell>
        <mxCell id="Z1BsBpzhcpCgyARzmuZx-410" value="" style="shape=tableRow;horizontal=0;startSize=0;swimlaneHead=0;swimlaneBody=0;fillColor=none;collapsible=0;dropTarget=0;points=[[0,0.5],[1,0.5]];portConstraint=eastwest;top=0;left=0;right=0;bottom=0;fontSize=13;strokeColor=#474747;fontColor=#0A0A0D;strokeWidth=2;" parent="Z1BsBpzhcpCgyARzmuZx-406" vertex="1">
          <mxGeometry y="60" width="220" height="30" as="geometry" />
        </mxCell>
        <mxCell id="Z1BsBpzhcpCgyARzmuZx-411" value="" style="shape=partialRectangle;connectable=0;fillColor=none;top=0;left=0;bottom=0;right=0;editable=1;overflow=hidden;fontSize=13;strokeColor=#474747;fontColor=#0A0A0D;strokeWidth=2;" parent="Z1BsBpzhcpCgyARzmuZx-410" vertex="1">
          <mxGeometry width="50" height="30" as="geometry">
            <mxRectangle width="50" height="30" as="alternateBounds" />
          </mxGeometry>
        </mxCell>
        <mxCell id="Z1BsBpzhcpCgyARzmuZx-412" value="Дата начала" style="shape=partialRectangle;connectable=0;fillColor=none;top=0;left=0;bottom=0;right=0;align=left;spacingLeft=6;overflow=hidden;fontSize=13;strokeColor=#474747;fontColor=#0A0A0D;strokeWidth=2;" parent="Z1BsBpzhcpCgyARzmuZx-410" vertex="1">
          <mxGeometry x="50" width="170" height="30" as="geometry">
            <mxRectangle width="170" height="30" as="alternateBounds" />
          </mxGeometry>
        </mxCell>
        <mxCell id="Z1BsBpzhcpCgyARzmuZx-413" value="" style="shape=tableRow;horizontal=0;startSize=0;swimlaneHead=0;swimlaneBody=0;fillColor=none;collapsible=0;dropTarget=0;points=[[0,0.5],[1,0.5]];portConstraint=eastwest;top=0;left=0;right=0;bottom=0;fontSize=13;strokeColor=#474747;fontColor=#0A0A0D;strokeWidth=2;" parent="Z1BsBpzhcpCgyARzmuZx-406" vertex="1">
          <mxGeometry y="90" width="220" height="30" as="geometry" />
        </mxCell>
        <mxCell id="Z1BsBpzhcpCgyARzmuZx-414" value="" style="shape=partialRectangle;connectable=0;fillColor=none;top=0;left=0;bottom=0;right=0;editable=1;overflow=hidden;fontSize=13;strokeColor=#474747;fontColor=#0A0A0D;strokeWidth=2;" parent="Z1BsBpzhcpCgyARzmuZx-413" vertex="1">
          <mxGeometry width="50" height="30" as="geometry">
            <mxRectangle width="50" height="30" as="alternateBounds" />
          </mxGeometry>
        </mxCell>
        <mxCell id="Z1BsBpzhcpCgyARzmuZx-415" value="Дата окончания" style="shape=partialRectangle;connectable=0;fillColor=none;top=0;left=0;bottom=0;right=0;align=left;spacingLeft=6;overflow=hidden;fontSize=13;strokeColor=#474747;fontColor=#0A0A0D;strokeWidth=2;" parent="Z1BsBpzhcpCgyARzmuZx-413" vertex="1">
          <mxGeometry x="50" width="170" height="30" as="geometry">
            <mxRectangle width="170" height="30" as="alternateBounds" />
          </mxGeometry>
        </mxCell>
        <mxCell id="Z1BsBpzhcpCgyARzmuZx-416" value="" style="shape=tableRow;horizontal=0;startSize=0;swimlaneHead=0;swimlaneBody=0;fillColor=none;collapsible=0;dropTarget=0;points=[[0,0.5],[1,0.5]];portConstraint=eastwest;top=0;left=0;right=0;bottom=0;fontSize=13;strokeColor=#474747;fontColor=#0A0A0D;strokeWidth=2;" parent="Z1BsBpzhcpCgyARzmuZx-406" vertex="1">
          <mxGeometry y="120" width="220" height="30" as="geometry" />
        </mxCell>
        <mxCell id="Z1BsBpzhcpCgyARzmuZx-417" value="" style="shape=partialRectangle;connectable=0;fillColor=none;top=0;left=0;bottom=0;right=0;editable=1;overflow=hidden;fontSize=13;strokeColor=#474747;fontColor=#0A0A0D;strokeWidth=2;" parent="Z1BsBpzhcpCgyARzmuZx-416" vertex="1">
          <mxGeometry width="50" height="30" as="geometry">
            <mxRectangle width="50" height="30" as="alternateBounds" />
          </mxGeometry>
        </mxCell>
        <mxCell id="Z1BsBpzhcpCgyARzmuZx-418" value="Еж.платеж" style="shape=partialRectangle;connectable=0;fillColor=none;top=0;left=0;bottom=0;right=0;align=left;spacingLeft=6;overflow=hidden;fontSize=13;strokeColor=#474747;fontColor=#0A0A0D;strokeWidth=2;" parent="Z1BsBpzhcpCgyARzmuZx-416" vertex="1">
          <mxGeometry x="50" width="170" height="30" as="geometry">
            <mxRectangle width="170" height="30" as="alternateBounds" />
          </mxGeometry>
        </mxCell>
        <mxCell id="Z1BsBpzhcpCgyARzmuZx-419" value="" style="shape=tableRow;horizontal=0;startSize=0;swimlaneHead=0;swimlaneBody=0;fillColor=none;collapsible=0;dropTarget=0;points=[[0,0.5],[1,0.5]];portConstraint=eastwest;top=0;left=0;right=0;bottom=0;fontSize=13;strokeColor=#474747;fontColor=#0A0A0D;strokeWidth=2;" parent="Z1BsBpzhcpCgyARzmuZx-406" vertex="1">
          <mxGeometry y="150" width="220" height="30" as="geometry" />
        </mxCell>
        <mxCell id="Z1BsBpzhcpCgyARzmuZx-420" value="" style="shape=partialRectangle;connectable=0;fillColor=none;top=0;left=0;bottom=0;right=0;editable=1;overflow=hidden;fontSize=13;strokeColor=#474747;fontColor=#0A0A0D;strokeWidth=2;" parent="Z1BsBpzhcpCgyARzmuZx-419" vertex="1">
          <mxGeometry width="50" height="30" as="geometry">
            <mxRectangle width="50" height="30" as="alternateBounds" />
          </mxGeometry>
        </mxCell>
        <mxCell id="Z1BsBpzhcpCgyARzmuZx-421" value="%ставка" style="shape=partialRectangle;connectable=0;fillColor=none;top=0;left=0;bottom=0;right=0;align=left;spacingLeft=6;overflow=hidden;fontSize=13;strokeColor=#474747;fontColor=#0A0A0D;strokeWidth=2;" parent="Z1BsBpzhcpCgyARzmuZx-419" vertex="1">
          <mxGeometry x="50" width="170" height="30" as="geometry">
            <mxRectangle width="170" height="30" as="alternateBounds" />
          </mxGeometry>
        </mxCell>
        <mxCell id="Z1BsBpzhcpCgyARzmuZx-422" value="" style="shape=tableRow;horizontal=0;startSize=0;swimlaneHead=0;swimlaneBody=0;fillColor=none;collapsible=0;dropTarget=0;points=[[0,0.5],[1,0.5]];portConstraint=eastwest;top=0;left=0;right=0;bottom=0;fontSize=13;strokeColor=#474747;fontColor=#0A0A0D;strokeWidth=2;" parent="Z1BsBpzhcpCgyARzmuZx-406" vertex="1">
          <mxGeometry y="180" width="220" height="30" as="geometry" />
        </mxCell>
        <mxCell id="Z1BsBpzhcpCgyARzmuZx-423" value="" style="shape=partialRectangle;connectable=0;fillColor=none;top=0;left=0;bottom=0;right=0;editable=1;overflow=hidden;fontSize=13;strokeColor=#474747;fontColor=#0A0A0D;strokeWidth=2;" parent="Z1BsBpzhcpCgyARzmuZx-422" vertex="1">
          <mxGeometry width="50" height="30" as="geometry">
            <mxRectangle width="50" height="30" as="alternateBounds" />
          </mxGeometry>
        </mxCell>
        <mxCell id="Z1BsBpzhcpCgyARzmuZx-424" value="Остаток основного долга" style="shape=partialRectangle;connectable=0;fillColor=none;top=0;left=0;bottom=0;right=0;align=left;spacingLeft=6;overflow=hidden;fontSize=13;strokeColor=#474747;fontColor=#0A0A0D;strokeWidth=2;" parent="Z1BsBpzhcpCgyARzmuZx-422" vertex="1">
          <mxGeometry x="50" width="170" height="30" as="geometry">
            <mxRectangle width="170" height="30" as="alternateBounds" />
          </mxGeometry>
        </mxCell>
        <mxCell id="Z1BsBpzhcpCgyARzmuZx-425" value="" style="shape=tableRow;horizontal=0;startSize=0;swimlaneHead=0;swimlaneBody=0;fillColor=none;collapsible=0;dropTarget=0;points=[[0,0.5],[1,0.5]];portConstraint=eastwest;top=0;left=0;right=0;bottom=0;fontSize=13;strokeColor=#474747;fontColor=#0A0A0D;strokeWidth=2;" parent="Z1BsBpzhcpCgyARzmuZx-406" vertex="1">
          <mxGeometry y="210" width="220" height="30" as="geometry" />
        </mxCell>
        <mxCell id="Z1BsBpzhcpCgyARzmuZx-426" value="" style="shape=partialRectangle;connectable=0;fillColor=none;top=0;left=0;bottom=0;right=0;editable=1;overflow=hidden;fontSize=13;strokeColor=#474747;fontColor=#0A0A0D;strokeWidth=2;" parent="Z1BsBpzhcpCgyARzmuZx-425" vertex="1">
          <mxGeometry width="50" height="30" as="geometry">
            <mxRectangle width="50" height="30" as="alternateBounds" />
          </mxGeometry>
        </mxCell>
        <mxCell id="Z1BsBpzhcpCgyARzmuZx-427" value="Счет списания" style="shape=partialRectangle;connectable=0;fillColor=none;top=0;left=0;bottom=0;right=0;align=left;spacingLeft=6;overflow=hidden;fontSize=13;strokeColor=#474747;fontColor=#0A0A0D;strokeWidth=2;" parent="Z1BsBpzhcpCgyARzmuZx-425" vertex="1">
          <mxGeometry x="50" width="170" height="30" as="geometry">
            <mxRectangle width="170" height="30" as="alternateBounds" />
          </mxGeometry>
        </mxCell>
        <mxCell id="Z1BsBpzhcpCgyARzmuZx-472" value="" style="shape=tableRow;horizontal=0;startSize=0;swimlaneHead=0;swimlaneBody=0;fillColor=none;collapsible=0;dropTarget=0;points=[[0,0.5],[1,0.5]];portConstraint=eastwest;top=0;left=0;right=0;bottom=0;fontSize=13;strokeColor=#474747;fontColor=#0A0A0D;strokeWidth=2;" parent="Z1BsBpzhcpCgyARzmuZx-406" vertex="1">
          <mxGeometry y="240" width="220" height="30" as="geometry" />
        </mxCell>
        <mxCell id="Z1BsBpzhcpCgyARzmuZx-473" value="" style="shape=partialRectangle;connectable=0;fillColor=none;top=0;left=0;bottom=0;right=0;editable=1;overflow=hidden;fontSize=13;strokeColor=#474747;fontColor=#0A0A0D;strokeWidth=2;" parent="Z1BsBpzhcpCgyARzmuZx-472" vertex="1">
          <mxGeometry width="50" height="30" as="geometry">
            <mxRectangle width="50" height="30" as="alternateBounds" />
          </mxGeometry>
        </mxCell>
        <mxCell id="Z1BsBpzhcpCgyARzmuZx-474" value="Сумма процентов" style="shape=partialRectangle;connectable=0;fillColor=none;top=0;left=0;bottom=0;right=0;align=left;spacingLeft=6;overflow=hidden;fontSize=13;strokeColor=#474747;fontColor=#0A0A0D;strokeWidth=2;" parent="Z1BsBpzhcpCgyARzmuZx-472" vertex="1">
          <mxGeometry x="50" width="170" height="30" as="geometry">
            <mxRectangle width="170" height="30" as="alternateBounds" />
          </mxGeometry>
        </mxCell>
        <mxCell id="Z1BsBpzhcpCgyARzmuZx-475" value="" style="shape=tableRow;horizontal=0;startSize=0;swimlaneHead=0;swimlaneBody=0;fillColor=none;collapsible=0;dropTarget=0;points=[[0,0.5],[1,0.5]];portConstraint=eastwest;top=0;left=0;right=0;bottom=0;fontSize=13;strokeColor=#474747;fontColor=#0A0A0D;strokeWidth=2;" parent="Z1BsBpzhcpCgyARzmuZx-406" vertex="1">
          <mxGeometry y="270" width="220" height="30" as="geometry" />
        </mxCell>
        <mxCell id="Z1BsBpzhcpCgyARzmuZx-476" value="" style="shape=partialRectangle;connectable=0;fillColor=none;top=0;left=0;bottom=0;right=0;editable=1;overflow=hidden;fontSize=13;strokeColor=#474747;fontColor=#0A0A0D;strokeWidth=2;" parent="Z1BsBpzhcpCgyARzmuZx-475" vertex="1">
          <mxGeometry width="50" height="30" as="geometry">
            <mxRectangle width="50" height="30" as="alternateBounds" />
          </mxGeometry>
        </mxCell>
        <mxCell id="Z1BsBpzhcpCgyARzmuZx-477" value="Итоговая сумма по графику" style="shape=partialRectangle;connectable=0;fillColor=none;top=0;left=0;bottom=0;right=0;align=left;spacingLeft=6;overflow=hidden;fontSize=13;strokeColor=#474747;fontColor=#0A0A0D;strokeWidth=2;" parent="Z1BsBpzhcpCgyARzmuZx-475" vertex="1">
          <mxGeometry x="50" width="170" height="30" as="geometry">
            <mxRectangle width="170" height="30" as="alternateBounds" />
          </mxGeometry>
        </mxCell>
        <mxCell id="Z1BsBpzhcpCgyARzmuZx-478" value="" style="shape=tableRow;horizontal=0;startSize=0;swimlaneHead=0;swimlaneBody=0;fillColor=none;collapsible=0;dropTarget=0;points=[[0,0.5],[1,0.5]];portConstraint=eastwest;top=0;left=0;right=0;bottom=0;fontSize=13;strokeColor=#474747;fontColor=#0A0A0D;strokeWidth=2;" parent="Z1BsBpzhcpCgyARzmuZx-406" vertex="1">
          <mxGeometry y="300" width="220" height="30" as="geometry" />
        </mxCell>
        <mxCell id="Z1BsBpzhcpCgyARzmuZx-479" value="" style="shape=partialRectangle;connectable=0;fillColor=none;top=0;left=0;bottom=0;right=0;editable=1;overflow=hidden;fontSize=13;strokeColor=#474747;fontColor=#0A0A0D;strokeWidth=2;" parent="Z1BsBpzhcpCgyARzmuZx-478" vertex="1">
          <mxGeometry width="50" height="30" as="geometry">
            <mxRectangle width="50" height="30" as="alternateBounds" />
          </mxGeometry>
        </mxCell>
        <mxCell id="Z1BsBpzhcpCgyARzmuZx-480" value="Дата списания" style="shape=partialRectangle;connectable=0;fillColor=none;top=0;left=0;bottom=0;right=0;align=left;spacingLeft=6;overflow=hidden;fontSize=13;strokeColor=#474747;fontColor=#0A0A0D;strokeWidth=2;" parent="Z1BsBpzhcpCgyARzmuZx-478" vertex="1">
          <mxGeometry x="50" width="170" height="30" as="geometry">
            <mxRectangle width="170" height="30" as="alternateBounds" />
          </mxGeometry>
        </mxCell>
        <mxCell id="Z1BsBpzhcpCgyARzmuZx-481" value="Кредитный договор" style="shape=table;startSize=30;container=1;collapsible=1;childLayout=tableLayout;fixedRows=1;rowLines=0;fontStyle=1;align=center;resizeLast=1;fontSize=13;fillColor=#B2C9AB;strokeColor=#474747;fontColor=#0A0A0D;strokeWidth=2;" parent="1" vertex="1">
          <mxGeometry x="-50" y="630" width="210" height="300" as="geometry" />
        </mxCell>
        <mxCell id="Z1BsBpzhcpCgyARzmuZx-482" value="" style="shape=tableRow;horizontal=0;startSize=0;swimlaneHead=0;swimlaneBody=0;fillColor=none;collapsible=0;dropTarget=0;points=[[0,0.5],[1,0.5]];portConstraint=eastwest;top=0;left=0;right=0;bottom=1;fontSize=13;strokeColor=#474747;fontColor=#0A0A0D;strokeWidth=2;" parent="Z1BsBpzhcpCgyARzmuZx-481" vertex="1">
          <mxGeometry y="30" width="210" height="30" as="geometry" />
        </mxCell>
        <mxCell id="Z1BsBpzhcpCgyARzmuZx-483" value="PK" style="shape=partialRectangle;connectable=0;fillColor=none;top=0;left=0;bottom=0;right=0;fontStyle=1;overflow=hidden;fontSize=13;strokeColor=#474747;fontColor=#0A0A0D;strokeWidth=2;" parent="Z1BsBpzhcpCgyARzmuZx-482" vertex="1">
          <mxGeometry width="30" height="30" as="geometry">
            <mxRectangle width="30" height="30" as="alternateBounds" />
          </mxGeometry>
        </mxCell>
        <mxCell id="Z1BsBpzhcpCgyARzmuZx-484" value="ID" style="shape=partialRectangle;connectable=0;fillColor=none;top=0;left=0;bottom=0;right=0;align=left;spacingLeft=6;fontStyle=5;overflow=hidden;fontSize=13;strokeColor=#474747;fontColor=#0A0A0D;strokeWidth=2;" parent="Z1BsBpzhcpCgyARzmuZx-482" vertex="1">
          <mxGeometry x="30" width="180" height="30" as="geometry">
            <mxRectangle width="180" height="30" as="alternateBounds" />
          </mxGeometry>
        </mxCell>
        <mxCell id="Z1BsBpzhcpCgyARzmuZx-485" value="" style="shape=tableRow;horizontal=0;startSize=0;swimlaneHead=0;swimlaneBody=0;fillColor=none;collapsible=0;dropTarget=0;points=[[0,0.5],[1,0.5]];portConstraint=eastwest;top=0;left=0;right=0;bottom=0;fontSize=13;strokeColor=#474747;fontColor=#0A0A0D;strokeWidth=2;" parent="Z1BsBpzhcpCgyARzmuZx-481" vertex="1">
          <mxGeometry y="60" width="210" height="30" as="geometry" />
        </mxCell>
        <mxCell id="Z1BsBpzhcpCgyARzmuZx-486" value="" style="shape=partialRectangle;connectable=0;fillColor=none;top=0;left=0;bottom=0;right=0;editable=1;overflow=hidden;fontSize=13;strokeColor=#474747;fontColor=#0A0A0D;strokeWidth=2;" parent="Z1BsBpzhcpCgyARzmuZx-485" vertex="1">
          <mxGeometry width="30" height="30" as="geometry">
            <mxRectangle width="30" height="30" as="alternateBounds" />
          </mxGeometry>
        </mxCell>
        <mxCell id="Z1BsBpzhcpCgyARzmuZx-487" value="Карта клиента" style="shape=partialRectangle;connectable=0;fillColor=none;top=0;left=0;bottom=0;right=0;align=left;spacingLeft=6;overflow=hidden;fontSize=13;strokeColor=#474747;fontColor=#0A0A0D;strokeWidth=2;" parent="Z1BsBpzhcpCgyARzmuZx-485" vertex="1">
          <mxGeometry x="30" width="180" height="30" as="geometry">
            <mxRectangle width="180" height="30" as="alternateBounds" />
          </mxGeometry>
        </mxCell>
        <mxCell id="Z1BsBpzhcpCgyARzmuZx-488" value="" style="shape=tableRow;horizontal=0;startSize=0;swimlaneHead=0;swimlaneBody=0;fillColor=none;collapsible=0;dropTarget=0;points=[[0,0.5],[1,0.5]];portConstraint=eastwest;top=0;left=0;right=0;bottom=0;fontSize=13;strokeColor=#474747;fontColor=#0A0A0D;strokeWidth=2;" parent="Z1BsBpzhcpCgyARzmuZx-481" vertex="1">
          <mxGeometry y="90" width="210" height="30" as="geometry" />
        </mxCell>
        <mxCell id="Z1BsBpzhcpCgyARzmuZx-489" value="" style="shape=partialRectangle;connectable=0;fillColor=none;top=0;left=0;bottom=0;right=0;editable=1;overflow=hidden;fontSize=13;strokeColor=#474747;fontColor=#0A0A0D;strokeWidth=2;" parent="Z1BsBpzhcpCgyARzmuZx-488" vertex="1">
          <mxGeometry width="30" height="30" as="geometry">
            <mxRectangle width="30" height="30" as="alternateBounds" />
          </mxGeometry>
        </mxCell>
        <mxCell id="Z1BsBpzhcpCgyARzmuZx-490" value="График" style="shape=partialRectangle;connectable=0;fillColor=none;top=0;left=0;bottom=0;right=0;align=left;spacingLeft=6;overflow=hidden;fontSize=13;strokeColor=#474747;fontColor=#0A0A0D;strokeWidth=2;" parent="Z1BsBpzhcpCgyARzmuZx-488" vertex="1">
          <mxGeometry x="30" width="180" height="30" as="geometry">
            <mxRectangle width="180" height="30" as="alternateBounds" />
          </mxGeometry>
        </mxCell>
        <mxCell id="Z1BsBpzhcpCgyARzmuZx-494" value="" style="shape=tableRow;horizontal=0;startSize=0;swimlaneHead=0;swimlaneBody=0;fillColor=none;collapsible=0;dropTarget=0;points=[[0,0.5],[1,0.5]];portConstraint=eastwest;top=0;left=0;right=0;bottom=0;fontSize=13;strokeColor=#474747;fontColor=#0A0A0D;strokeWidth=2;" parent="Z1BsBpzhcpCgyARzmuZx-481" vertex="1">
          <mxGeometry y="120" width="210" height="30" as="geometry" />
        </mxCell>
        <mxCell id="Z1BsBpzhcpCgyARzmuZx-495" value="" style="shape=partialRectangle;connectable=0;fillColor=none;top=0;left=0;bottom=0;right=0;editable=1;overflow=hidden;fontSize=13;strokeColor=#474747;fontColor=#0A0A0D;strokeWidth=2;" parent="Z1BsBpzhcpCgyARzmuZx-494" vertex="1">
          <mxGeometry width="30" height="30" as="geometry">
            <mxRectangle width="30" height="30" as="alternateBounds" />
          </mxGeometry>
        </mxCell>
        <mxCell id="Z1BsBpzhcpCgyARzmuZx-496" value="Сотрудник  офор. договор" style="shape=partialRectangle;connectable=0;fillColor=none;top=0;left=0;bottom=0;right=0;align=left;spacingLeft=6;overflow=hidden;fontSize=13;strokeColor=#474747;fontColor=#0A0A0D;strokeWidth=2;" parent="Z1BsBpzhcpCgyARzmuZx-494" vertex="1">
          <mxGeometry x="30" width="180" height="30" as="geometry">
            <mxRectangle width="180" height="30" as="alternateBounds" />
          </mxGeometry>
        </mxCell>
        <mxCell id="Z1BsBpzhcpCgyARzmuZx-491" value="" style="shape=tableRow;horizontal=0;startSize=0;swimlaneHead=0;swimlaneBody=0;fillColor=none;collapsible=0;dropTarget=0;points=[[0,0.5],[1,0.5]];portConstraint=eastwest;top=0;left=0;right=0;bottom=0;fontSize=13;strokeColor=#474747;fontColor=#0A0A0D;strokeWidth=2;" parent="Z1BsBpzhcpCgyARzmuZx-481" vertex="1">
          <mxGeometry y="150" width="210" height="30" as="geometry" />
        </mxCell>
        <mxCell id="Z1BsBpzhcpCgyARzmuZx-492" value="" style="shape=partialRectangle;connectable=0;fillColor=none;top=0;left=0;bottom=0;right=0;editable=1;overflow=hidden;fontSize=13;strokeColor=#474747;fontColor=#0A0A0D;strokeWidth=2;" parent="Z1BsBpzhcpCgyARzmuZx-491" vertex="1">
          <mxGeometry width="30" height="30" as="geometry">
            <mxRectangle width="30" height="30" as="alternateBounds" />
          </mxGeometry>
        </mxCell>
        <mxCell id="Z1BsBpzhcpCgyARzmuZx-493" value="Сумма договора" style="shape=partialRectangle;connectable=0;fillColor=none;top=0;left=0;bottom=0;right=0;align=left;spacingLeft=6;overflow=hidden;fontSize=13;strokeColor=#474747;fontColor=#0A0A0D;strokeWidth=2;" parent="Z1BsBpzhcpCgyARzmuZx-491" vertex="1">
          <mxGeometry x="30" width="180" height="30" as="geometry">
            <mxRectangle width="180" height="30" as="alternateBounds" />
          </mxGeometry>
        </mxCell>
        <mxCell id="Z1BsBpzhcpCgyARzmuZx-497" value="" style="shape=tableRow;horizontal=0;startSize=0;swimlaneHead=0;swimlaneBody=0;fillColor=none;collapsible=0;dropTarget=0;points=[[0,0.5],[1,0.5]];portConstraint=eastwest;top=0;left=0;right=0;bottom=0;fontSize=13;strokeColor=#474747;fontColor=#0A0A0D;strokeWidth=2;" parent="Z1BsBpzhcpCgyARzmuZx-481" vertex="1">
          <mxGeometry y="180" width="210" height="30" as="geometry" />
        </mxCell>
        <mxCell id="Z1BsBpzhcpCgyARzmuZx-498" value="" style="shape=partialRectangle;connectable=0;fillColor=none;top=0;left=0;bottom=0;right=0;editable=1;overflow=hidden;fontSize=13;strokeColor=#474747;fontColor=#0A0A0D;strokeWidth=2;" parent="Z1BsBpzhcpCgyARzmuZx-497" vertex="1">
          <mxGeometry width="30" height="30" as="geometry">
            <mxRectangle width="30" height="30" as="alternateBounds" />
          </mxGeometry>
        </mxCell>
        <mxCell id="Z1BsBpzhcpCgyARzmuZx-499" value="Ставка в %" style="shape=partialRectangle;connectable=0;fillColor=none;top=0;left=0;bottom=0;right=0;align=left;spacingLeft=6;overflow=hidden;fontSize=13;strokeColor=#474747;fontColor=#0A0A0D;strokeWidth=2;" parent="Z1BsBpzhcpCgyARzmuZx-497" vertex="1">
          <mxGeometry x="30" width="180" height="30" as="geometry">
            <mxRectangle width="180" height="30" as="alternateBounds" />
          </mxGeometry>
        </mxCell>
        <mxCell id="Z1BsBpzhcpCgyARzmuZx-500" value="" style="shape=tableRow;horizontal=0;startSize=0;swimlaneHead=0;swimlaneBody=0;fillColor=none;collapsible=0;dropTarget=0;points=[[0,0.5],[1,0.5]];portConstraint=eastwest;top=0;left=0;right=0;bottom=0;fontSize=13;strokeColor=#474747;fontColor=#0A0A0D;strokeWidth=2;" parent="Z1BsBpzhcpCgyARzmuZx-481" vertex="1">
          <mxGeometry y="210" width="210" height="30" as="geometry" />
        </mxCell>
        <mxCell id="Z1BsBpzhcpCgyARzmuZx-501" value="" style="shape=partialRectangle;connectable=0;fillColor=none;top=0;left=0;bottom=0;right=0;editable=1;overflow=hidden;fontSize=13;strokeColor=#474747;fontColor=#0A0A0D;strokeWidth=2;" parent="Z1BsBpzhcpCgyARzmuZx-500" vertex="1">
          <mxGeometry width="30" height="30" as="geometry">
            <mxRectangle width="30" height="30" as="alternateBounds" />
          </mxGeometry>
        </mxCell>
        <mxCell id="Z1BsBpzhcpCgyARzmuZx-502" value="Срок в мес." style="shape=partialRectangle;connectable=0;fillColor=none;top=0;left=0;bottom=0;right=0;align=left;spacingLeft=6;overflow=hidden;fontSize=13;strokeColor=#474747;fontColor=#0A0A0D;strokeWidth=2;" parent="Z1BsBpzhcpCgyARzmuZx-500" vertex="1">
          <mxGeometry x="30" width="180" height="30" as="geometry">
            <mxRectangle width="180" height="30" as="alternateBounds" />
          </mxGeometry>
        </mxCell>
        <mxCell id="Z1BsBpzhcpCgyARzmuZx-588" value="" style="shape=tableRow;horizontal=0;startSize=0;swimlaneHead=0;swimlaneBody=0;fillColor=none;collapsible=0;dropTarget=0;points=[[0,0.5],[1,0.5]];portConstraint=eastwest;top=0;left=0;right=0;bottom=0;fontSize=13;strokeColor=#474747;fontColor=#0A0A0D;strokeWidth=2;" parent="Z1BsBpzhcpCgyARzmuZx-481" vertex="1">
          <mxGeometry y="240" width="210" height="30" as="geometry" />
        </mxCell>
        <mxCell id="Z1BsBpzhcpCgyARzmuZx-589" value="" style="shape=partialRectangle;connectable=0;fillColor=none;top=0;left=0;bottom=0;right=0;editable=1;overflow=hidden;fontSize=13;strokeColor=#474747;fontColor=#0A0A0D;strokeWidth=2;" parent="Z1BsBpzhcpCgyARzmuZx-588" vertex="1">
          <mxGeometry width="30" height="30" as="geometry">
            <mxRectangle width="30" height="30" as="alternateBounds" />
          </mxGeometry>
        </mxCell>
        <mxCell id="Z1BsBpzhcpCgyARzmuZx-590" value="Дата" style="shape=partialRectangle;connectable=0;fillColor=none;top=0;left=0;bottom=0;right=0;align=left;spacingLeft=6;overflow=hidden;fontSize=13;strokeColor=#474747;fontColor=#0A0A0D;strokeWidth=2;" parent="Z1BsBpzhcpCgyARzmuZx-588" vertex="1">
          <mxGeometry x="30" width="180" height="30" as="geometry">
            <mxRectangle width="180" height="30" as="alternateBounds" />
          </mxGeometry>
        </mxCell>
        <mxCell id="Z1BsBpzhcpCgyARzmuZx-591" value="" style="shape=tableRow;horizontal=0;startSize=0;swimlaneHead=0;swimlaneBody=0;fillColor=none;collapsible=0;dropTarget=0;points=[[0,0.5],[1,0.5]];portConstraint=eastwest;top=0;left=0;right=0;bottom=0;fontSize=13;strokeColor=#474747;fontColor=#0A0A0D;strokeWidth=2;" parent="Z1BsBpzhcpCgyARzmuZx-481" vertex="1">
          <mxGeometry y="270" width="210" height="30" as="geometry" />
        </mxCell>
        <mxCell id="Z1BsBpzhcpCgyARzmuZx-592" value="" style="shape=partialRectangle;connectable=0;fillColor=none;top=0;left=0;bottom=0;right=0;editable=1;overflow=hidden;fontSize=13;strokeColor=#474747;fontColor=#0A0A0D;strokeWidth=2;" parent="Z1BsBpzhcpCgyARzmuZx-591" vertex="1">
          <mxGeometry width="30" height="30" as="geometry">
            <mxRectangle width="30" height="30" as="alternateBounds" />
          </mxGeometry>
        </mxCell>
        <mxCell id="Z1BsBpzhcpCgyARzmuZx-593" value="Предмет кредита" style="shape=partialRectangle;connectable=0;fillColor=none;top=0;left=0;bottom=0;right=0;align=left;spacingLeft=6;overflow=hidden;fontSize=13;strokeColor=#474747;fontColor=#0A0A0D;strokeWidth=2;" parent="Z1BsBpzhcpCgyARzmuZx-591" vertex="1">
          <mxGeometry x="30" width="180" height="30" as="geometry">
            <mxRectangle width="180" height="30" as="alternateBounds" />
          </mxGeometry>
        </mxCell>
        <mxCell id="Z1BsBpzhcpCgyARzmuZx-535" style="edgeStyle=orthogonalEdgeStyle;rounded=0;orthogonalLoop=1;jettySize=auto;html=1;exitX=0;exitY=0.5;exitDx=0;exitDy=0;entryX=1;entryY=0.5;entryDx=0;entryDy=0;fontSize=13;startSize=8;endSize=8;endArrow=ERzeroToMany;endFill=0;startArrow=ERmandOne;startFill=0;strokeColor=#474747;fontColor=#0A0A0D;strokeWidth=2;jumpSize=6;" parent="1" source="Z1BsBpzhcpCgyARzmuZx-407" target="Z1BsBpzhcpCgyARzmuZx-488" edge="1">
          <mxGeometry relative="1" as="geometry">
            <Array as="points">
              <mxPoint x="200" y="455" />
              <mxPoint x="200" y="735" />
            </Array>
          </mxGeometry>
        </mxCell>
        <mxCell id="Z1BsBpzhcpCgyARzmuZx-536" style="edgeStyle=orthogonalEdgeStyle;rounded=0;orthogonalLoop=1;jettySize=auto;html=1;exitX=0;exitY=0.058;exitDx=0;exitDy=0;entryX=1;entryY=0.5;entryDx=0;entryDy=0;fontSize=13;startArrow=ERmandOne;startFill=0;endArrow=ERzeroToMany;endFill=0;startSize=8;endSize=8;exitPerimeter=0;strokeColor=#474747;fontColor=#0A0A0D;strokeWidth=2;jumpSize=6;" parent="1" source="Z1BsBpzhcpCgyARzmuZx-300" target="Z1BsBpzhcpCgyARzmuZx-407" edge="1">
          <mxGeometry relative="1" as="geometry">
            <Array as="points">
              <mxPoint x="520" y="397" />
              <mxPoint x="520" y="455" />
            </Array>
          </mxGeometry>
        </mxCell>
        <mxCell id="Z1BsBpzhcpCgyARzmuZx-560" style="edgeStyle=orthogonalEdgeStyle;rounded=0;orthogonalLoop=1;jettySize=auto;html=1;exitX=0;exitY=0.073;exitDx=0;exitDy=0;entryX=1;entryY=0.5;entryDx=0;entryDy=0;fontSize=13;startArrow=ERmandOne;startFill=0;endArrow=ERzeroToMany;endFill=0;startSize=8;endSize=8;exitPerimeter=0;strokeColor=#474747;fontColor=#0A0A0D;strokeWidth=2;jumpSize=6;" parent="1" source="Z1BsBpzhcpCgyARzmuZx-171" target="Z1BsBpzhcpCgyARzmuZx-147" edge="1">
          <mxGeometry relative="1" as="geometry">
            <Array as="points">
              <mxPoint x="480" y="81" />
              <mxPoint x="480" y="55" />
            </Array>
          </mxGeometry>
        </mxCell>
        <mxCell id="Z1BsBpzhcpCgyARzmuZx-584" style="edgeStyle=orthogonalEdgeStyle;rounded=0;orthogonalLoop=1;jettySize=auto;html=1;entryX=0;entryY=0.5;entryDx=0;entryDy=0;fontSize=13;startArrow=ERmandOne;startFill=0;endArrow=ERzeroToMany;endFill=0;startSize=8;endSize=8;exitX=0;exitY=0.5;exitDx=0;exitDy=0;strokeColor=#474747;fontColor=#0A0A0D;strokeWidth=2;jumpSize=6;" parent="1" source="Z1BsBpzhcpCgyARzmuZx-12" target="Z1BsBpzhcpCgyARzmuZx-485" edge="1">
          <mxGeometry relative="1" as="geometry">
            <Array as="points">
              <mxPoint x="-120" y="95" />
              <mxPoint x="-120" y="705" />
            </Array>
            <mxPoint x="-140" y="120" as="sourcePoint" />
          </mxGeometry>
        </mxCell>
        <mxCell id="Z1BsBpzhcpCgyARzmuZx-585" style="edgeStyle=orthogonalEdgeStyle;rounded=0;orthogonalLoop=1;jettySize=auto;html=1;exitX=0;exitY=0.5;exitDx=0;exitDy=0;entryX=1;entryY=0.5;entryDx=0;entryDy=0;fontSize=13;startArrow=ERmandOne;startFill=0;endArrow=ERzeroToMany;endFill=0;startSize=8;endSize=8;strokeColor=#474747;fontColor=#0A0A0D;strokeWidth=2;jumpSize=6;" parent="1" source="Z1BsBpzhcpCgyARzmuZx-46" target="Z1BsBpzhcpCgyARzmuZx-494" edge="1">
          <mxGeometry relative="1" as="geometry">
            <Array as="points">
              <mxPoint x="1000" y="715" />
              <mxPoint x="1000" y="765" />
            </Array>
          </mxGeometry>
        </mxCell>
        <mxCell id="Z1BsBpzhcpCgyARzmuZx-587" style="edgeStyle=orthogonalEdgeStyle;rounded=0;orthogonalLoop=1;jettySize=auto;html=1;entryX=1;entryY=0.5;entryDx=0;entryDy=0;fontSize=13;startArrow=ERmandOne;startFill=0;endArrow=ERzeroToMany;endFill=0;startSize=8;endSize=8;exitX=1;exitY=0.5;exitDx=0;exitDy=0;strokeColor=#474747;fontColor=#0A0A0D;strokeWidth=2;jumpSize=6;" parent="1" source="Z1BsBpzhcpCgyARzmuZx-172" target="Z1BsBpzhcpCgyARzmuZx-369" edge="1">
          <mxGeometry relative="1" as="geometry">
            <Array as="points">
              <mxPoint x="880" y="125" />
              <mxPoint x="880" y="665" />
            </Array>
          </mxGeometry>
        </mxCell>
        <mxCell id="Z1BsBpzhcpCgyARzmuZx-594" style="edgeStyle=orthogonalEdgeStyle;rounded=0;orthogonalLoop=1;jettySize=auto;html=1;fontSize=13;startArrow=ERzeroToMany;startFill=0;endArrow=ERmandOne;endFill=0;startSize=8;endSize=8;strokeColor=#474747;fontColor=#0A0A0D;strokeWidth=2;jumpSize=6;" parent="1" target="Z1BsBpzhcpCgyARzmuZx-178" edge="1">
          <mxGeometry relative="1" as="geometry">
            <Array as="points">
              <mxPoint x="560" y="-80" />
              <mxPoint x="560" y="210" />
            </Array>
            <mxPoint x="600" y="-80" as="sourcePoint" />
            <mxPoint x="590" y="210" as="targetPoint" />
          </mxGeometry>
        </mxCell>
        <mxCell id="Z1BsBpzhcpCgyARzmuZx-595" style="edgeStyle=orthogonalEdgeStyle;rounded=0;orthogonalLoop=1;jettySize=auto;html=1;exitX=1.002;exitY=0.142;exitDx=0;exitDy=0;fontSize=13;startArrow=ERzeroToMany;startFill=0;endArrow=ERmandOne;endFill=0;startSize=8;endSize=8;exitPerimeter=0;strokeColor=#474747;fontColor=#0A0A0D;strokeWidth=2;jumpSize=6;entryX=1;entryY=0.5;entryDx=0;entryDy=0;" parent="1" source="Z1BsBpzhcpCgyARzmuZx-264" target="Z1BsBpzhcpCgyARzmuZx-203" edge="1">
          <mxGeometry relative="1" as="geometry">
            <Array as="points">
              <mxPoint x="1280" y="-83" />
              <mxPoint x="1280" y="250" />
              <mxPoint x="1240" y="250" />
            </Array>
            <mxPoint x="1380" y="250" as="targetPoint" />
          </mxGeometry>
        </mxCell>
        <mxCell id="Z1BsBpzhcpCgyARzmuZx-596" style="edgeStyle=orthogonalEdgeStyle;rounded=0;orthogonalLoop=1;jettySize=auto;html=1;entryX=1;entryY=0.5;entryDx=0;entryDy=0;fontSize=13;startArrow=ERzeroToMany;startFill=0;endArrow=ERmandOne;endFill=0;startSize=8;endSize=8;exitX=0;exitY=0.5;exitDx=0;exitDy=0;strokeColor=#474747;fontColor=#0A0A0D;strokeWidth=2;jumpSize=6;" parent="1" source="Z1BsBpzhcpCgyARzmuZx-265" target="Z1BsBpzhcpCgyARzmuZx-296" edge="1">
          <mxGeometry relative="1" as="geometry">
            <mxPoint x="160" y="-310" as="sourcePoint" />
            <Array as="points">
              <mxPoint x="140" y="-55" />
              <mxPoint x="140" y="335" />
            </Array>
          </mxGeometry>
        </mxCell>
        <mxCell id="dbsTAfBsprb9ZXSNt7f_-19" style="edgeStyle=orthogonalEdgeStyle;rounded=0;orthogonalLoop=1;jettySize=auto;html=1;entryX=1;entryY=0.5;entryDx=0;entryDy=0;endArrow=ERzeroToMany;endFill=0;startArrow=ERmandOne;startFill=0;strokeColor=#474747;fontColor=#0A0A0D;strokeWidth=2;fontSize=13;jumpSize=6;endSize=8;startSize=8;" parent="1" source="Z1BsBpzhcpCgyARzmuZx-144" target="s5G9YJPdSNpEqPbHZ_q9-64" edge="1">
          <mxGeometry relative="1" as="geometry">
            <Array as="points">
              <mxPoint x="170" y="15" />
              <mxPoint x="170" y="365" />
            </Array>
          </mxGeometry>
        </mxCell>
        <mxCell id="s5G9YJPdSNpEqPbHZ_q9-33" style="edgeStyle=orthogonalEdgeStyle;rounded=0;orthogonalLoop=1;jettySize=auto;html=1;entryX=0;entryY=0.5;entryDx=0;entryDy=0;startArrow=ERmandOne;startFill=0;endArrow=ERzeroToMany;endFill=0;exitX=1;exitY=0.5;exitDx=0;exitDy=0;strokeColor=#474747;fontColor=#0A0A0D;strokeWidth=2;fontSize=13;jumpSize=6;endSize=8;startSize=8;" edge="1" parent="1" source="Z1BsBpzhcpCgyARzmuZx-12" target="Z1BsBpzhcpCgyARzmuZx-304">
          <mxGeometry relative="1" as="geometry">
            <mxPoint x="100" y="180" as="sourcePoint" />
            <Array as="points">
              <mxPoint x="110" y="95" />
              <mxPoint x="110" y="280" />
              <mxPoint x="560" y="280" />
              <mxPoint x="560" y="455" />
            </Array>
          </mxGeometry>
        </mxCell>
        <mxCell id="s5G9YJPdSNpEqPbHZ_q9-70" value="Фактические операции &#xa;по договру" style="shape=table;startSize=50;container=1;collapsible=1;childLayout=tableLayout;fixedRows=1;rowLines=0;fontStyle=1;align=center;resizeLast=1;fillColor=#B2C9AB;strokeColor=#474747;fontColor=#0A0A0D;strokeWidth=2;fontSize=13;" vertex="1" parent="1">
          <mxGeometry x="-480" y="-100" width="200" height="290" as="geometry" />
        </mxCell>
        <mxCell id="s5G9YJPdSNpEqPbHZ_q9-71" value="" style="shape=tableRow;horizontal=0;startSize=0;swimlaneHead=0;swimlaneBody=0;fillColor=none;collapsible=0;dropTarget=0;points=[[0,0.5],[1,0.5]];portConstraint=eastwest;top=0;left=0;right=0;bottom=1;strokeColor=#474747;fontColor=#0A0A0D;strokeWidth=2;fontSize=13;" vertex="1" parent="s5G9YJPdSNpEqPbHZ_q9-70">
          <mxGeometry y="50" width="200" height="30" as="geometry" />
        </mxCell>
        <mxCell id="s5G9YJPdSNpEqPbHZ_q9-72" value="PK" style="shape=partialRectangle;connectable=0;fillColor=none;top=0;left=0;bottom=0;right=0;fontStyle=1;overflow=hidden;strokeColor=#474747;fontColor=#0A0A0D;strokeWidth=2;fontSize=13;" vertex="1" parent="s5G9YJPdSNpEqPbHZ_q9-71">
          <mxGeometry width="30" height="30" as="geometry">
            <mxRectangle width="30" height="30" as="alternateBounds" />
          </mxGeometry>
        </mxCell>
        <mxCell id="s5G9YJPdSNpEqPbHZ_q9-73" value="ID" style="shape=partialRectangle;connectable=0;fillColor=none;top=0;left=0;bottom=0;right=0;align=left;spacingLeft=6;fontStyle=5;overflow=hidden;strokeColor=#474747;fontColor=#0A0A0D;strokeWidth=2;fontSize=13;" vertex="1" parent="s5G9YJPdSNpEqPbHZ_q9-71">
          <mxGeometry x="30" width="170" height="30" as="geometry">
            <mxRectangle width="170" height="30" as="alternateBounds" />
          </mxGeometry>
        </mxCell>
        <mxCell id="s5G9YJPdSNpEqPbHZ_q9-74" value="" style="shape=tableRow;horizontal=0;startSize=0;swimlaneHead=0;swimlaneBody=0;fillColor=none;collapsible=0;dropTarget=0;points=[[0,0.5],[1,0.5]];portConstraint=eastwest;top=0;left=0;right=0;bottom=0;strokeColor=#474747;fontColor=#0A0A0D;strokeWidth=2;fontSize=13;" vertex="1" parent="s5G9YJPdSNpEqPbHZ_q9-70">
          <mxGeometry y="80" width="200" height="30" as="geometry" />
        </mxCell>
        <mxCell id="s5G9YJPdSNpEqPbHZ_q9-75" value="" style="shape=partialRectangle;connectable=0;fillColor=none;top=0;left=0;bottom=0;right=0;editable=1;overflow=hidden;strokeColor=#474747;fontColor=#0A0A0D;strokeWidth=2;fontSize=13;" vertex="1" parent="s5G9YJPdSNpEqPbHZ_q9-74">
          <mxGeometry width="30" height="30" as="geometry">
            <mxRectangle width="30" height="30" as="alternateBounds" />
          </mxGeometry>
        </mxCell>
        <mxCell id="s5G9YJPdSNpEqPbHZ_q9-76" value="Тип операции" style="shape=partialRectangle;connectable=0;fillColor=none;top=0;left=0;bottom=0;right=0;align=left;spacingLeft=6;overflow=hidden;strokeColor=#474747;fontColor=#0A0A0D;strokeWidth=2;fontSize=13;" vertex="1" parent="s5G9YJPdSNpEqPbHZ_q9-74">
          <mxGeometry x="30" width="170" height="30" as="geometry">
            <mxRectangle width="170" height="30" as="alternateBounds" />
          </mxGeometry>
        </mxCell>
        <mxCell id="s5G9YJPdSNpEqPbHZ_q9-77" value="" style="shape=tableRow;horizontal=0;startSize=0;swimlaneHead=0;swimlaneBody=0;fillColor=none;collapsible=0;dropTarget=0;points=[[0,0.5],[1,0.5]];portConstraint=eastwest;top=0;left=0;right=0;bottom=0;strokeColor=#474747;fontColor=#0A0A0D;strokeWidth=2;fontSize=13;" vertex="1" parent="s5G9YJPdSNpEqPbHZ_q9-70">
          <mxGeometry y="110" width="200" height="30" as="geometry" />
        </mxCell>
        <mxCell id="s5G9YJPdSNpEqPbHZ_q9-78" value="" style="shape=partialRectangle;connectable=0;fillColor=none;top=0;left=0;bottom=0;right=0;editable=1;overflow=hidden;strokeColor=#474747;fontColor=#0A0A0D;strokeWidth=2;fontSize=13;" vertex="1" parent="s5G9YJPdSNpEqPbHZ_q9-77">
          <mxGeometry width="30" height="30" as="geometry">
            <mxRectangle width="30" height="30" as="alternateBounds" />
          </mxGeometry>
        </mxCell>
        <mxCell id="s5G9YJPdSNpEqPbHZ_q9-79" value="Сумма операции" style="shape=partialRectangle;connectable=0;fillColor=none;top=0;left=0;bottom=0;right=0;align=left;spacingLeft=6;overflow=hidden;strokeColor=#474747;fontColor=#0A0A0D;strokeWidth=2;fontSize=13;" vertex="1" parent="s5G9YJPdSNpEqPbHZ_q9-77">
          <mxGeometry x="30" width="170" height="30" as="geometry">
            <mxRectangle width="170" height="30" as="alternateBounds" />
          </mxGeometry>
        </mxCell>
        <mxCell id="s5G9YJPdSNpEqPbHZ_q9-80" value="" style="shape=tableRow;horizontal=0;startSize=0;swimlaneHead=0;swimlaneBody=0;fillColor=none;collapsible=0;dropTarget=0;points=[[0,0.5],[1,0.5]];portConstraint=eastwest;top=0;left=0;right=0;bottom=0;strokeColor=#474747;fontColor=#0A0A0D;strokeWidth=2;fontSize=13;" vertex="1" parent="s5G9YJPdSNpEqPbHZ_q9-70">
          <mxGeometry y="140" width="200" height="30" as="geometry" />
        </mxCell>
        <mxCell id="s5G9YJPdSNpEqPbHZ_q9-81" value="" style="shape=partialRectangle;connectable=0;fillColor=none;top=0;left=0;bottom=0;right=0;editable=1;overflow=hidden;strokeColor=#474747;fontColor=#0A0A0D;strokeWidth=2;fontSize=13;" vertex="1" parent="s5G9YJPdSNpEqPbHZ_q9-80">
          <mxGeometry width="30" height="30" as="geometry">
            <mxRectangle width="30" height="30" as="alternateBounds" />
          </mxGeometry>
        </mxCell>
        <mxCell id="s5G9YJPdSNpEqPbHZ_q9-82" value="Дата операции" style="shape=partialRectangle;connectable=0;fillColor=none;top=0;left=0;bottom=0;right=0;align=left;spacingLeft=6;overflow=hidden;strokeColor=#474747;fontColor=#0A0A0D;strokeWidth=2;fontSize=13;" vertex="1" parent="s5G9YJPdSNpEqPbHZ_q9-80">
          <mxGeometry x="30" width="170" height="30" as="geometry">
            <mxRectangle width="170" height="30" as="alternateBounds" />
          </mxGeometry>
        </mxCell>
        <mxCell id="s5G9YJPdSNpEqPbHZ_q9-83" value="" style="shape=tableRow;horizontal=0;startSize=0;swimlaneHead=0;swimlaneBody=0;fillColor=none;collapsible=0;dropTarget=0;points=[[0,0.5],[1,0.5]];portConstraint=eastwest;top=0;left=0;right=0;bottom=0;strokeColor=#474747;fontColor=#0A0A0D;strokeWidth=2;fontSize=13;" vertex="1" parent="s5G9YJPdSNpEqPbHZ_q9-70">
          <mxGeometry y="170" width="200" height="30" as="geometry" />
        </mxCell>
        <mxCell id="s5G9YJPdSNpEqPbHZ_q9-84" value="" style="shape=partialRectangle;connectable=0;fillColor=none;top=0;left=0;bottom=0;right=0;editable=1;overflow=hidden;strokeColor=#474747;fontColor=#0A0A0D;strokeWidth=2;fontSize=13;" vertex="1" parent="s5G9YJPdSNpEqPbHZ_q9-83">
          <mxGeometry width="30" height="30" as="geometry">
            <mxRectangle width="30" height="30" as="alternateBounds" />
          </mxGeometry>
        </mxCell>
        <mxCell id="s5G9YJPdSNpEqPbHZ_q9-85" value="Клиент" style="shape=partialRectangle;connectable=0;fillColor=none;top=0;left=0;bottom=0;right=0;align=left;spacingLeft=6;overflow=hidden;strokeColor=#474747;fontColor=#0A0A0D;strokeWidth=2;fontSize=13;" vertex="1" parent="s5G9YJPdSNpEqPbHZ_q9-83">
          <mxGeometry x="30" width="170" height="30" as="geometry">
            <mxRectangle width="170" height="30" as="alternateBounds" />
          </mxGeometry>
        </mxCell>
        <mxCell id="s5G9YJPdSNpEqPbHZ_q9-86" value="" style="shape=tableRow;horizontal=0;startSize=0;swimlaneHead=0;swimlaneBody=0;fillColor=none;collapsible=0;dropTarget=0;points=[[0,0.5],[1,0.5]];portConstraint=eastwest;top=0;left=0;right=0;bottom=0;strokeColor=#474747;fontColor=#0A0A0D;strokeWidth=2;fontSize=13;" vertex="1" parent="s5G9YJPdSNpEqPbHZ_q9-70">
          <mxGeometry y="200" width="200" height="30" as="geometry" />
        </mxCell>
        <mxCell id="s5G9YJPdSNpEqPbHZ_q9-87" value="" style="shape=partialRectangle;connectable=0;fillColor=none;top=0;left=0;bottom=0;right=0;editable=1;overflow=hidden;strokeColor=#474747;fontColor=#0A0A0D;strokeWidth=2;fontSize=13;" vertex="1" parent="s5G9YJPdSNpEqPbHZ_q9-86">
          <mxGeometry width="30" height="30" as="geometry">
            <mxRectangle width="30" height="30" as="alternateBounds" />
          </mxGeometry>
        </mxCell>
        <mxCell id="s5G9YJPdSNpEqPbHZ_q9-88" value="Сотрудник (кассир) " style="shape=partialRectangle;connectable=0;fillColor=none;top=0;left=0;bottom=0;right=0;align=left;spacingLeft=6;overflow=hidden;strokeColor=#474747;fontColor=#0A0A0D;strokeWidth=2;fontSize=13;" vertex="1" parent="s5G9YJPdSNpEqPbHZ_q9-86">
          <mxGeometry x="30" width="170" height="30" as="geometry">
            <mxRectangle width="170" height="30" as="alternateBounds" />
          </mxGeometry>
        </mxCell>
        <mxCell id="s5G9YJPdSNpEqPbHZ_q9-89" value="" style="shape=tableRow;horizontal=0;startSize=0;swimlaneHead=0;swimlaneBody=0;fillColor=none;collapsible=0;dropTarget=0;points=[[0,0.5],[1,0.5]];portConstraint=eastwest;top=0;left=0;right=0;bottom=0;strokeColor=#474747;fontColor=#0A0A0D;strokeWidth=2;fontSize=13;" vertex="1" parent="s5G9YJPdSNpEqPbHZ_q9-70">
          <mxGeometry y="230" width="200" height="30" as="geometry" />
        </mxCell>
        <mxCell id="s5G9YJPdSNpEqPbHZ_q9-90" value="" style="shape=partialRectangle;connectable=0;fillColor=none;top=0;left=0;bottom=0;right=0;editable=1;overflow=hidden;strokeColor=#474747;fontColor=#0A0A0D;strokeWidth=2;fontSize=13;" vertex="1" parent="s5G9YJPdSNpEqPbHZ_q9-89">
          <mxGeometry width="30" height="30" as="geometry">
            <mxRectangle width="30" height="30" as="alternateBounds" />
          </mxGeometry>
        </mxCell>
        <mxCell id="s5G9YJPdSNpEqPbHZ_q9-91" value="Счет клиента" style="shape=partialRectangle;connectable=0;fillColor=none;top=0;left=0;bottom=0;right=0;align=left;spacingLeft=6;overflow=hidden;strokeColor=#474747;fontColor=#0A0A0D;strokeWidth=2;fontSize=13;" vertex="1" parent="s5G9YJPdSNpEqPbHZ_q9-89">
          <mxGeometry x="30" width="170" height="30" as="geometry">
            <mxRectangle width="170" height="30" as="alternateBounds" />
          </mxGeometry>
        </mxCell>
        <mxCell id="s5G9YJPdSNpEqPbHZ_q9-92" value="" style="shape=tableRow;horizontal=0;startSize=0;swimlaneHead=0;swimlaneBody=0;fillColor=none;collapsible=0;dropTarget=0;points=[[0,0.5],[1,0.5]];portConstraint=eastwest;top=0;left=0;right=0;bottom=0;strokeColor=#474747;fontColor=#0A0A0D;strokeWidth=2;fontSize=13;" vertex="1" parent="s5G9YJPdSNpEqPbHZ_q9-70">
          <mxGeometry y="260" width="200" height="30" as="geometry" />
        </mxCell>
        <mxCell id="s5G9YJPdSNpEqPbHZ_q9-93" value="" style="shape=partialRectangle;connectable=0;fillColor=none;top=0;left=0;bottom=0;right=0;editable=1;overflow=hidden;strokeColor=#474747;fontColor=#0A0A0D;strokeWidth=2;fontSize=13;" vertex="1" parent="s5G9YJPdSNpEqPbHZ_q9-92">
          <mxGeometry width="30" height="30" as="geometry">
            <mxRectangle width="30" height="30" as="alternateBounds" />
          </mxGeometry>
        </mxCell>
        <mxCell id="s5G9YJPdSNpEqPbHZ_q9-94" value="Кредитный договор" style="shape=partialRectangle;connectable=0;fillColor=none;top=0;left=0;bottom=0;right=0;align=left;spacingLeft=6;overflow=hidden;strokeColor=#474747;fontColor=#0A0A0D;strokeWidth=2;fontSize=13;" vertex="1" parent="s5G9YJPdSNpEqPbHZ_q9-92">
          <mxGeometry x="30" width="170" height="30" as="geometry">
            <mxRectangle width="170" height="30" as="alternateBounds" />
          </mxGeometry>
        </mxCell>
        <mxCell id="s5G9YJPdSNpEqPbHZ_q9-95" value="Тип операции" style="shape=table;startSize=30;container=1;collapsible=1;childLayout=tableLayout;fixedRows=1;rowLines=0;fontStyle=1;align=center;resizeLast=1;fillColor=#B2C9AB;strokeColor=#474747;fontColor=#0A0A0D;strokeWidth=2;fontSize=13;" vertex="1" parent="1">
          <mxGeometry x="-480" y="240" width="220" height="240" as="geometry" />
        </mxCell>
        <mxCell id="s5G9YJPdSNpEqPbHZ_q9-96" value="" style="shape=tableRow;horizontal=0;startSize=0;swimlaneHead=0;swimlaneBody=0;fillColor=none;collapsible=0;dropTarget=0;points=[[0,0.5],[1,0.5]];portConstraint=eastwest;top=0;left=0;right=0;bottom=1;strokeColor=#474747;fontColor=#0A0A0D;strokeWidth=2;fontSize=13;" vertex="1" parent="s5G9YJPdSNpEqPbHZ_q9-95">
          <mxGeometry y="30" width="220" height="30" as="geometry" />
        </mxCell>
        <mxCell id="s5G9YJPdSNpEqPbHZ_q9-97" value="PK" style="shape=partialRectangle;connectable=0;fillColor=none;top=0;left=0;bottom=0;right=0;fontStyle=1;overflow=hidden;strokeColor=#474747;fontColor=#0A0A0D;strokeWidth=2;fontSize=13;" vertex="1" parent="s5G9YJPdSNpEqPbHZ_q9-96">
          <mxGeometry width="30" height="30" as="geometry">
            <mxRectangle width="30" height="30" as="alternateBounds" />
          </mxGeometry>
        </mxCell>
        <mxCell id="s5G9YJPdSNpEqPbHZ_q9-98" value="ID" style="shape=partialRectangle;connectable=0;fillColor=none;top=0;left=0;bottom=0;right=0;align=left;spacingLeft=6;fontStyle=5;overflow=hidden;strokeColor=#474747;fontColor=#0A0A0D;strokeWidth=2;fontSize=13;" vertex="1" parent="s5G9YJPdSNpEqPbHZ_q9-96">
          <mxGeometry x="30" width="190" height="30" as="geometry">
            <mxRectangle width="190" height="30" as="alternateBounds" />
          </mxGeometry>
        </mxCell>
        <mxCell id="s5G9YJPdSNpEqPbHZ_q9-99" value="" style="shape=tableRow;horizontal=0;startSize=0;swimlaneHead=0;swimlaneBody=0;fillColor=none;collapsible=0;dropTarget=0;points=[[0,0.5],[1,0.5]];portConstraint=eastwest;top=0;left=0;right=0;bottom=0;strokeColor=#474747;fontColor=#0A0A0D;strokeWidth=2;fontSize=13;" vertex="1" parent="s5G9YJPdSNpEqPbHZ_q9-95">
          <mxGeometry y="60" width="220" height="30" as="geometry" />
        </mxCell>
        <mxCell id="s5G9YJPdSNpEqPbHZ_q9-100" value="" style="shape=partialRectangle;connectable=0;fillColor=none;top=0;left=0;bottom=0;right=0;editable=1;overflow=hidden;strokeColor=#474747;fontColor=#0A0A0D;strokeWidth=2;fontSize=13;" vertex="1" parent="s5G9YJPdSNpEqPbHZ_q9-99">
          <mxGeometry width="30" height="30" as="geometry">
            <mxRectangle width="30" height="30" as="alternateBounds" />
          </mxGeometry>
        </mxCell>
        <mxCell id="s5G9YJPdSNpEqPbHZ_q9-101" value="Тип" style="shape=partialRectangle;connectable=0;fillColor=none;top=0;left=0;bottom=0;right=0;align=left;spacingLeft=6;overflow=hidden;strokeColor=#474747;fontColor=#0A0A0D;strokeWidth=2;fontSize=13;" vertex="1" parent="s5G9YJPdSNpEqPbHZ_q9-99">
          <mxGeometry x="30" width="190" height="30" as="geometry">
            <mxRectangle width="190" height="30" as="alternateBounds" />
          </mxGeometry>
        </mxCell>
        <mxCell id="s5G9YJPdSNpEqPbHZ_q9-116" style="edgeStyle=orthogonalEdgeStyle;rounded=0;orthogonalLoop=1;jettySize=auto;html=1;exitX=1;exitY=0.5;exitDx=0;exitDy=0;entryX=1;entryY=0.5;entryDx=0;entryDy=0;startArrow=ERzeroToMany;startFill=0;endArrow=ERmandOne;endFill=0;strokeColor=#474747;fontColor=#0A0A0D;strokeWidth=2;fontSize=13;jumpSize=6;endSize=8;startSize=8;" edge="1" parent="s5G9YJPdSNpEqPbHZ_q9-95" source="s5G9YJPdSNpEqPbHZ_q9-102" target="s5G9YJPdSNpEqPbHZ_q9-96">
          <mxGeometry relative="1" as="geometry" />
        </mxCell>
        <mxCell id="s5G9YJPdSNpEqPbHZ_q9-102" value="" style="shape=tableRow;horizontal=0;startSize=0;swimlaneHead=0;swimlaneBody=0;fillColor=none;collapsible=0;dropTarget=0;points=[[0,0.5],[1,0.5]];portConstraint=eastwest;top=0;left=0;right=0;bottom=0;strokeColor=#474747;fontColor=#0A0A0D;strokeWidth=2;fontSize=13;" vertex="1" parent="s5G9YJPdSNpEqPbHZ_q9-95">
          <mxGeometry y="90" width="220" height="30" as="geometry" />
        </mxCell>
        <mxCell id="s5G9YJPdSNpEqPbHZ_q9-103" value="" style="shape=partialRectangle;connectable=0;fillColor=none;top=0;left=0;bottom=0;right=0;editable=1;overflow=hidden;strokeColor=#474747;fontColor=#0A0A0D;strokeWidth=2;fontSize=13;" vertex="1" parent="s5G9YJPdSNpEqPbHZ_q9-102">
          <mxGeometry width="30" height="30" as="geometry">
            <mxRectangle width="30" height="30" as="alternateBounds" />
          </mxGeometry>
        </mxCell>
        <mxCell id="s5G9YJPdSNpEqPbHZ_q9-104" value="id_отношения" style="shape=partialRectangle;connectable=0;fillColor=none;top=0;left=0;bottom=0;right=0;align=left;spacingLeft=6;overflow=hidden;strokeColor=#474747;fontColor=#0A0A0D;strokeWidth=2;fontSize=13;" vertex="1" parent="s5G9YJPdSNpEqPbHZ_q9-102">
          <mxGeometry x="30" width="190" height="30" as="geometry">
            <mxRectangle width="190" height="30" as="alternateBounds" />
          </mxGeometry>
        </mxCell>
        <mxCell id="s5G9YJPdSNpEqPbHZ_q9-154" value="" style="shape=tableRow;horizontal=0;startSize=0;swimlaneHead=0;swimlaneBody=0;fillColor=none;collapsible=0;dropTarget=0;points=[[0,0.5],[1,0.5]];portConstraint=eastwest;top=0;left=0;right=0;bottom=0;strokeColor=#474747;fontColor=#0A0A0D;strokeWidth=2;fontSize=13;" vertex="1" parent="s5G9YJPdSNpEqPbHZ_q9-95">
          <mxGeometry y="120" width="220" height="30" as="geometry" />
        </mxCell>
        <mxCell id="s5G9YJPdSNpEqPbHZ_q9-155" value="" style="shape=partialRectangle;connectable=0;fillColor=none;top=0;left=0;bottom=0;right=0;editable=1;overflow=hidden;strokeColor=#474747;fontColor=#0A0A0D;strokeWidth=2;fontSize=13;" vertex="1" parent="s5G9YJPdSNpEqPbHZ_q9-154">
          <mxGeometry width="30" height="30" as="geometry">
            <mxRectangle width="30" height="30" as="alternateBounds" />
          </mxGeometry>
        </mxCell>
        <mxCell id="s5G9YJPdSNpEqPbHZ_q9-156" value="Своевременная оплата " style="shape=partialRectangle;connectable=0;fillColor=none;top=0;left=0;bottom=0;right=0;align=left;spacingLeft=6;overflow=hidden;strokeColor=#474747;fontColor=#0A0A0D;strokeWidth=2;fontSize=13;" vertex="1" parent="s5G9YJPdSNpEqPbHZ_q9-154">
          <mxGeometry x="30" width="190" height="30" as="geometry">
            <mxRectangle width="190" height="30" as="alternateBounds" />
          </mxGeometry>
        </mxCell>
        <mxCell id="s5G9YJPdSNpEqPbHZ_q9-157" value="" style="shape=tableRow;horizontal=0;startSize=0;swimlaneHead=0;swimlaneBody=0;fillColor=none;collapsible=0;dropTarget=0;points=[[0,0.5],[1,0.5]];portConstraint=eastwest;top=0;left=0;right=0;bottom=0;strokeColor=#474747;fontColor=#0A0A0D;strokeWidth=2;fontSize=13;" vertex="1" parent="s5G9YJPdSNpEqPbHZ_q9-95">
          <mxGeometry y="150" width="220" height="30" as="geometry" />
        </mxCell>
        <mxCell id="s5G9YJPdSNpEqPbHZ_q9-158" value="" style="shape=partialRectangle;connectable=0;fillColor=none;top=0;left=0;bottom=0;right=0;editable=1;overflow=hidden;strokeColor=#474747;fontColor=#0A0A0D;strokeWidth=2;fontSize=13;" vertex="1" parent="s5G9YJPdSNpEqPbHZ_q9-157">
          <mxGeometry width="30" height="30" as="geometry">
            <mxRectangle width="30" height="30" as="alternateBounds" />
          </mxGeometry>
        </mxCell>
        <mxCell id="s5G9YJPdSNpEqPbHZ_q9-159" value="Просроченная задолжность" style="shape=partialRectangle;connectable=0;fillColor=none;top=0;left=0;bottom=0;right=0;align=left;spacingLeft=6;overflow=hidden;strokeColor=#474747;fontColor=#0A0A0D;strokeWidth=2;fontSize=13;" vertex="1" parent="s5G9YJPdSNpEqPbHZ_q9-157">
          <mxGeometry x="30" width="190" height="30" as="geometry">
            <mxRectangle width="190" height="30" as="alternateBounds" />
          </mxGeometry>
        </mxCell>
        <mxCell id="s5G9YJPdSNpEqPbHZ_q9-160" value="" style="shape=tableRow;horizontal=0;startSize=0;swimlaneHead=0;swimlaneBody=0;fillColor=none;collapsible=0;dropTarget=0;points=[[0,0.5],[1,0.5]];portConstraint=eastwest;top=0;left=0;right=0;bottom=0;strokeColor=#474747;fontColor=#0A0A0D;strokeWidth=2;fontSize=13;" vertex="1" parent="s5G9YJPdSNpEqPbHZ_q9-95">
          <mxGeometry y="180" width="220" height="30" as="geometry" />
        </mxCell>
        <mxCell id="s5G9YJPdSNpEqPbHZ_q9-161" value="" style="shape=partialRectangle;connectable=0;fillColor=none;top=0;left=0;bottom=0;right=0;editable=1;overflow=hidden;strokeColor=#474747;fontColor=#0A0A0D;strokeWidth=2;fontSize=13;" vertex="1" parent="s5G9YJPdSNpEqPbHZ_q9-160">
          <mxGeometry width="30" height="30" as="geometry">
            <mxRectangle width="30" height="30" as="alternateBounds" />
          </mxGeometry>
        </mxCell>
        <mxCell id="s5G9YJPdSNpEqPbHZ_q9-162" value="Начисление " style="shape=partialRectangle;connectable=0;fillColor=none;top=0;left=0;bottom=0;right=0;align=left;spacingLeft=6;overflow=hidden;strokeColor=#474747;fontColor=#0A0A0D;strokeWidth=2;fontSize=13;" vertex="1" parent="s5G9YJPdSNpEqPbHZ_q9-160">
          <mxGeometry x="30" width="190" height="30" as="geometry">
            <mxRectangle width="190" height="30" as="alternateBounds" />
          </mxGeometry>
        </mxCell>
        <mxCell id="s5G9YJPdSNpEqPbHZ_q9-163" value="" style="shape=tableRow;horizontal=0;startSize=0;swimlaneHead=0;swimlaneBody=0;fillColor=none;collapsible=0;dropTarget=0;points=[[0,0.5],[1,0.5]];portConstraint=eastwest;top=0;left=0;right=0;bottom=0;strokeColor=#474747;fontColor=#0A0A0D;strokeWidth=2;fontSize=13;" vertex="1" parent="s5G9YJPdSNpEqPbHZ_q9-95">
          <mxGeometry y="210" width="220" height="30" as="geometry" />
        </mxCell>
        <mxCell id="s5G9YJPdSNpEqPbHZ_q9-164" value="" style="shape=partialRectangle;connectable=0;fillColor=none;top=0;left=0;bottom=0;right=0;editable=1;overflow=hidden;strokeColor=#474747;fontColor=#0A0A0D;strokeWidth=2;fontSize=13;" vertex="1" parent="s5G9YJPdSNpEqPbHZ_q9-163">
          <mxGeometry width="30" height="30" as="geometry">
            <mxRectangle width="30" height="30" as="alternateBounds" />
          </mxGeometry>
        </mxCell>
        <mxCell id="s5G9YJPdSNpEqPbHZ_q9-165" value="Начисление " style="shape=partialRectangle;connectable=0;fillColor=none;top=0;left=0;bottom=0;right=0;align=left;spacingLeft=6;overflow=hidden;strokeColor=#474747;fontColor=#0A0A0D;strokeWidth=2;fontSize=13;" vertex="1" parent="s5G9YJPdSNpEqPbHZ_q9-163">
          <mxGeometry x="30" width="190" height="30" as="geometry">
            <mxRectangle width="190" height="30" as="alternateBounds" />
          </mxGeometry>
        </mxCell>
        <mxCell id="s5G9YJPdSNpEqPbHZ_q9-117" style="edgeStyle=orthogonalEdgeStyle;rounded=0;orthogonalLoop=1;jettySize=auto;html=1;exitX=0;exitY=0.5;exitDx=0;exitDy=0;entryX=0;entryY=0.5;entryDx=0;entryDy=0;startArrow=ERzeroToMany;startFill=0;endArrow=ERmandOne;endFill=0;strokeColor=#474747;fontColor=#0A0A0D;strokeWidth=2;fontSize=13;jumpSize=6;endSize=8;startSize=8;" edge="1" parent="1" source="s5G9YJPdSNpEqPbHZ_q9-96" target="s5G9YJPdSNpEqPbHZ_q9-74">
          <mxGeometry relative="1" as="geometry">
            <Array as="points">
              <mxPoint x="-520" y="285" />
              <mxPoint x="-520" y="-5" />
            </Array>
          </mxGeometry>
        </mxCell>
        <mxCell id="s5G9YJPdSNpEqPbHZ_q9-118" style="edgeStyle=orthogonalEdgeStyle;rounded=0;orthogonalLoop=1;jettySize=auto;html=1;strokeColor=#474747;strokeWidth=2;fontSize=13;fontColor=#0A0A0D;fillColor=#B2C9AB;endArrow=ERzeroToMany;endFill=0;exitX=0;exitY=0.15;exitDx=0;exitDy=0;exitPerimeter=0;jumpSize=6;startArrow=ERmandOne;startFill=0;endSize=8;startSize=8;" edge="1" parent="1" source="Z1BsBpzhcpCgyARzmuZx-12" target="s5G9YJPdSNpEqPbHZ_q9-83">
          <mxGeometry relative="1" as="geometry" />
        </mxCell>
        <mxCell id="s5G9YJPdSNpEqPbHZ_q9-147" style="edgeStyle=orthogonalEdgeStyle;rounded=0;jumpSize=6;orthogonalLoop=1;jettySize=auto;html=1;exitX=1;exitY=0.5;exitDx=0;exitDy=0;strokeColor=#474747;strokeWidth=2;fontSize=13;fontColor=#0A0A0D;startArrow=ERzeroToMany;startFill=0;endArrow=ERmandOne;endFill=0;fillColor=#B2C9AB;entryX=1;entryY=0.5;entryDx=0;entryDy=0;endSize=8;startSize=8;" edge="1" parent="1" source="s5G9YJPdSNpEqPbHZ_q9-86" target="Z1BsBpzhcpCgyARzmuZx-46">
          <mxGeometry relative="1" as="geometry">
            <Array as="points">
              <mxPoint x="-200" y="115" />
              <mxPoint x="-200" y="1000" />
              <mxPoint x="1280" y="1000" />
              <mxPoint x="1280" y="715" />
            </Array>
          </mxGeometry>
        </mxCell>
        <mxCell id="s5G9YJPdSNpEqPbHZ_q9-148" style="edgeStyle=orthogonalEdgeStyle;rounded=0;jumpSize=6;orthogonalLoop=1;jettySize=auto;html=1;entryX=0;entryY=0.5;entryDx=0;entryDy=0;strokeColor=#474747;strokeWidth=2;fontSize=13;fontColor=#0A0A0D;startArrow=ERzeroToMany;startFill=0;endArrow=ERmandOne;endFill=0;fillColor=#B2C9AB;endSize=8;startSize=8;" edge="1" parent="1" source="s5G9YJPdSNpEqPbHZ_q9-89" target="Z1BsBpzhcpCgyARzmuZx-144">
          <mxGeometry relative="1" as="geometry">
            <Array as="points">
              <mxPoint x="-160" y="145" />
              <mxPoint x="-160" y="25" />
            </Array>
          </mxGeometry>
        </mxCell>
        <mxCell id="s5G9YJPdSNpEqPbHZ_q9-150" style="edgeStyle=orthogonalEdgeStyle;rounded=0;jumpSize=6;orthogonalLoop=1;jettySize=auto;html=1;exitX=1;exitY=0.5;exitDx=0;exitDy=0;entryX=0;entryY=0.5;entryDx=0;entryDy=0;strokeColor=#474747;strokeWidth=2;fontSize=13;fontColor=#0A0A0D;startArrow=ERzeroToMany;startFill=0;endArrow=ERmandOne;endFill=0;fillColor=#B2C9AB;endSize=8;startSize=8;" edge="1" parent="1" source="Z1BsBpzhcpCgyARzmuZx-175" target="Z1BsBpzhcpCgyARzmuZx-191">
          <mxGeometry relative="1" as="geometry">
            <Array as="points">
              <mxPoint x="1000" y="185" />
              <mxPoint x="1000" y="65" />
            </Array>
          </mxGeometry>
        </mxCell>
        <mxCell id="s5G9YJPdSNpEqPbHZ_q9-151" style="edgeStyle=orthogonalEdgeStyle;rounded=0;jumpSize=6;orthogonalLoop=1;jettySize=auto;html=1;entryX=0;entryY=0.5;entryDx=0;entryDy=0;strokeColor=#474747;strokeWidth=2;fontSize=13;fontColor=#0A0A0D;startArrow=ERzeroToMany;startFill=0;endArrow=ERmandOne;endFill=0;fillColor=#B2C9AB;endSize=8;startSize=8;" edge="1" parent="1" source="Z1BsBpzhcpCgyARzmuZx-310" target="Z1BsBpzhcpCgyARzmuZx-239">
          <mxGeometry relative="1" as="geometry">
            <Array as="points">
              <mxPoint x="840" y="485" />
              <mxPoint x="840" y="395" />
            </Array>
          </mxGeometry>
        </mxCell>
        <mxCell id="s5G9YJPdSNpEqPbHZ_q9-153" style="edgeStyle=orthogonalEdgeStyle;rounded=0;jumpSize=6;orthogonalLoop=1;jettySize=auto;html=1;strokeColor=#474747;strokeWidth=2;fontSize=13;fontColor=#0A0A0D;startArrow=ERzeroToMany;startFill=0;endArrow=ERmandOne;endFill=0;startSize=8;endSize=8;fillColor=#B2C9AB;entryX=-0.001;entryY=0.246;entryDx=0;entryDy=0;entryPerimeter=0;" edge="1" parent="1" source="s5G9YJPdSNpEqPbHZ_q9-92" target="Z1BsBpzhcpCgyARzmuZx-482">
          <mxGeometry relative="1" as="geometry">
            <mxPoint x="-60" y="660" as="targetPoint" />
            <Array as="points">
              <mxPoint x="-160" y="175" />
              <mxPoint x="-160" y="667" />
            </Array>
          </mxGeometry>
        </mxCell>
        <mxCell id="s5G9YJPdSNpEqPbHZ_q9-166" style="edgeStyle=orthogonalEdgeStyle;rounded=0;jumpSize=6;orthogonalLoop=1;jettySize=auto;html=1;exitX=1;exitY=0.5;exitDx=0;exitDy=0;entryX=0;entryY=0.5;entryDx=0;entryDy=0;strokeColor=#474747;strokeWidth=2;fontSize=13;fontColor=#0A0A0D;startArrow=ERzeroToMany;startFill=0;endArrow=ERmandOne;endFill=0;startSize=8;endSize=8;fillColor=#B2C9AB;" edge="1" parent="1" source="s5G9YJPdSNpEqPbHZ_q9-154" target="Z1BsBpzhcpCgyARzmuZx-482">
          <mxGeometry relative="1" as="geometry">
            <Array as="points">
              <mxPoint x="-230" y="375" />
              <mxPoint x="-230" y="675" />
            </Array>
          </mxGeometry>
        </mxCell>
        <mxCell id="s5G9YJPdSNpEqPbHZ_q9-167" value="Просрочка" style="shape=table;startSize=30;container=1;collapsible=1;childLayout=tableLayout;fixedRows=1;rowLines=0;fontStyle=1;align=center;resizeLast=1;fillColor=#B2C9AB;strokeColor=#474747;fontColor=#0A0A0D;strokeWidth=2;fontSize=13;" vertex="1" parent="1">
          <mxGeometry x="-800" y="360" width="200" height="210" as="geometry" />
        </mxCell>
        <mxCell id="s5G9YJPdSNpEqPbHZ_q9-197" style="edgeStyle=orthogonalEdgeStyle;rounded=0;jumpSize=6;orthogonalLoop=1;jettySize=auto;html=1;entryX=0;entryY=0.5;entryDx=0;entryDy=0;strokeColor=#474747;strokeWidth=2;fontSize=13;fontColor=#0A0A0D;startArrow=ERmandOne;startFill=0;endArrow=ERzeroToMany;endFill=0;startSize=8;endSize=8;fillColor=#B2C9AB;exitX=0;exitY=0.5;exitDx=0;exitDy=0;" edge="1" parent="s5G9YJPdSNpEqPbHZ_q9-167" source="s5G9YJPdSNpEqPbHZ_q9-168" target="s5G9YJPdSNpEqPbHZ_q9-190">
          <mxGeometry relative="1" as="geometry">
            <Array as="points">
              <mxPoint x="-40" y="45" />
              <mxPoint x="-40" y="105" />
            </Array>
          </mxGeometry>
        </mxCell>
        <mxCell id="s5G9YJPdSNpEqPbHZ_q9-168" value="" style="shape=tableRow;horizontal=0;startSize=0;swimlaneHead=0;swimlaneBody=0;fillColor=none;collapsible=0;dropTarget=0;points=[[0,0.5],[1,0.5]];portConstraint=eastwest;top=0;left=0;right=0;bottom=1;strokeColor=#474747;fontColor=#0A0A0D;strokeWidth=2;fontSize=13;" vertex="1" parent="s5G9YJPdSNpEqPbHZ_q9-167">
          <mxGeometry y="30" width="200" height="30" as="geometry" />
        </mxCell>
        <mxCell id="s5G9YJPdSNpEqPbHZ_q9-169" value="PK" style="shape=partialRectangle;connectable=0;fillColor=none;top=0;left=0;bottom=0;right=0;fontStyle=1;overflow=hidden;strokeColor=#474747;fontColor=#0A0A0D;strokeWidth=2;fontSize=13;" vertex="1" parent="s5G9YJPdSNpEqPbHZ_q9-168">
          <mxGeometry width="30" height="30" as="geometry">
            <mxRectangle width="30" height="30" as="alternateBounds" />
          </mxGeometry>
        </mxCell>
        <mxCell id="s5G9YJPdSNpEqPbHZ_q9-170" value="ID" style="shape=partialRectangle;connectable=0;fillColor=none;top=0;left=0;bottom=0;right=0;align=left;spacingLeft=6;fontStyle=5;overflow=hidden;strokeColor=#474747;fontColor=#0A0A0D;strokeWidth=2;fontSize=13;" vertex="1" parent="s5G9YJPdSNpEqPbHZ_q9-168">
          <mxGeometry x="30" width="170" height="30" as="geometry">
            <mxRectangle width="170" height="30" as="alternateBounds" />
          </mxGeometry>
        </mxCell>
        <mxCell id="s5G9YJPdSNpEqPbHZ_q9-171" value="" style="shape=tableRow;horizontal=0;startSize=0;swimlaneHead=0;swimlaneBody=0;fillColor=none;collapsible=0;dropTarget=0;points=[[0,0.5],[1,0.5]];portConstraint=eastwest;top=0;left=0;right=0;bottom=0;strokeColor=#474747;fontColor=#0A0A0D;strokeWidth=2;fontSize=13;" vertex="1" parent="s5G9YJPdSNpEqPbHZ_q9-167">
          <mxGeometry y="60" width="200" height="30" as="geometry" />
        </mxCell>
        <mxCell id="s5G9YJPdSNpEqPbHZ_q9-172" value="" style="shape=partialRectangle;connectable=0;fillColor=none;top=0;left=0;bottom=0;right=0;editable=1;overflow=hidden;strokeColor=#474747;fontColor=#0A0A0D;strokeWidth=2;fontSize=13;" vertex="1" parent="s5G9YJPdSNpEqPbHZ_q9-171">
          <mxGeometry width="30" height="30" as="geometry">
            <mxRectangle width="30" height="30" as="alternateBounds" />
          </mxGeometry>
        </mxCell>
        <mxCell id="s5G9YJPdSNpEqPbHZ_q9-173" value="Дата начала" style="shape=partialRectangle;connectable=0;fillColor=none;top=0;left=0;bottom=0;right=0;align=left;spacingLeft=6;overflow=hidden;strokeColor=#474747;fontColor=#0A0A0D;strokeWidth=2;fontSize=13;" vertex="1" parent="s5G9YJPdSNpEqPbHZ_q9-171">
          <mxGeometry x="30" width="170" height="30" as="geometry">
            <mxRectangle width="170" height="30" as="alternateBounds" />
          </mxGeometry>
        </mxCell>
        <mxCell id="s5G9YJPdSNpEqPbHZ_q9-190" value="" style="shape=tableRow;horizontal=0;startSize=0;swimlaneHead=0;swimlaneBody=0;fillColor=none;collapsible=0;dropTarget=0;points=[[0,0.5],[1,0.5]];portConstraint=eastwest;top=0;left=0;right=0;bottom=0;strokeColor=#474747;fontColor=#0A0A0D;strokeWidth=2;fontSize=13;" vertex="1" parent="s5G9YJPdSNpEqPbHZ_q9-167">
          <mxGeometry y="90" width="200" height="30" as="geometry" />
        </mxCell>
        <mxCell id="s5G9YJPdSNpEqPbHZ_q9-191" value="" style="shape=partialRectangle;connectable=0;fillColor=none;top=0;left=0;bottom=0;right=0;editable=1;overflow=hidden;strokeColor=#474747;fontColor=#0A0A0D;strokeWidth=2;fontSize=13;" vertex="1" parent="s5G9YJPdSNpEqPbHZ_q9-190">
          <mxGeometry width="30" height="30" as="geometry">
            <mxRectangle width="30" height="30" as="alternateBounds" />
          </mxGeometry>
        </mxCell>
        <mxCell id="s5G9YJPdSNpEqPbHZ_q9-192" value="id_отношения" style="shape=partialRectangle;connectable=0;fillColor=none;top=0;left=0;bottom=0;right=0;align=left;spacingLeft=6;overflow=hidden;strokeColor=#474747;fontColor=#0A0A0D;strokeWidth=2;fontSize=13;" vertex="1" parent="s5G9YJPdSNpEqPbHZ_q9-190">
          <mxGeometry x="30" width="170" height="30" as="geometry">
            <mxRectangle width="170" height="30" as="alternateBounds" />
          </mxGeometry>
        </mxCell>
        <mxCell id="s5G9YJPdSNpEqPbHZ_q9-175" value="" style="shape=tableRow;horizontal=0;startSize=0;swimlaneHead=0;swimlaneBody=0;fillColor=none;collapsible=0;dropTarget=0;points=[[0,0.5],[1,0.5]];portConstraint=eastwest;top=0;left=0;right=0;bottom=0;strokeColor=#474747;fontColor=#0A0A0D;strokeWidth=2;fontSize=13;" vertex="1" parent="s5G9YJPdSNpEqPbHZ_q9-167">
          <mxGeometry y="120" width="200" height="30" as="geometry" />
        </mxCell>
        <mxCell id="s5G9YJPdSNpEqPbHZ_q9-176" value="" style="shape=partialRectangle;connectable=0;fillColor=none;top=0;left=0;bottom=0;right=0;editable=1;overflow=hidden;strokeColor=#474747;fontColor=#0A0A0D;strokeWidth=2;fontSize=13;" vertex="1" parent="s5G9YJPdSNpEqPbHZ_q9-175">
          <mxGeometry width="30" height="30" as="geometry">
            <mxRectangle width="30" height="30" as="alternateBounds" />
          </mxGeometry>
        </mxCell>
        <mxCell id="s5G9YJPdSNpEqPbHZ_q9-177" value="Обязательство" style="shape=partialRectangle;connectable=0;fillColor=none;top=0;left=0;bottom=0;right=0;align=left;spacingLeft=6;overflow=hidden;strokeColor=#474747;fontColor=#0A0A0D;strokeWidth=2;fontSize=13;" vertex="1" parent="s5G9YJPdSNpEqPbHZ_q9-175">
          <mxGeometry x="30" width="170" height="30" as="geometry">
            <mxRectangle width="170" height="30" as="alternateBounds" />
          </mxGeometry>
        </mxCell>
        <mxCell id="s5G9YJPdSNpEqPbHZ_q9-187" value="" style="shape=tableRow;horizontal=0;startSize=0;swimlaneHead=0;swimlaneBody=0;fillColor=none;collapsible=0;dropTarget=0;points=[[0,0.5],[1,0.5]];portConstraint=eastwest;top=0;left=0;right=0;bottom=0;strokeColor=#474747;fontColor=#0A0A0D;strokeWidth=2;fontSize=13;" vertex="1" parent="s5G9YJPdSNpEqPbHZ_q9-167">
          <mxGeometry y="150" width="200" height="30" as="geometry" />
        </mxCell>
        <mxCell id="s5G9YJPdSNpEqPbHZ_q9-188" value="" style="shape=partialRectangle;connectable=0;fillColor=none;top=0;left=0;bottom=0;right=0;editable=1;overflow=hidden;strokeColor=#474747;fontColor=#0A0A0D;strokeWidth=2;fontSize=13;" vertex="1" parent="s5G9YJPdSNpEqPbHZ_q9-187">
          <mxGeometry width="30" height="30" as="geometry">
            <mxRectangle width="30" height="30" as="alternateBounds" />
          </mxGeometry>
        </mxCell>
        <mxCell id="s5G9YJPdSNpEqPbHZ_q9-189" value="Наименование" style="shape=partialRectangle;connectable=0;fillColor=none;top=0;left=0;bottom=0;right=0;align=left;spacingLeft=6;overflow=hidden;strokeColor=#474747;fontColor=#0A0A0D;strokeWidth=2;fontSize=13;" vertex="1" parent="s5G9YJPdSNpEqPbHZ_q9-187">
          <mxGeometry x="30" width="170" height="30" as="geometry">
            <mxRectangle width="170" height="30" as="alternateBounds" />
          </mxGeometry>
        </mxCell>
        <mxCell id="s5G9YJPdSNpEqPbHZ_q9-198" value="" style="shape=tableRow;horizontal=0;startSize=0;swimlaneHead=0;swimlaneBody=0;fillColor=none;collapsible=0;dropTarget=0;points=[[0,0.5],[1,0.5]];portConstraint=eastwest;top=0;left=0;right=0;bottom=0;strokeColor=#474747;fontColor=#0A0A0D;strokeWidth=2;fontSize=13;" vertex="1" parent="s5G9YJPdSNpEqPbHZ_q9-167">
          <mxGeometry y="180" width="200" height="30" as="geometry" />
        </mxCell>
        <mxCell id="s5G9YJPdSNpEqPbHZ_q9-199" value="" style="shape=partialRectangle;connectable=0;fillColor=none;top=0;left=0;bottom=0;right=0;editable=1;overflow=hidden;strokeColor=#474747;fontColor=#0A0A0D;strokeWidth=2;fontSize=13;" vertex="1" parent="s5G9YJPdSNpEqPbHZ_q9-198">
          <mxGeometry width="30" height="30" as="geometry">
            <mxRectangle width="30" height="30" as="alternateBounds" />
          </mxGeometry>
        </mxCell>
        <mxCell id="s5G9YJPdSNpEqPbHZ_q9-200" value="Дата закрытия" style="shape=partialRectangle;connectable=0;fillColor=none;top=0;left=0;bottom=0;right=0;align=left;spacingLeft=6;overflow=hidden;strokeColor=#474747;fontColor=#0A0A0D;strokeWidth=2;fontSize=13;" vertex="1" parent="s5G9YJPdSNpEqPbHZ_q9-198">
          <mxGeometry x="30" width="170" height="30" as="geometry">
            <mxRectangle width="170" height="30" as="alternateBounds" />
          </mxGeometry>
        </mxCell>
        <mxCell id="s5G9YJPdSNpEqPbHZ_q9-193" style="edgeStyle=orthogonalEdgeStyle;rounded=0;jumpSize=6;orthogonalLoop=1;jettySize=auto;html=1;entryX=0.003;entryY=0.873;entryDx=0;entryDy=0;strokeColor=#474747;strokeWidth=2;fontSize=13;fontColor=#0A0A0D;startArrow=ERzeroToMany;startFill=0;endArrow=ERmandOne;endFill=0;startSize=8;endSize=8;fillColor=#B2C9AB;entryPerimeter=0;" edge="1" parent="1" source="s5G9YJPdSNpEqPbHZ_q9-175" target="Z1BsBpzhcpCgyARzmuZx-482">
          <mxGeometry relative="1" as="geometry">
            <Array as="points">
              <mxPoint x="-520" y="495" />
              <mxPoint x="-520" y="686" />
            </Array>
          </mxGeometry>
        </mxCell>
        <mxCell id="s5G9YJPdSNpEqPbHZ_q9-201" style="edgeStyle=orthogonalEdgeStyle;rounded=0;jumpSize=6;orthogonalLoop=1;jettySize=auto;html=1;entryX=0;entryY=0.5;entryDx=0;entryDy=0;strokeColor=#474747;strokeWidth=2;fontSize=13;fontColor=#0A0A0D;startArrow=ERmandOne;startFill=0;endArrow=ERzeroToMany;endFill=0;startSize=8;endSize=8;fillColor=#B2C9AB;" edge="1" parent="1" source="s5G9YJPdSNpEqPbHZ_q9-168" target="s5G9YJPdSNpEqPbHZ_q9-157">
          <mxGeometry relative="1" as="geometry" />
        </mxCell>
      </root>
    </mxGraphModel>
  </diagram>
</mxfile>
